<mxfile host="Electron" agent="Mozilla/5.0 (Windows NT 10.0; Win64; x64) AppleWebKit/537.36 (KHTML, like Gecko) draw.io/26.0.16 Chrome/132.0.6834.196 Electron/34.2.0 Safari/537.36" version="26.0.16">
  <diagram name="Страница — 1" id="9xvtJ4yKMO5ireNRr0zT">
    <mxGraphModel dx="1061" dy="726" grid="0" gridSize="10" guides="1" tooltips="1" connect="1" arrows="1" fold="1" page="1" pageScale="1" pageWidth="827" pageHeight="1169" math="0" shadow="0">
      <root>
        <mxCell id="0" />
        <mxCell id="1" parent="0" />
        <mxCell id="JpfB7zD26m4SBqy2sYj4-34" value="" style="rounded=1;whiteSpace=wrap;html=1;fillColor=#d5e8d4;strokeColor=#82b366;shadow=0;sketch=1;curveFitting=1;jiggle=2;" vertex="1" parent="1">
          <mxGeometry x="233" y="50" width="593" height="574" as="geometry" />
        </mxCell>
        <mxCell id="JN2aCoUtrqrgfyc8CFwK-14" style="rounded=0;orthogonalLoop=1;jettySize=auto;html=1;entryX=0;entryY=0.5;entryDx=0;entryDy=0;fillColor=#d5e8d4;strokeColor=#82b366;exitX=1;exitY=0.5;exitDx=0;exitDy=0;strokeWidth=2;" parent="1" source="JN2aCoUtrqrgfyc8CFwK-2" target="JN2aCoUtrqrgfyc8CFwK-12" edge="1">
          <mxGeometry relative="1" as="geometry" />
        </mxCell>
        <mxCell id="JN2aCoUtrqrgfyc8CFwK-18" style="rounded=0;orthogonalLoop=1;jettySize=auto;html=1;fillColor=#d5e8d4;strokeColor=#82b366;exitX=1;exitY=0.5;exitDx=0;exitDy=0;entryX=0;entryY=0.5;entryDx=0;entryDy=0;strokeWidth=2;" parent="1" source="JN2aCoUtrqrgfyc8CFwK-2" target="JN2aCoUtrqrgfyc8CFwK-17" edge="1">
          <mxGeometry relative="1" as="geometry" />
        </mxCell>
        <mxCell id="JN2aCoUtrqrgfyc8CFwK-29" style="rounded=0;orthogonalLoop=1;jettySize=auto;html=1;entryX=0;entryY=0.5;entryDx=0;entryDy=0;fillColor=#d5e8d4;strokeColor=#82b366;exitX=1;exitY=0.5;exitDx=0;exitDy=0;strokeWidth=2;" parent="1" source="JN2aCoUtrqrgfyc8CFwK-2" target="JN2aCoUtrqrgfyc8CFwK-28" edge="1">
          <mxGeometry relative="1" as="geometry" />
        </mxCell>
        <mxCell id="JN2aCoUtrqrgfyc8CFwK-35" style="rounded=0;orthogonalLoop=1;jettySize=auto;html=1;entryX=0;entryY=0.5;entryDx=0;entryDy=0;fillColor=#d5e8d4;strokeColor=#82b366;exitX=1;exitY=0.5;exitDx=0;exitDy=0;strokeWidth=2;" parent="1" source="JN2aCoUtrqrgfyc8CFwK-2" target="JN2aCoUtrqrgfyc8CFwK-34" edge="1">
          <mxGeometry relative="1" as="geometry" />
        </mxCell>
        <mxCell id="JN2aCoUtrqrgfyc8CFwK-43" style="rounded=0;orthogonalLoop=1;jettySize=auto;html=1;entryX=0;entryY=0.5;entryDx=0;entryDy=0;fillColor=#d5e8d4;strokeColor=#82b366;strokeWidth=2;" parent="1" target="JN2aCoUtrqrgfyc8CFwK-42" edge="1">
          <mxGeometry relative="1" as="geometry">
            <Array as="points">
              <mxPoint x="265" y="460" />
            </Array>
            <mxPoint x="265" y="460" as="sourcePoint" />
          </mxGeometry>
        </mxCell>
        <mxCell id="JN2aCoUtrqrgfyc8CFwK-2" value="api-&lt;div&gt;gateway:80&lt;/div&gt;" style="rounded=0;whiteSpace=wrap;html=1;" parent="1" vertex="1">
          <mxGeometry x="230" y="260" width="70" height="200" as="geometry" />
        </mxCell>
        <mxCell id="JN2aCoUtrqrgfyc8CFwK-5" style="rounded=1;orthogonalLoop=1;jettySize=auto;html=1;entryX=0;entryY=0.5;entryDx=0;entryDy=0;jumpStyle=line;flowAnimation=0;strokeColor=#82b366;fillColor=#d5e8d4;dashed=1;" parent="1" source="JN2aCoUtrqrgfyc8CFwK-3" target="JN2aCoUtrqrgfyc8CFwK-2" edge="1">
          <mxGeometry relative="1" as="geometry">
            <mxPoint x="70" y="280.0000000000001" as="sourcePoint" />
            <mxPoint x="230.0000000000001" y="360.0000000000001" as="targetPoint" />
          </mxGeometry>
        </mxCell>
        <mxCell id="JN2aCoUtrqrgfyc8CFwK-3" value="" style="shape=umlActor;verticalLabelPosition=bottom;verticalAlign=top;html=1;outlineConnect=0;" parent="1" vertex="1">
          <mxGeometry x="40" y="270" width="30" height="60" as="geometry" />
        </mxCell>
        <mxCell id="JN2aCoUtrqrgfyc8CFwK-6" value="" style="shape=umlActor;verticalLabelPosition=bottom;verticalAlign=top;html=1;outlineConnect=0;" parent="1" vertex="1">
          <mxGeometry x="40" y="390" width="30" height="60" as="geometry" />
        </mxCell>
        <mxCell id="JN2aCoUtrqrgfyc8CFwK-8" style="rounded=0;orthogonalLoop=1;jettySize=auto;html=1;dashed=1;fillColor=#d5e8d4;strokeColor=#82b366;entryX=-0.003;entryY=0.552;entryDx=0;entryDy=0;entryPerimeter=0;" parent="1" source="JN2aCoUtrqrgfyc8CFwK-6" target="JN2aCoUtrqrgfyc8CFwK-2" edge="1">
          <mxGeometry relative="1" as="geometry">
            <mxPoint x="230" y="360" as="targetPoint" />
            <Array as="points" />
          </mxGeometry>
        </mxCell>
        <mxCell id="JpfB7zD26m4SBqy2sYj4-13" value="" style="edgeStyle=orthogonalEdgeStyle;rounded=0;orthogonalLoop=1;jettySize=auto;html=1;shape=link;" edge="1" parent="1" source="JN2aCoUtrqrgfyc8CFwK-12" target="JpfB7zD26m4SBqy2sYj4-12">
          <mxGeometry relative="1" as="geometry" />
        </mxCell>
        <mxCell id="JN2aCoUtrqrgfyc8CFwK-12" value="Auth-service:81" style="rounded=0;whiteSpace=wrap;html=1;" parent="1" vertex="1">
          <mxGeometry x="470" y="105" width="120" height="60" as="geometry" />
        </mxCell>
        <mxCell id="JN2aCoUtrqrgfyc8CFwK-17" value="Profile-service:8081" style="rounded=0;whiteSpace=wrap;html=1;" parent="1" vertex="1">
          <mxGeometry x="470" y="200" width="120" height="60" as="geometry" />
        </mxCell>
        <mxCell id="JN2aCoUtrqrgfyc8CFwK-26" style="rounded=0;orthogonalLoop=1;jettySize=auto;html=1;exitX=0.5;exitY=0;exitDx=0;exitDy=0;shape=link;entryX=0.1;entryY=0.915;entryDx=0;entryDy=0;entryPerimeter=0;" parent="1" source="JN2aCoUtrqrgfyc8CFwK-2" target="JpfB7zD26m4SBqy2sYj4-14" edge="1">
          <mxGeometry relative="1" as="geometry">
            <mxPoint x="265" y="140" as="targetPoint" />
          </mxGeometry>
        </mxCell>
        <mxCell id="JN2aCoUtrqrgfyc8CFwK-27" style="rounded=0;orthogonalLoop=1;jettySize=auto;html=1;entryX=0.875;entryY=0.5;entryDx=0;entryDy=0;entryPerimeter=0;exitX=0.005;exitY=0.165;exitDx=0;exitDy=0;shape=link;exitPerimeter=0;" parent="1" source="JN2aCoUtrqrgfyc8CFwK-12" target="JpfB7zD26m4SBqy2sYj4-14" edge="1">
          <mxGeometry relative="1" as="geometry">
            <mxPoint x="300.28" y="109.59999999999997" as="targetPoint" />
          </mxGeometry>
        </mxCell>
        <mxCell id="JN2aCoUtrqrgfyc8CFwK-32" style="edgeStyle=orthogonalEdgeStyle;rounded=0;orthogonalLoop=1;jettySize=auto;html=1;entryX=0.5;entryY=1;entryDx=0;entryDy=0;fillColor=#d5e8d4;strokeColor=#82b366;" parent="1" source="JN2aCoUtrqrgfyc8CFwK-28" target="JN2aCoUtrqrgfyc8CFwK-17" edge="1">
          <mxGeometry relative="1" as="geometry" />
        </mxCell>
        <mxCell id="JN2aCoUtrqrgfyc8CFwK-33" value="grpc" style="edgeLabel;html=1;align=center;verticalAlign=middle;resizable=0;points=[];" parent="JN2aCoUtrqrgfyc8CFwK-32" vertex="1" connectable="0">
          <mxGeometry x="-0.1867" relative="1" as="geometry">
            <mxPoint as="offset" />
          </mxGeometry>
        </mxCell>
        <mxCell id="JN2aCoUtrqrgfyc8CFwK-37" style="edgeStyle=orthogonalEdgeStyle;rounded=0;orthogonalLoop=1;jettySize=auto;html=1;fillColor=#d5e8d4;strokeColor=#82b366;" parent="1" source="JN2aCoUtrqrgfyc8CFwK-28" target="JN2aCoUtrqrgfyc8CFwK-34" edge="1">
          <mxGeometry relative="1" as="geometry" />
        </mxCell>
        <mxCell id="JN2aCoUtrqrgfyc8CFwK-38" value="grpc" style="edgeLabel;html=1;align=center;verticalAlign=middle;resizable=0;points=[];" parent="JN2aCoUtrqrgfyc8CFwK-37" vertex="1" connectable="0">
          <mxGeometry x="-0.014" y="1" relative="1" as="geometry">
            <mxPoint as="offset" />
          </mxGeometry>
        </mxCell>
        <mxCell id="JN2aCoUtrqrgfyc8CFwK-28" value="Recommendation-serivce:8082" style="rounded=0;whiteSpace=wrap;html=1;" parent="1" vertex="1">
          <mxGeometry x="470" y="340" width="120" height="60" as="geometry" />
        </mxCell>
        <mxCell id="JN2aCoUtrqrgfyc8CFwK-34" value="Location-service:8083" style="rounded=0;whiteSpace=wrap;html=1;" parent="1" vertex="1">
          <mxGeometry x="470" y="460" width="120" height="60" as="geometry" />
        </mxCell>
        <mxCell id="JN2aCoUtrqrgfyc8CFwK-42" value="Matcher-service:8084" style="rounded=0;whiteSpace=wrap;html=1;" parent="1" vertex="1">
          <mxGeometry x="470" y="560" width="120" height="60" as="geometry" />
        </mxCell>
        <mxCell id="JpfB7zD26m4SBqy2sYj4-3" style="edgeStyle=orthogonalEdgeStyle;rounded=0;orthogonalLoop=1;jettySize=auto;html=1;entryX=0.002;entryY=0.911;entryDx=0;entryDy=0;entryPerimeter=0;shape=link;exitX=0.965;exitY=0.525;exitDx=0;exitDy=0;exitPerimeter=0;" edge="1" parent="1" source="JpfB7zD26m4SBqy2sYj4-25" target="JN2aCoUtrqrgfyc8CFwK-28">
          <mxGeometry relative="1" as="geometry">
            <mxPoint x="439.96000000000004" y="394.68000000000006" as="sourcePoint" />
          </mxGeometry>
        </mxCell>
        <mxCell id="JpfB7zD26m4SBqy2sYj4-9" style="rounded=0;orthogonalLoop=1;jettySize=auto;html=1;entryX=1;entryY=0.5;entryDx=0;entryDy=0;exitX=0;exitY=0.5;exitDx=0;exitDy=0;fillColor=#d5e8d4;strokeColor=#82b366;startArrow=classicThin;startFill=1;" edge="1" parent="1" source="JpfB7zD26m4SBqy2sYj4-6" target="JN2aCoUtrqrgfyc8CFwK-28">
          <mxGeometry relative="1" as="geometry" />
        </mxCell>
        <mxCell id="JpfB7zD26m4SBqy2sYj4-10" style="rounded=0;orthogonalLoop=1;jettySize=auto;html=1;entryX=1;entryY=0.5;entryDx=0;entryDy=0;fillColor=#d5e8d4;strokeColor=#82b366;exitX=0;exitY=0.5;exitDx=0;exitDy=0;startArrow=classicThin;startFill=1;" edge="1" parent="1" source="JpfB7zD26m4SBqy2sYj4-6" target="JN2aCoUtrqrgfyc8CFwK-34">
          <mxGeometry relative="1" as="geometry" />
        </mxCell>
        <mxCell id="JpfB7zD26m4SBqy2sYj4-6" value="Message broker" style="rounded=0;whiteSpace=wrap;html=1;" vertex="1" parent="1">
          <mxGeometry x="690" y="400" width="120" height="60" as="geometry" />
        </mxCell>
        <mxCell id="JpfB7zD26m4SBqy2sYj4-7" style="rounded=0;orthogonalLoop=1;jettySize=auto;html=1;entryX=0.5;entryY=0;entryDx=0;entryDy=0;exitX=1;exitY=0.5;exitDx=0;exitDy=0;fillColor=#d5e8d4;strokeColor=#82b366;startArrow=classic;startFill=1;" edge="1" parent="1" source="JN2aCoUtrqrgfyc8CFwK-17" target="JpfB7zD26m4SBqy2sYj4-6">
          <mxGeometry relative="1" as="geometry" />
        </mxCell>
        <mxCell id="JpfB7zD26m4SBqy2sYj4-8" value="" style="shape=image;verticalLabelPosition=bottom;labelBackgroundColor=default;verticalAlign=top;aspect=fixed;imageAspect=0;image=data:image/png,iVBORw0KGgoAAAANSUhEUgAAAgAAAADqCAYAAADUOP03AAAACXBIWXMAAAsTAAALEwEAmpwYAAAgAElEQVR4nO2dCZQmVXmGa5YYd50Zuut9v/q7WwmiGYkacNdgEBV3FJVoEhSIC4gaxQWNC6uCiBpMjKhERRR3RAU3RARlMaAgi4gCoiTsKJugMDPkfP8UOAw9M919v6q69ff7nHPP4XCg/+/eulX3vfd+S1F0z8Kqqh5mZbm9Ae808nADjiJwrJGnkzye5DcIfM6A/a0sd6zK8jFTU1N379pwIYQQQswCAGMGvNqAIwlcY+Rts20EbiZ5nAFvN7NNu+6TEEIIIaZngZk9l8DXSd4yl0V/vYKAPMWAXQaDwT267qgQQgghimIRyX8y8pzoRX8d7XKSeyxbtuw+XXdcCCGEmJeQ3ILkj1ta+Ndul1XAS/3koetxEEIIIeYFJO9J8iNGruxo8V/zauA4kpNdj4kQQggx0pB8CMmzul741xIB11bAC7seGyGEEGIkIfk8A/7Q9YK/jraK5D66EhBCCCEC8ft2I2/NYKHf0GnAp4qiWNz1eAkhhBC9h+RrfYfd9eI+YxEAfN4TEHU9bkIIIURvIfmSHJz95nAScEjXYyeEEEL0kqosn9xEUp8WRcBbux5DIYQQoleMj4+XJC/tehFPbCvNbOuux1IIIYToCwsJfC+DBTz9FAD4P69N0PWACiGEENljwK5dL9zB7fCux1QIIYTIGjNbRuDqDBbt0FaV5VZdj60QQgiRLQZ8rIUFeYUfzRM4w4DfEPhj07/p2QsVGiiEEEJMg+fUJ/CnBhbgVQacaMAbzWzT6RbiiYkJM7OdDDiKwM1NiAAAL+hmZIUQQoiMMeA/wnfewPe8auBs7BgMBpWRH43OPOgnDkoVLIQQQqzBsmXL7mPkjYEL7o1Wltun2FRV1cNIXhB8CrBl3KgJIYQQPcfMdg4OvXtkhF2DwWBpaEgi8PEIu4QQQoiRgOTxQYvsZWY2EWnb8uXL72bkCSHihLx2MBjcI9I+IYQQopdMTU3d3z3zA3b+N5vZ4xoLTwy6DiC5TRM2CiGEEL2C5POCjtff0aSdAJ4UZOd7m7RTCCGE6AUGHBywq760LMt7NW0ryaMDRMBpTdsphBBCZI8BPwwQAP/ahq0kNw+4qvhTURSL27BXCCGEyBYDrkpcVFdObrQR27KXwPmpImAwGGzSlr1CCCFEdniYXcDu/5Q2bSZ5UPI1QFk+u02bhRBCiKwoy3KzAAFwYJs2k9w2wOZXtmmzEEIIkRUethewmL6uTZs9yVDyCQDwxjZtFkIIIbKC5FNTF9MKeFGbNte1AlJFy15t2iyEEEJkBYCnByymz2/Z5rEAm/dt02YhhBAiK0g+MeA4fdc2ba6q6uEBAuAtbdoshBBCZEXQYrpPmzYDeEaAaNmlTZuFEEKIrAi6Tz+mTZtJ/luqzRXwwjZtFkIIIXJjgZE3JAkA4I/Lli27T1sGk/xxsgCoqoe1Za8QQgiRJQb8JPlIvSy3b/HEYmWivStVElgIIcS8h+Qnk68BgDOLoljYgq0fDrD1/KbtFEIIIbLHynLH5BMA8jYAOzRqp9mmJG9JFgDkIU3aKYQQQvQCkpMRAsDIy6qqGjRh4xZF8RdGnhBip9k/NGGjEEII0TuMPCdkcQV+QvKe4fYBH4uwb3iCYLYs2j4hhBCil5DcI+gUwNu3li5det8g0xaQ3DvKNgJfC7JLCCGE6D+1d/2KwIX2fDN7cIpNU1NTdzfy8EBhovh/IYQQYm0MODJysTXyOgPeUZblvWZpykIA/2zkRZH2ELhkk002+csiTxYDeJSZ7UzyIAJfJ3CSAecZeaE3khcQOJnkF0m+z8x2AvDXfkrStfFCCCF6TEiZ3env3S8lud+gLB+9vsWqqqoHeZleAj9ryI5/LTJicnJyCclXuvAieW2CsPkdyS+Y2YsDr16EEELMJ/z+vonFd412uQE/9AWrjuk/nOT3611uo7/bhHPiXKjK8u8NOILAzeEiB7jZ8zqQ3LzrfgohhOgRZVk+NCLWPrtmtlPXY1uV5VYGnNhWn0keX5XlY7rutxBCiJ5A8sDOF+zIBvyoy3vysiwf0MLJyrraqtpnYLKr/gshhOgJY2Nj9ybwq84X7ohdMHBTWZabdTSUi0i+3sgbOx8H9zHI4BRECCFE5pjZ33qVv64XroCF75Udjd8yAsd23f+7NODINis3CiGE6CEG7Nr5gpW22H22k3Eze4SRv85YFJ3l1xJdjI0QQoie4DHpXS9Yc2wneCKhDsbriUZen0H/N9SuGIyP/03b4yOEEKI/LIjOxtfGDndqaur+nXj5Z3DfPxsRAGB52+MkhBCiJwwr8QGf6cXiD5wxNjaGLnwmerb43y6WLtV1gBBCiPWxkOQHMl/Mjuti5z+50Ub0NMNd93/O4wackUuSJCGEEJliwMuayGCX3IAPej79DoZksefn77z/6eN3RAdjJ4QQok94ARojT+980VrdriC5bVdjYcC7MhiDkAZgh67GUQghRI/8AkjuYeQNHS1YKw34OMmNOs2VMEJpkwlcXZbleFfjKYQQokcMBoOK5CEE/tTiYvVNr1zYdd89xXDXi3Z4Az7T9bgKIYToEQCmvIaA7yIb2p16VsLDATyqyACSz298R766RPDpw+qJq7MKnt2C0Fqp/ABCCCFmjSffAbAdgc+n1Li/fdH3hc/T+XZ51D8NCw04r6FF/ywry93q+gULp7t68QWa5F5GXtTQKcCR3QyrEEKIUWGR79jnkha3Ap6Za2ia29bAwnsayafNsmrhAgAvMOA3wbas6rCAkhBCiFHBgJ/MdhEaDAb3KDLFgG8HLrYrDHi37+znak9Zlvcy4N+DTwEOjh01IYQQ845REgAkJ32HHLHIej4Fkk8NtO21w+iIGNuu6aKWghBCiBFixATA64J22bea2XOj7TOznaJOAdyXI9o+IYQQ84gREwDHh+ywydc2ZaMBh4aIAOBjTdkohBBiHjAqAmB41+479/TF/9TpPPyjcOdJI38eIAB+05SNQggh5gGjIgDMbOuAnfUqzyDYtK0V8KKIU4CyLB/YtK1CCCFGlFERACTfFrCo/qAlcxfNJfxymtOKzuosCCGE6DkjJAAOSxYAZju1aO8eAdcAb2/LXiGEECPGyAgA4KTEBXXV1NTU/duytyrLxwScAHyyLXuFGHWWLl16XzN7fJ3ddB8C/03yaAI/NfJCAr8bNvIWAl/r2l4hkhkVARCQevfiNu1dvnz53TzXQKIA+EbRM4ZOkGZPmWurxscf23UfxMiwgOQTSB5UfwdnnKdjNgLAa7GkzPmJsbG/anYYxLxlhATA9YmL6TEd2Hx2ks3ASUXPGAwGmyT2+Wdd90H0f6dP8i0u+hPm4YwFgAFvTPw27d3siIh5y6gIgLoi4ZxfMiM/3bbNw2qCaYvhmUXPkAAQHbLIk4UR+H3it0ICQIwGIyMAyFsSX7IvtG4zcHLih+j0omdIAIguKMvyAV7UK3XhlwAQI8UICYDU8satO/Wkli0meUrRMyQARNu4Y5+RV0Yt/hIAYmQYFQGQWnaXwC/btHeTTTb5y+TMhcB3ip4hASDaZDA+/jcRR/4SAGLk8IpyRp4z2wk5Pj5eFpnhKXwTX+pVAMbasreqqoclf4iAjxc9QwJAtMXkRhvRyMuiF38JANFLBoPBUjN7sReS8djWhHvzVQTON+CzBuzqYS5d982AI1JfagAvaNHedwUIgHcVPUMCQLSFkV9pYvGXABC9YXJycomV5W4G/NDIFU29EB7SRnKvrvLTG/DOgAX1qJbMXeCJRZLtLcvti54hASDawMt5N/itkwAQeTMoy0cT+Hxqspk5tFUkv0/y+U1W1VsbktsE2L4CwPKmbTWz50SMdQ4nL7NFAkD05EpQAkD0j6ostyJ5XMuL/rrazw14mcfftnLSEXHCsdqxbmGTfhckLwgY28uKHiIBIJoGwJZNf9skAERWmNmmnho2g0V/2o+2l+ttfAyAH4XYXJZvbtDGd4fYCHym6CESAKJpSB4S/f0i+V/Dq1SznbycN4BHztQeCQDRbDgZ8J7URDgttS+XZTneYF7vT4W88F7sg3xitIFWljv6FUmEjQC2K3qIBIBomAUELgn5XgHfnc1Cvy4kAEQjmNkjhrvr7hf22bQro73tATwqIKve2u1GAE8PtHG75Lj/P3+Y/uBFdYoeIgEgmqQsy80i3jGvBhh1FSgBIMIh+fKA/PedNZL/uUVR/EVqnK+XxJ1NFa9Z2niLAa9O+RB4H0keGLXzHzbg0KKnSACIJiH5T7ldr0kAiNgysuRHul7AgxayE+eSVMivPUjukVoBcBYv4I/9lGEOVxLb+P8bbU9VVQ8veooEgGgSkvslzq8/+cYi0iYJABFXS538ZucLd2y7cHx8fONZjMG2BH7Vha0eWkTyNVVVDdZlX1VVDwLwqtRSv+ux4ftFj5EAEE1C8kuJ79hXom2SABDJbLxkyf18x5zBgh2/qAH/53d36+t/WZYPdaecjGy+xsgfkPwigWN9YTbyioZ/d1U1Pv7YosdIAIgmqd/Dub9jwK7RNkkAiCSWLl1637kU7elT82p+nh9/2vh+4AA/muvaxq5bFyWLo5EAEE2SWvKX5N+F2yQBIOZKfd+dpmp70gj81swm6q4vcgc8Ald3bVcm7XqvaV70HAkAkXOJbZ+fDdgkASDmxMKAO62+tXOG9/zkWRnYkk0j+YpiBJAAEE1i5K9T5tfExISF2yQBIOYCybd1vfCodd9IHu1RBcUIIAHQ3TWiX6cNBoN7FCNMqgAYGxtDuE0SAF2w0Oe7t6IoFhd9w529epLdT63JBpw3NTV1/2JEkABoDjN7sOcHMeCDJI8ZluyeJlTWC4SRvLSu1fFVA95O8mleLrzoORIA84ctiuIvzOzxBrxpWOKePJ7A/66jAN71BvzGfemGuWOAV3vBPL9iL3KD5EZh6SzVvF3RQVXE5Ob+DxNjY39VjBCZC4BFt+8aIlrRQk6QYdlb4LP1gp465zyh1gkkXzlbMeAiNXGsFsxmV7euNvzIp4yB2YNnYu/Y2Ni9R0EAeHGyqPleluW9ihbWRgNeXUeE3Rgw52/096cqy2fNMjHd4pSxWrZs2X3W18mQnPbzvdWZ/A72EErf4fRJBBD4vSvUYsTIWAAsMPLwwLn31oZ3+h9u0kF2GHXjH8aqetCMbCKvTPm99X4Qa9yWrt/LUaoG6EnYgiqTeru+we/VAgDP8GJ3DZ+KX2nAO2cyF4cnD2nz53vT/mEPQwlNG7vhtsod7vyD4srKB7oqy8eY2d+S3ILkU0n+yzCdLfCjvlxLEPj62h8vV3meR79r2zbYgKu8zkMxguQqAEgeFPj89m/CRi9M4wW1mkp9vY52q6eeHgwG1fpskwDolwDw8Y4KLfeNlZehb8gJ/iUEzmz5+boQ2N1P2FoVAMM7jYYyyE3Tzq6AN8z2zssnDoAdSB7XxYs3g/Zz3+2vy/6huEn8WDXaPIzJ7MHFiJKjABjeIQY9Py8bG22fH8f7SVbLC//a/brW3/t1jqEEQG8EwPDqCPhO0Ly4xcyeUwRDcnOSp3T8nM+eLjdNYwKgTiHbbKdc9ZXlsyO8yocPCfhaxw/p9gH9HcnXzeQex3MNZDC5puvD19xbuxhhchMAAP458MTt8KgKcmvY9yq/Dup6bq7Zx+kqUUoA9EYALCTw+aBxWOk79PCTCfKjXYrdtZ7zTf4OtiEAFnte/AY7c72V5W7u6FQEUwHPTPW+TWgrfNflziFzKKq0X1iJ3rR2XV11cCRC/foiAMxs66gMk/WCEBZu5EKQwOcymJt37St5qpktu9NYSgD0QgB4hEjQGKyabmFMAcByzwPT9bOdtgEHrPl9DhcAFfDSBifrz5o+VnYvYAOObPOh+DXEuo5oZnmKcXKXMf5rZD8ceXIRAO6wZOQNQe/XsZHhRIPx8b9peDMQ8k1ZU3RLAOQvAELzygBvKgKxstwxdyftNa/3ogWAeyCf24jhwHdnE7KSyAID3tvCw7gIwHahdpfl9m2qz2GMttlzi3lGDgKgtuHyoI/CqZHv11CYuBNoS/Mw8dvyw9uFjwRA3gIg8qqL5D5FICT/tWXH95S+vy1cAJjZ4xoy9uj1eTI2hQHvaugB3OgPwGNXGzJ9gachNvJbTdxBucOM3781UXCkL3QtALzWe9R1lXsnRyZpIrlNL6JU7jwG/+22SwDkKwDc5yvsqhM4uAiEHl2WwfOcpd/D80IFAMmPNDBBT57OWacthmGF8X36ZVv2146Cr/dCTIn3xDd4SKKZ7TRbP4VRpEsBUN+rnxE0F38VmTWuvpKISGzSeqtFswRAhgKgjnqKmlefjnRyteY2is024Kp6zqcLgGG1P+B3wUZeuaG43aZxb3wCJ0UPfuqd/1zwZ1SnZn6NK2BPSGHk6Z5Eo049+dv6zvY0A44aOtoAu9Sx/P3LQz2CAsBPjYz8QdA8vDjSb4PkQ/pc9bKe/9el/A0JgHgB4E51BK4J6vOXIx3ISf5LX47919HOCREAtQd97OQkty0yAMBU9K4m+v5JzAsBsKhOoBMxBy+baXa8meBZKnN3+GujSQDECoCqqga1MIvo77cir5LrZHe3dv0MO54/qwUAyfd3NTHbgORbgvt3Rtd9Ev0SAHUSnfS5R17rGTIjx8OAz3T9McqhSQDECYBh6nOP/Irp58mROf6H0WJ+gsbun2EeAiDoTrJuK8uyfGiREcPshqkFOtbq4yhVx5tvtC0AAu8Zb/D71OjQpxY/OivqHaFnGj1tGMbnBccycTqciQBwnyYze8p6W2p0h0cDbeg3zJ5SVdXDcxQAXu7ZU7aHPBfgJy4mZvrbMxqLuJO42zY4bqvDCi+sUx6fNqx+SV6eQzr7oQDwZBqR3uYkv1RkSB3mETZ4AJ7edZ9E/gLAq9pFfUiqsnxyAxU/o31//txWL+xfMWBX95tZX56CYYU1s+d4DYP6Q5mlAJgJ87wc8OLAzKw/j3ZaTnWcsw2/p5eQPATAC8qyfOD6HBbNbFMDXuZZB92PqxMB4IV2Qv+w2dZFhviOPTLJA8l9u+6TyFsADEN1yBUZ5zo/pKGPy0WeVTJl5+aCwYD/GGYPbemDKAGQLAA8B8uhUXMo2oncnXADKw/edqcGfNcLvSU4KS7yd7x27l7VpgB4beAfvCQ6D3kkfjoROIDukSp6SBsCwJ2MggSnx/z+Y/QYuB9BhDi5i39CWe4W6azlORNIHtbGR1ECIE0A1GnN0+cR8H8TY2N/FT0GJP8tes6QPAvAk4LtfAKBn7YlAP4zOiFHrpjZzoF9lSNgT2laAJRluVlQ8ZzwXOe3Mzyaj/0Qfr/JdNIAtiR5aZMfRAmAuQsAF34hzwG4qgkfMnciDAxHvG0oSIH9G0xyt8jK8s3RIv2uAgA4NuoPei2BImP8TiZwAK/vuj8iPwHgYadh93ll+eYG+x/2YfEkYm3kmpiYmLBhEaCGPogSAHMTABXwoiA/susAPLJogOCT7pu8z03YOY3dTw0WLnc5ATgr7I+uTjqTMwsi7xQVCdBPmhIAQ4da4LyQl5Pcr6n+e0GRsI8I+f6iRWoP8xOb+CBKAMxeAFRluRWBPwaVvN2yaAbPwXFRyHwHbib5tKJFvDBXE866q6MA4kroroqM1WwKz54XNojzqILeKNGEAPDwMJKnhMwr4ENN9b3ORpiUMe+OcSA/2UX56DrGPDJ0edgkAGYnAHzDFzGXPM05gGcUDeELdtAcWRVcAG7GDPP+B4fL3n4FEHW8cGPRAwz4dtgAkg/puj8iCwGwmOQxQXPqU00uqv4BC7Lzx5Hlh+dUJyN4VyQBMHMBMD4+vrFnpAwY9xVNH6e7b9ooZIDF6mqK4QIg+fimbpcXPYDkF6MGEMCjuu6P6FwALCDwiZA5BXy16bv0iPnv3wwAf110jMdaR34QJQBmJgDq/BG/CBjzVSRfUTSIO+lFbHIJ/DSHmioEPhctAKJi468sekCk9zPJLbruj+hWABhwQMh8Ar7ddNnsYUbMiLoYwDuKTBhWuQx6nyUANiwAfIyiEjV5pdOiYYKO/1fm4t/mfkbDcNswHwDgqqA/dlPRAzxhQ9QHwzM5dd0f0Z0A8GQ3Qe/OyWNjY/duut9eTTLA3iuiFsooB6moTKYSAOuZo+TedUr1mCtUYM+iBTxhW4C9hxcZEZVa/HYnwAvnk1d8ZNRD1+WORXcCgORLQhaeBnKdrwsD3pT80SDfUozotZ4EwHqf+74GfDZinEl+oGgJkscHXFM8pMgIn6cR/i+3XwGcGfFQvQ3K8tFF3iz0k4qo/ua0ExItCgDyWvdcDphDPwcw1la/DTgq8YPxx+jc7BF4jYSc3udRFAB+xRvy3QQObStyxE8sUr/3JI8rMqROkx2SByDEe9lbU1nLovAMU1F9dceSrvsjuhEAQe3XbZ8gEfhl4sf7qCJPFkbEeUsANNtIfiEhV/7s+2z24GS7zXYuMqRO5R0iAD4Q9oCBzxUZE5kNysj/6bo/op8CwFPaNpHrfAMsTi5BWpY7FpkSkdJcAqDROX+M78iLFvHiPIl2r8jxxOt2UjOODgWA79rDHjJwTZexwa3mAMhc7Ig8BcCwRkAHHsUuOAI+4pNFpkSEBEoANDbnT+oiSVxqCXhmXu/FnRMjBMCTQh82+fwiQ7yqWGhhBeDtXfdJ9FAANBz33OA9+WVFxnhioNRnIwHQSLu1K2fp1NNtkocUI3yiPRQAQ4/C1KPBtf9ohngYS+TEji4BKebNCcAlXRwrujBP/BgeX+Tv4JuU1EwCoNG7/9ZJzQBYAW8oMib1iuOOtdqPaCIfuMcbFxmxdOnS+0amDXXB5Lnfu+6X6K0PwDfazqGfmka0zvufNalOjhIAo3XylZo1j5meZkc5tf9ZAMQkS1jzD5/URZGQdUHyfcGT+ZSu+yT6KwCGDXhjm302YJdEe/+9yJzUkGYJgObaMONsy74vLrRTbK7KcqtihMvb3yEAov0Ahn+cfHmRAcNSioFXHHXf3lZkhGeRm5ycXJJDrup5kgjo6tQU2j4n2zwpI/m6pHkP7F9kjkfmpPRRAmC9cz7J47yeQ+e1kfFyjT5/J8les8cVGeO+FVHX9YtCHvCd2w1dZ1Byz1Mjzw3uVycpgN0D28z+wXdiRn7Lk8hMl+TCvcwJnD/M7wAcQPIfJyYmrG1750EmwLQFdfXf+a3n9m6jz34Em2Qr+V9F5qQWqJEAWO/z35fAsX2KniLwtRRbATy9yBgvyBXmr2fAe1Mf7jTt3MFgsLSj8VkYWflvjXZ2Wx0g+QT3ZCV5QcCLd6YLAgDLi3lOUC2ABRGFaNryB3AhmGjrl4vMSa2XLgGw3nm69/j4eOlVX5O/oWY7RfdvHX0+IsXOCnhpkTEktwkTAGVZbpb8YKdrwI/aPPapWRCRKnEdL8Itvguvj9zD8bHyKllB5TbX+UwA7DBfrwyiigGVZTkeURO9papo2ybOmROLjPFFM/U5SABsuBqgmT3X8+MnzqU/uANbdB+n6fPHE+18U5ExqX49d4nY86pkqS/ROtpp/rFsLf8zeVhD/VhzclxlwK5RqS0Hg8E9SP5bRO3qWUwAvyr4Rz8tKeYRkeWA63Kjq5JFZcP3jVVZPiaxz79vM43rbDGz56S+DxIAGxYADskPB3x/zm06kirVuZ3kYUXGeF2FUAFgZfnsgAc7fQN+Y2aPb/qePDqkcQaT5Cwz2zrFbgDbDcenRbvXamc3/WxGVQA4JN8f8AwuarKaZn18mzrXNy8yheQ+qf2TAJiZAPDNipHnJM8n4BPR/bxTn812TrTvt0XG+HcoOmeP32ueEfAxW1e71e+hG0gLudBTGkfG+s+6AV+dbX53dwBryE9hrnmvD5yamrp7MeJECwBPf03gp6nPwH0KGvQHWJB6R9526OJs8LLKqeMvATAzAeD4EX5EZdUm79l9Y5Zq30T7NTtmRFVVg+STx+mS9lXAC1MHbYbZ0F7jSjLA0e/5ER/foH790QXOTD4kAB5l5MVd2zxNH87IOed7jgLA8YiX5AV29Yf2NbnGybsXeJEhZVk+IPleWgJgVgIgsLjajU1Fi9WLZJp9ZblbkSGpdQ7Wl7V3gZE/CHiwM71H/1B9/Lx4VhmQgD0J/KoVO2ffLqs9Xae9W3eRlZq2tOF2uUcgFCNKEwLAIfnK1LH3eUFyiyb6bcDHEu1bmaM4JLlXxLyXAJidABieGJNHJ8958qyAzeC0eOXNRPtOK/JjQaqYX2/a/uHxTnDynBm067xaXx329hp3ThtW+CrL7YfejsD+Rn4lwuu6xXb62gupOw76hzQD2zY0OW7OPQ42NwHg1HM0bezJCzx9dXS/PTlX8twA3ltkhDuSDTcSAXNeAmDWAiAsEsY99qP7XPf7q8m2WV4JgWrH42br9vh9cMSPqK2O9R4eUwIv68Piv8YE+ZM7hhYjRpMCwPNe+BVXjgVUgkJ9b8ipRroXbIma7xIAsxcAa8SjJ1/B1BFJoZDcI2BufKvICCNPaEMA3HPoHR70cs33VjvMrOij3e6vUIwQTQoAB8CWIc8a2CW67x5tkDwnyI8UGTB0og0Mm5UAmJsAiCi921T2WE8FHzE3KuCZRQYMT8TbqtzrKW+NvD7qB9X62fwezR1qihGhaQHgGPCeHAuoGHBwwJxYmUPYaGq517WbBMDcBUAdCZMcQeZ/IzoSKUT0Ar/qIKHdnfBrwUjH8Q0KAKc+tg57ydT62eoKiCORObANAVAnpPpx8rgD50ctTE5Vlk8OmhMXN5UNcyaQfEn0HJcAmLsAuCM3fUwkTOgJkwEfjJgf7DgxkF8LRs73GQmAwOOd3rRhRkSzx5E8vmtbcmqeqbAYAdoQAI7HEIecoAFHBHZ/UdQuwj8gy5cvv1vRMvWxbvjJpARAmgCIioQZtrLcPqzvZo8ImyfA7kXPfV3WfH9nk0TkM9EGZNrOWbOA0TASIbjoplgAABBYSURBVOAIaRSah6i5I1nRc9oSAI4nOgkZe/IVUf13IRc2J8gvtikChiHA5BVNzG8JgHQBEBUJ41Fh/p5G9T8wzf0qzzBYtIgnuYtwskwRAMMjzboM7W0j3C72Gstr993vpOqP5g0Z2Nhpm9WkyZQ2BUBEVbL6N2/ynW9UWuBhhEfUvAC+00TY4tpU4+OPDalGt44mARAjAKIiYTy7o/sWRPQ/Sojb6raK5FuL5vGN95uaWPzn9C33hdCAo5p6AbtsftcKYGp9/Z+YmDAjP93UA5lDVMFpnk+7vqL5qP/z8N81nMPB41CLHtO2ANh4yZL7BTki/TJqkSJ5SPC8uLjJ5FF+tBwqWqZpEgAxAiA4EuZDEf2vN7AXhs4Z4CiPRCkawAV102ni57qZW9xKtb02G/CT2VQr9MpqJE/twNYb/SoGwDPW55BXVxbcxvMPNJR3IMfsWNkKgOFvluWjI4QZgc9FjMFQzAY4bK3VbnUh6icMRWwVw5C45w01CYA4ARAVCePNi6WFjEFZ7hg9Zwhc7Wl5Ax2kF/ppRUAGw0ZPc/1o4h19Smqznon9pTmGdywAsAOB/23FVuCIyY024lwWOy8y08C49TZVcBcCwDHgXSHjvzrNdDIkD2povno890eqqnr4XOzyY9+6Jsk32/wWSADECoDASJjfl2X5wCAH2J83NH8uJPmWuZa992fuDoZ+Et2b61xPjuAPp82XNLj63dtSq695ZUOS+w1jtpt5SL/33XzSg6rDOSOqd0XvROeTABh+gIAfJo8/8Ad3hksdB7+aCLmrXX+7aFg/vix39IRSdRbBO3ZLvuh6fYGqLP/eyvLNfuzZVVVPCYBYAbDGuxYRsfE/Ec6mVVlu1fAV7ko/HfbxcgdyT2zk79kaJizwawPPsUPyeX5KQvL79elZ//y5zGzCnYC6eGETOn5+dH5nV6h+mhBs6+Vz3UVNB8m/izr29fvYtSZ2b+hQAPjd6FSQaD7Xs3WmjoWneu7kPVw9D1v/6K2vSQDEC4BQBzzgg5n6v9w2w3Zd13O8KYduvxLYpSvlPotJfAvJ90d8ONcFyf8KejjXuEqMtm94ahPkJNhE7u5RFwCOmf1D0Bz5RMR41I6tt833JgHQjACIioSpve+3zS2jnvW0hUd0DXNzk/+Zm7Kv2zebqjt9pzEAfhJhb1WWz8o9qYSfeBQ9pGsB4JD8ZMg8AV4aMB73iJq3fW4SAM0JgDoSJmlcIv0BhsmBEO4E26vWWEj3sIYAcGjTYTszaH7X8y2/XyxawL2fQ+6XgM82bOrioLzdV6f6UMxXAeCOpx7WFzDHb/QUrCFXWMDVXX+U5vxMyAtIXpvyNyQAmhMAjjsOR2wOPS25Oxim2gPgn7uet0ktUbQ3ntPFk+oY8O4WHI3Wbtd5fenoQiobwsyemzy5gT956eCmbSX5xIixrqrqQUXPyEEAOAAeGRIaSJ7lu/gQHxEPNW33XY1oKwE8ycgrU/6OBECzAqC2Y8+IZ07yfRH2kNwrg/k717wb2/QlqduiYVz66kQ1lzU0IDcY8NVhaF6Dd/zrg+S+Pdj930FEuWeS/1T0jFwEQGC9cp83H4+wZ+iN37OjUb92dNslAPIXAGGRMOSqqGtSkvt1PYdn23eST/WKnH3M6rqA5OY+IT2UzMsszvHY/LJhohtgT69w1kVRkrWJyNzUZt1pD7tKtdcVdNEzchIAnviD5HE5OWX6+5R6nN5W84Jdt5ePlQDohQAIi4QZXlmZTUTYRHKfHDK8zvBZ7OE291UA3IW53GVEHHlGE+BItXJqaur+bdk7LN+ZPhk/WfSMzATA7VdlVwUl4AlxdPWrHQPO6/pjt4HncOaa74sEQD8EgFMnekqfA+SpEf4Ad0Tn5H76BRw8NFYCID8BEODrcHbLJi9KTWCUzSTqsQBwPLwpcFEc7ohTmZycXELy6M4/etP382QAY2vaKwHQHwEQGQljwP5RNgF4VES0QiNznjxwTadrCYDMSM54BXy1bZsJ/DRxUp5S9IwcBYDj6XODPhQfibSrAl6UWYTAR6e78pMA6JcAGGZRBX4RVKL3OVF2kbynAQeEFDOKeJ99kwa8bG07JQAyI9Wjm8Dn27bZgB8lTtDTi56RsQC4p2f4C/lwlOX2kbZ5HYq6CFiXH8XL1ud0KgHQLwHg1OmhIxKTXTldKffUsEUG1DJIGnfgpLIsN5vOPgmAzEg+TicP68DmkxMn0ZlFz8hVADj+sgfVbLjBzB7cgH0P9B14m0JguEAAB28o9bQEQP8EgEPyrUFz5YTAqnx3YGZP8Qqobc33erwv9RLY7iRcrAMJgMxI9pwGvtu6zcDPEm3+YdEz3Au5rg0+p0bymCbts7LcLcW+Nez80vo+ICmMj49v7ItCkylV64/g3jPd2dUf6TmPlx9JR4xNXb54znas7dsQAcl/SZxLry+aY6EBR0bMeQCvasjGBQC2rP0Wbmhw8f8fL5w1Ez+eYTRd2ngdXuTAyAiAxMxuXlq4TXu97Gry8VsHfgsiKxYOk/B4wi/y1ICTARcUH3WnyCjvbiEiWbZs2X3qiIGP1Qtpynxf6Yu+hyH6gl7MR0ZFANTKP0kBNqH+N+DxmqZYgUPbslfkjx/TezIhP74keRCBr/spUZ162j+WVwx3lKudT09wvxcD3uWOhk1cWQjRxoliBTzTgN2H12PAt2vfgXPq66DL6s3h6X7KOxQOwO6eHK/N7322jIwAAA5NXlDLcre27A3JgFWWb27LXiGEECPGCAmA3ZMX1Ja86v141e9YA04sntGGvUIIIUaQUREAdbWrVAFwm5lt3bStZvbiCFsnJiasaVuFEEKMKKMiAIZOdQEhXJ4cw/9WU3a6t3OA84rf/5/XlI1CCCHmAaMiAJxhgaKIUwDg3Q3aeEh0XmohhBBiXgsAM9s5MA7aE0GEUgFvCLRvm2j7hBBCzCNGSQCQ3CgotaW3FQB2CLRt77DFf3XOgkVRtgkhhJiHjJIAcAh8LmqhrY/aP+554udqj8eaGvCZSJs8hDB21IQQQswbvJa3V3Hy3eSsFyGznaqqGhQZkpqjeR077l8AeMGa5SA3hIskzytA4HfB9tzqOeGbHUUhhBAjRV1V7PV1FbqVAbvj80juW5blQ4uM8CpO0SKgbp6Xe18AT3cBdZffJSc9Np/Afxt5XRM2EPhEN6MqhBCid5jZ40h+IfB+fDoxcKKnFG2qAMpsIPnExvr557bKgKvWKO7QyIJ/p8WfvEW7fyGEEMWMKhYB325hMVyznVMfl3eKF8ppud+NN5If7npchRBCZMzk5OSSOt58ZWeLFfC9LguMlGX5gDZ25S22i6JqpgshhBhBPJUtgUsyWLBcBNxMco+urgXqOty3jUBb6VXeuhhDIYQQ+bPAgD2Hd9PdL1h3bsCRXe1ejfxK5/1PbCQP7GLshBBCZI7nrjfyy10vVBtoZ3cROjg2NnZvAmdm0P+5tm8q6Y8QQohpi8sM79u7X6hm0i6uqupBbY+Rh+dFlN/toJ2z8ZIl92t7vIQQQmSO15X3HWIGC9WMm/sn+ILc9li5Q+Kckh511YDzPG9D2+MkhBAifxaGp71tr50zGAyWtj1gfvqQi4PkekUSeVZZluNtj48QQoge4Bnpul6oEhe547q4256YmDCSp2Q8LkcvXbr0vm2PixBCiB5A8mldxviHNWDPzpwmgY913v87t5UG7J9DJkUhhBAZMqwuR16RwYIVVXJ3y67Gcs7FkIIbyQtI/l1X4yCEEKIHkPxU1wtWcDvXnRm7Gk/3sveSv52cqAB/MOA9HsnRVf+FEEL0AN8lZpnoJ7HV2QI7xSsakvxiG0KAwB9ddAwGg6rrfgshhOgBJH/c4MK0ksDJJA/zu2gD3khybwMONeC7nta3wd++vouogOkws00NeK+Rlzew8F9iwDvHx8fLrvsphBCiJ5B8akO70TNJvnxDYWd+TA1gO5LfaMQOcq8iI/xaguQ2JD/g1xRz7NcKD3kk+X4ze7wc/IQQQswakt8PXvh/C2CHuSxKfhVB8tRge67xtL25Tg0zW+YFeUi+xoAP+kmJh+wROHbYyGOMPNzv9A3Y1f9bVe8TQgiRnMAm8u6fwEkBiWYWGXBA6ElAWe6YaJMQQggxOpDcL/Co/TCPg4+yDcCrohzn/JQjyi4hhBCi9xj565wryxnwjiD7VsozXgghhKiL2AQd+5/fYGW5BXUIna4BhBBCiAgM2CViYa2AZxYN4j4FHs4XcUXRpJ1CCCFELzDgiAAB8IMe+Spc3IatQgghRNYQ+Fny7r8sn9VWqJyRtybau0rhc0IIIeY7CwnclLig3jA1NXX3tgwmeXzANcDmbdkrhBBCZAfJyYAj9a+0aXMFvCHZZrMXt2mzEEIIkRVm9ojkxRTYs3cpi4FXt2mzEEIIkWP1v9Tj9Fe0XVVvFKoDCiGEEJ0B4BkBi+m2bdpcOwKm2rxfmzYLIYQQWWFmTwlYTF/Sps0ApgKuAN7Vps1CCCFEVlRl+ZiAxXT3Vm0eH39sqs3uSNimzUIIIURWAFgeIAA+2KbNFfDCgFOLl7dpsxBCCJEVS5cuvW+yACDPbtNmkocECIBt2rRZCCGEyA4jL0s+Uq+qB7Vk7gICl6TaW5blA1qyVwghhMiTiMx6bTnVVWW5VfLuH7jJMyC2Ya8QQgiRLSQPDLgGuN6r9TVuK3BygFg5sWk7hRBCiOwB8PQAAeAL64eatLMCXhRhJ8m9m7RTCCGE6AVjY2P3JnlLwOK6CsALmrDRzDYl8LsIAQDgSU3YKIQQQvQOkt8IOQUgbzSzv420beMlS+5H4BdB9l1eFMXiSPuEEEKI3hJ1vF6366wsnx1iV1UNjDwtzLaWcxYIIYQQWTM1NXV3AtcEioBbDXhTym67Ap5pwFWBNt0WfTohhBBC9B6S+4QutqtD7n7hpwsevz9TO8qy3CzwSmJNW77X7AgKIYQQPaSusndD9MJbt4sNONiLDw0Gg6Vr/m5ZlvcalOWjSe5F4IyGfv+2qiyf3N3oCiGEEBljwHuaWoDXatf78T6B37f0ez/oemyFEEKIbCF5TyN/3dKi3Fa7taqqh3c9tkIIIUTWkHx+Bot2WCP5vq7HVAghhOgFJA/reuEOauf4qUbX4ymEEEL0AnfMM/LcDBbwlHYjgOVdj6UQQgjRK8qyfGiLTnrRbZWZvbjrMRRCCCF6STU+/thhet/uF/TZNWD3rsdOCCGE6DUAtjNyReeL+gwbyYO6HjMhhBBiJDCz5xC4qQc7/wNmk3VQCCGEEBuA5BONvDLTXf8tBuza9RgJIYQQI8n4+HhpwHezWvyB35rZ47seGyGEEGLUWWTAOzK4Elhl5KcnJyeXdD0gQgghxLxhfHx8Y5JHd7T4nw1gy67HQAghhJi3kHxCXb53VQsL/zkV8NKiKBZ33W8hhBBCrBYCm5P8MIGrg+/4byb5paosn1UUxcKu+ymEEEKIaVi+fPndrCyfbcDBflQ/p5MB4DckPwVgh6mpqft33SchhBBCzBJ30jOzx5nZziT39VMCd94j+UUDPmvkRw3Y38P4zGzrwWBQdW2zEEIIUfSY/wd2wLWWGMAp5QAAAABJRU5ErkJggg==;" vertex="1" parent="1">
          <mxGeometry x="718.27" y="464" width="63.46" height="29" as="geometry" />
        </mxCell>
        <mxCell id="JpfB7zD26m4SBqy2sYj4-12" value="&lt;font style=&quot;font-size: 9px;&quot;&gt;Postgres&lt;/font&gt;" style="strokeWidth=2;html=1;shape=mxgraph.flowchart.database;whiteSpace=wrap;fillColor=#dae8fc;strokeColor=#6c8ebf;" vertex="1" parent="1">
          <mxGeometry x="625" y="115" width="40" height="40" as="geometry" />
        </mxCell>
        <mxCell id="JpfB7zD26m4SBqy2sYj4-14" value="Redis" style="strokeWidth=2;html=1;shape=mxgraph.flowchart.database;whiteSpace=wrap;fillColor=#f8cecc;strokeColor=#b85450;" vertex="1" parent="1">
          <mxGeometry x="331" y="147" width="40" height="40" as="geometry" />
        </mxCell>
        <mxCell id="JpfB7zD26m4SBqy2sYj4-16" value="" style="image;sketch=0;aspect=fixed;html=1;points=[];align=center;fontSize=12;image=img/lib/mscae/Cache_Redis_Product.svg;" vertex="1" parent="1">
          <mxGeometry x="343.25" y="172" width="15.49" height="13" as="geometry" />
        </mxCell>
        <mxCell id="JpfB7zD26m4SBqy2sYj4-24" value="" style="edgeStyle=orthogonalEdgeStyle;rounded=0;orthogonalLoop=1;jettySize=auto;html=1;entryX=0.169;entryY=0.986;entryDx=0;entryDy=0;entryPerimeter=0;shape=link;" edge="1" parent="1" source="JpfB7zD26m4SBqy2sYj4-22" target="JN2aCoUtrqrgfyc8CFwK-17">
          <mxGeometry relative="1" as="geometry" />
        </mxCell>
        <mxCell id="JpfB7zD26m4SBqy2sYj4-22" value="&lt;font style=&quot;font-size: 9px;&quot;&gt;Postgres&lt;/font&gt;" style="strokeWidth=2;html=1;shape=mxgraph.flowchart.database;whiteSpace=wrap;fillColor=#dae8fc;strokeColor=#6c8ebf;" vertex="1" parent="1">
          <mxGeometry x="470" y="290" width="40" height="40" as="geometry" />
        </mxCell>
        <mxCell id="JpfB7zD26m4SBqy2sYj4-23" value="" style="shape=image;verticalLabelPosition=bottom;labelBackgroundColor=default;verticalAlign=top;imageAspect=0;image=data:image/png,iVBORw0KGgoAAAANSUhEUgAAAfAAAAIACAMAAABKCM5QAAAABGdBTUEAALGPC/xhBQAAAAFzUkdCAK7OHOkAAAMAUExURUdwTAAAAAAAAAAAAAAAAAAAAAAAAAAAAAAAAAAAAAAAAAAAAAAAAAAAAAAAAAAAAAAAAAAAAAAAAAAAAAAAAAAAAAAAAAAAAAAAAAAAAAAAAAAAAAAAAAAAAAAAAAAAAAAAAAAAAAAAAAAAAAAAAAAAAAAAAAAAAAAAAAAAAAAAAAAAAAAAAAAAAAAAAAAAAAAAAAAAAAAAAAAAAAAAAAAAAAAAAAAAAAAAAAAAAAAAAAAAAAAAAAAAAAAAAAAAAAAAAP///zNnkTVokjhrlP7+/vr7/P7+//b4+jxulv39/e7y9kR0mkFxmeXs8Ul4nc7b5Y2rwgQEBDRokZWwxn+gupKuxeLq8PL1+LXI112HqLLG1m2SsGmQr+nv86K6zQICAnSXtLvM2vn6/EJCQszZ5K7D01uFp8HS3tni6nGVs6m/0QwMDD5vl0V1m/z8/eDo7lmEpnmbt2GKqpu0yYmnwOvw9GSMrIGhvNDQ0MbU4MnX4lWBpHeatgcHB1B9oai+0Nzl7Ofu8qzB0u3x9aG5zPT09FlZWSQkJE17n1VVVRMTE9Hd5trk6zZpk1eCpL3O3Iemv6W8z9/f301NTdPe51FRUX2euYSjvRYWFlF+or/Q3Ud2nPH09x0dHZ+3y9TU1LjL2YWkvS4uLgkJCWaNrVN/oyoqKvHx8Z22yurq6tXf6Iypwfb29t7n7ZCsw6KionuduNvb22dnZ9bh6aioqPX3+W+UshAQEGFhYdfX1+fn5+Xl5ff394uLi15eXrDE1Tk5OXx8fO/v7zIyMjY2NsTT35ubmxkZGcjW4U57oM3NzZ+fn/v7+/f5+7q6ujpslbGxsWpqamRkZHFxcSEhIe/z9nR0dMTExIGBgZeXl0ZGRpizyF+IqY6OjsnJye3t7UpKSry8vISEhG5ubvP2+ZGRkScnJ0x5noiIiKurq+Pj426TsYaGhmeOrfn5+bS0tKWlpb+/v5SUlMbGxq6urkp4nnZ2dre3tz4+Pqqqqnl5ecLCwmCIqXh4eOXq7lhEXfoAAABAdFJOUwAQFdzqAQT4/vALVxkIk+FdQ0zm9K/PovwvJtNqnQZHK9jCmiB9xss0Yqc5ZbiPUD8cvXGzbXZUl3qHqoKEPIudhfo0AAAgAElEQVR42uxceVxNaR/XetukZVqkkBZ1W2hRSTNz77k31ERSMaXxipARlSlEorSYkDaFYVosmTRRSmpslaU3kXUaxmSnwUvyMhlen7f3M8Zn5jzPOffce59zzq2379/3nt/z/L7n+e3PGTCgH/RCeaBaD4Yq9Wuij/LrYKWj5eTuxrWzHKKgq8rh/QkVjqqiwhBLO66bh5OW9nC5flX1bshbqbtoOusrqvAogqPgaGKhZdNPfG/D0OGuFtyRqjxJoWhpMkZbvl+PvQEOOhbjTA15KKCrZzGsn3VZtuA6H9sp8hDD1MTaqF+1NEDN3GaYuq2Lhbu9m1kP3NzsP/UY62SrNUrbykheWdS/lQYbcwfx6IIu19q8z3g7OQejwe8x3FxejfFMRX60tYfBCIWPSDWuoqow0tns4zGuNhpKELKdnFV5dMPUXntorz1Mg3Vsx9pzHYfoqoLOjqM6SN+Rq2lhrD7anN4dqtmMMbEUmynDQY4mY9Wt1N4/RMOaq8hjCB/pafWy+F15sJaHgSV1BakojtTTdHEdrIZ8JUbWJqYq0plZR03jYR76KjxGwbGz7iWcy2k7GehzJNymiq6jm5OOESJzb247TpHXe8HRcx0o42RruGoiOQkcfQMXKfMUZW17BV6vh6qblez661FmiDWs6+wxSkOyAFHHQJXXRzBkjCyadvMxdhx69qur5zJaPMOmpG3SZ9j+I4QzGyxjJScXfXp3bDjS3pWqgXewkAFLntD08FRYblrtpSttv7158+Zd271Ll9Nyw06VNE2V7IEjdGSm3yZn7chM/Grqpi6adG09FfZo3noy79Ldlu6zOal8YqTm3Hx5veF42FUxqTe1lYnk3IbLYdSf2euQJG4DbYewQvSsdbevvOiu+54vFrxzWl/cC9sqhnNzUmOZ7YHW+sxr13DEWCuoeZNzYSEFW5fXUF14lC8FSu8cS19HtbXmwiblGu6s5biKBur4yFXOg+FAbVbJ8Qdv9/LR4FZ3Q9guSjt3Ysuwa2hyeGzC0NHpL10GtbES0Z2wqwcJs8T+3+Hbd++g4voDnv10NyxBtOxB1kr/h3S/9+gef6QrSra6VP8y9errtLb2553/rjvSeNTzvarPpZbmxL292NL+rvb2zvWiIrP0F3GefJqQ2nnpquhtazMemNuLQXdESVj6pWvXH7X+dLbu8a3U1NS9exsbS3MKb3Z1Pzrza1ttbv26XZJzruBuNWA0pUgiov7gi9bKc6KVfrSu9XpbbgksiE4IO0Yf2X+i8O5JUXtxZrRvrmxMzXdH1F/+V/XNUkouLK6zJ1N53SRZZUa05a6/97xSXKKe1VU33P7rirbWvkzlM4OcYyI457gzF71pU0h9tuZde1kpwVFIjfv9bm39YZRmf2p9Q5cUUfQPFxvCInoes/5gVySfSdQ1fEvuyl0Zct7jRGn44eWWSik3e6S1vfZkAgK21x//vVF63Ueeba9+xmccnnfSSHWg58AA31rkwXBE3pkjqPZ7rvDAvXppWO85lN783o1b7WQZuqox3fG6gzOZgr+90oX8HJyLu378oUQJV1r3OX4fgGf3z2QVdnrn36xJjvfhg29pC19LL7bVi1d4Lnlwi99nUFhLbOdUrWnMxbjERafbF+n2camtbyiTnntHNpjyvr90clTigqqqqgWJUUnJhySO+o5cIU5cnekaZ7cibDqub6tkRoF7O6+UiLblByvZJPnzxBUnCsoqQoJX+wgxPIQ+q4NDAv1SguZOHy+mkXsXQZiV0lOGsSUqtTw88z2TCn3ckk6Wte2695gdoiOjwrNjn8R7YRQh8F0WWJBZTj2qLL1CZNhV3JWR0z3UjMhZVjMfCEe+fUdw0KcePMKC4S4vCgjdk4FJBGF0YPaUiRTf9Vqior+lBmK+5UfABe185MmS5cx5EAZ69Lw6xtcxOyv4AiYtBJuKgyZTkRYXRmTWR6Od7Ia776YWTza95a2W3L8ZuZIuFhZxKPsVhga+gUFLRcvrJGitGDqhHGqBZmMJb1L5bGPv8w+cR7RTTrs9Z1atmJGyPyswNOTp06e7d39Rsyp/i993C4NOV80U30FFztiDoUJ0wAZRZ+joNYKA3QBZn3wY9C5Wbo44WhmfXD4lfEZ2wH6/srLYrOLiLWUBBWtOzF4xZWOylFaiseXn/3m225RitftTFsY+2SYkUbm/T3So35rTUeIQ71kUj4xybHHxP0XIziGoxFgiys9cYeH5+ucUdZG0cq1fzTay2FWwODokcFp25saJknL+Q3v9AdGv3IaULzvECKbiV8WEz6RO+TZ0lGM+WRsmkIo7AG/ZD0Iyy6wOu/CeR6HneX5uQWi8UKyNfpV/I2jzIRrKk5tvLBNKpPqQmJXU1uN9whch5djXMUmkKVo6vOymTQ/fh6tFbT850+8XCfMUzL+jJqAoEV0r8nxRhY9UIXR0WTgV0uekLEJJuSAknMzZPYcWIwy1pLbnEL7ryb2398riZun3m7Fp+doq6VkfH77EC4X2f7mxb4JIYT9mCTCkxzzlc5JqK9yTu0g56wDx323nyNn2Qbdj4X9ig6ZLQXeU3ySE0VRg+BxRAhN3I2Uc8yojtuyev0JbC+5Slc/B+HwXiTn3nouS7Q+KXrVwoySRvPfsZaiXsmhJpijOi7ajFZkRGEUo6yY0JzeTvEduDo6uNcURip+IrAQB0fSTlAUTxKJ7ztpmelayfC75Qg7ForXrmKCCkPLGXGhCLmllXQ6cXdtJmO0mB0zC6IXPqnmTKdOdspi+hXTEkKdr+zYhFpixhUig511YdZ0rGePKdsCTwohm76O2CDEm0By7Yg4FYz7Pl95lCGpII+jIGNTaEAYQ5QndsGh9nESMfwoW1wiGPzeG+mOM4ULN2iRyvk/vYeLVyyZL1RLnI49kThC8YnWwoTeuBH7cFXhKOjw8n+gnwBhGdEwioa6TQhlahJcfiWWPvIFcKcFVBI4c1kEzEZtxIyBAT4dnxZm+GBtozoRb8xQv5taQEVhOTPkG5EGjIBZuVJ4dhzCuKe7AA3B5Jw96vifXYOzgC6gvjwpmdhWCJcSUH8pHLu7VabioaxDGPcQjXBP//9cw/x1ZcIElvufDOi0T1jC/HEEFcWUoCL21yb8PlXQdEqwbi8O3DpCPwe5vTI9miW6sORmynB0hrKwlIyuZiPHyePSHfCVUUjVYdVMR4yqSHP56XhMs//5mEVt8+8BO1eZXbC3HK+Y8UTGqArkwfz9oLNUNjkVwPqFMuAG+nnoTEh5N82dLwRf2QXa8UIixh44iokO+JgO5sGBo/ekOyLiikaQGHVI/v/+UNe1mQEIX71iMXSwjShTnom8vLIJmKF3g4LoptQ/6qeE/Bn4PUkmNZk+3JyAR8ROMbWTsJ5jYSUKvKv9psCmot+AZd1SWpMRWD94imtzMnmZjwK0ujcZkAK9WEDjyL2nISmGd8tYEidLx4biZh8PgvMPGxeypdTnkDK3GZAP5O+Atjv3oRW2DtdA6wVidwl1DfM8EHFcsn8SeTjeBBZfpHZisYHE4/JAvRF99njQXNvgEhuo24kZsaeCB8mVPoxfAylbUdkyGEAgvf36DviQkDILIaQdHWUUMLyub4j7WAtyz/mwbi/qcB2xxZgcmU/h6A7y0jt4q+qdA5PwGXicWcUkU9/PfgYB4PovaXAWW1+IxGUNGDLSRmUiDIZoGiRfSxHPjQ3EpWS5Qrw5lUZcdQGx6/itM9vAUWmulI7MpBt+to/XAtDrZ1VIn3P0xIEJPYVGRAsBaRoZgsojtsICKv5SGwYxAkPFSYLSRS/J1ZFwR/Rr+aSsFLOrxO2Bz+ZhsQvAPGOOfbUIvKR8swRQCJTfiSN0Y91km/LcdknzYtJSesmRuRGAJrJ/yIw0FogrwjL8EvvVEGKLjPHgL3oEvY1GFXkkyZW5EIRo2ebeDhjO+BRTTgGd8GNFX93BNcLy5WMimBoEkhFVzQ6EIsxl2xmlIKvzAVhL+GpIlAeG4uaaL+DjTi0X97cG3gccHY7INIaxnmkxDFaMAvECNv08M/yLIJ3//0Sm8Qd/NpvqASY9iTNYBrYwk0VAomgHeIMd/lhVK+H/Ju/rgqKorHiqIRcWB2s5U21IVrdShWLXT1ilD9u3mO0vAJLAhLJBAdvPhhhAIiXyTLNhMIR9rqQiJNFHDxKTZiTJJp0WkraVDrDEVmqpNbCsdS2uAWlurI3Q6kITsOfe+u/veu+/d9x7nz928l93723fv+fid30Gyuf9EN/GJXDwi5dIiWcAaKTmYMv4nUR1Zp/sE9RHTdHhvgmWyZzDlQeSRmYI54EG3FQCXtlL094r4U8MCBP3iT+gRv5sC+HfZVbKwyIUjNsdiyRrmpdAiNvNnY50lkns/QoMjKLPQoTbX04iHXi2SM0Z4bLmSVWw9hVjcwp8OeAlvJa9GTb7MgH/wd3SDcjN5bCsClgFc8lNYETpkjKqinOLTo1BVtyHZniOZAtesF38Zr2Qhqx8kEdchxKjBVHVUFyfS6FB972V0+VaRS3bEih56BOJpZGqE/0/WhUhPF1AsjjW9boRvv4liCaeJHvD+DGsBLq0jKYce/gmY9SgGfJHtp38eamKbKcuBH/AsyWq2jCQ+lfF3QxDn6V1mBWUa1Gs6h6JekS76CM7wuiwHuFRJFs9OcN8026D6zGtQHGLqNNaO/r6JnincWJQnWdBGyI6wdu7/BHWkILlGKNMI55l8glwMkUm25WidTkqWtG5C/CmpWOel+g3jEL8e+ugfIpKtyJXCVcZl1gRcCpMNUrwdtzoYDjwBAZ8bCfj9cEjR8+bJY+IH/KBkVQuRHTy82eooFoezLCfL95P9ArHvRMZki9A+WG9ZwJ0HCcSP6/t0oHx6JHsVavAdMw91bB1aonzJujZwRG8WZgrkKJ2DgM+MGGID30GzYkRy/VGrScIWCwMuNRFDTXo490HCiOZjWaVlGJT9HjXrCVyiAKou5kiWNj8Rjh/hqxABy8jvI/G2CcDhVLI34GdaKXCFKtD61FsbcKmb2NQPcb1/Obz5o3JUxjtY5EWR3TyoWXSzZHUjXPUErtTvLfDmr8DhZjJH+CoooRsU6KOfR6szYnnA64gupGqeSXVXKiPXdsPN44DPA6+/Yh7uYj5SIsi0POBSKeG4cV1gWCP9AzzEb6NH4adNk7puQp0Q+yUbWCXRDcazIxIqXL0nk02/k3GEJwnMow+hZjyXHQCXshw6ErZgGPsPCPj4zKMpUDn557CRXeDSLLVM76ASyzyp46YOn5GL9ED8NlYULrCfbBlalwP2AFwqJShP/FQOW6F6PgR8AbWH8HHTkNlQk/UiyS62nKC/cDusiqE4AD3zsoCRSBd4hGeihtts2wAulehGhqiEREZ6hxlUZnsX/vbErcp61Oo0YB/AXVh9bC0vORA/vC/UZnxgDHCo8/G8WRjB6DGokWxky3BsVsDpxtvhbX9Ay61OgtLo8IolwtbEGTRPhpe/EYqxnJTVS1kUiNtHAb8PvPhHs/R4eFEGMtNWgNftxRpPfNQWAvCucMbVdaOAz2Hl2cT5bD7z1OwM2dT5ZBlS4E0P06on88GLb8PfnTgfPc0e3EVZwx3QiX06AP4MjdUGhR8uQra8WbIuS+2GtzSAJ1k0cLlrDIBDKZ+j4IKQsPUY0pMnYArzYr+NR2XcxQL8s6OAA0r6NtiRJm6UCJLZ9NsPcAmrPHVkcgf8MAXwaeC1w/pV7hSZO9UkvoSO1tTDX3TBzQJ8dEv/KnjtL/ACYcMlyk2kIKWb4WaUpdoZjU2ssGwU8FngtRdhU1mdqLXItaaGj8JgHA8uadR8yz5W4uVzFEn8M7AzV1hQBtNs/QO2BJwom23UXDXbwkqtjiZe7mbo6QpjiaKGkxOSTQ0r6nVyjma3UVKrcJDw6+bg/Yd5b3UmtS0o3xbUupXBWO81WB79GiXv8pg5wnA0DqrNroATU3sWa7wflCj9M031405G3kVUrSyz2f5B2ZhX3c9XXKWV1SH+EKXr5IIpSCZttuooY9ohvo46pMQ+Rht+AugPPzVH3gWp/FfZGHA3kvRaqK3RZyVLyOk7VwCfyqCsihriiqLwszYGnKCpa0u3HWfx0h8mM6tIM1uUAl6ZObIBhlgAabEWcYzz3qbw0m9iyTcJ0rBNv3aOcMojrmnwBCTSvEWZUQi6EFahSYSCGkfzHCYp2RnziHs4yhZB2sgbFM2PLzK6EFYLWoJd9i+NRhoiNCbUqr9VXRJL1ec+crLNKTh0SdAKwOarZKfNAU/v58ZuOwvv9GsI+GyyWPZXU3hLabpQts1riIHfrD75MswqlsXfTIoB/M8MnaNNtmwaZVhtAi+OOqQRrF1FIbzcyJguu0/M919uIm1+Y6yBVxvKEpaK0+2U1tEzZthMs0zCujHOKpHcpGrGMqzF/Due0lo2hzHaRhDgUNmlJ9P+gKPw2TGk9j5wGtAHtG5hOEH6HTMAXmbTtnCGoeKBam8Zct3P0PSzIeDvmQDwFOjC7LgWAE9BBNZL6m7jhHyKUzSJF9YTLobh5LehdJPCw1ct8wRRGNfQRgybD/ByO7cJyxniolWru0svMwyfHRVwMdMmUJOR+5oAHIuMqksnQyrgSzAMnzqFAvgxEwCec63Qm1ixqDo/HVbDfwwf8DviKICbISzrsJmeLrJ0f29V+FBJbn5DYeHB/Bzfjvbw/rzKA4iY3aHq3rAh7z80RhuKw82QafOYRSeOtzUVD+XvJQeYUS3BrX3p0ECEb9BE2n4Jh7AIeQLUUPMDtX7vyMjI8ufqm8ypz1manbPQocTUNFchgZeXIeBfog1D+K94zS6k1tXL/OPM7XlZOQXVIPxMK/B1XqozE9q1SzqSHApNTcnIy1JLH4vK4r7NKI9Wi1id7lh7EErzVi7qkVuv5JNhk1Af68oLFKOt0n+CTnrCsxDwz4wCPpNBgAiKWCBY8Emg79ApxSVd0ZYsaVFrinC4U8IrHKpMDfkExjcvxFPHlt3PoDj1iFiikqibzNmKzWtjWzVPe7rYp7szzaHWVBBId4Ib/I4+Xfhe8CokMSaKWKRCdukkY3GHkmXrbxfYaVzZ5VBvyqvCaP4FKp3cNQY4FIBYA/+piMUqYkh/pmQXJChduIWiRjoMlCRpwFtFA6WfOVz4W2OAz2bNOxHRiDAo66z6fT2qli5HyFHepuXxViWJWMWS+xh30tFEo+8LbzVyyXDSXd37VK9dl4B5hr3J2vBu1ur97IZ4x08aHyQNXn1UeDNhLTX/4M7aqGX1ks8b/TX2J2jD27FCa076TYj3LVeHlsHJ4T8RXYteRlHcbAppfFwciQarAlU4tFqa8r0xkTXR6KGrgF8HXn8BXLTBeMBHiMbRjJJEzcvnSDXUdctO0vyBm7U+Kiix+r04+gyri7rOt45lreDHdqWHOMB9OT4bNu47nI+SJhjcWXAwx1cSCpXU5OZv2tM1SNn/PVp3FajJFz/vKuBfB69/ILo+CtODyVk9Dk6WVmvUV/hoUDb5V5YT7j1AJg+dpet6Gxs0Ztpgnm03ZD/EfzOOPpbwnOheo13qz2kPu/RYZFAdzblI5hd3fKs79r1NOfGjjDWybPLEZOEHzaXE6FO8V3f4lpSvz0i53HLodNeer6jZk8ivAMXLYUvM8UbriWzV9qy5od9wDAI+dwLweawJGH2GA56vBOwyX3ebk1ZaaaFhzndys5w1UQ6h5F2lSg+zLsWBPzPPNn8C8HtZmRfjA/FNsYLtaelmrGL6EGXdu4zYsFooqb7SWC7coI1tdIjJWJ05ATgcavTIWsHiC7Hl04Kh56KBl55LXmaAouMWIiILxvjU7NBGIIWew9F4ajGcknl5QjCjLIYMdE+uNyaNgDwP4TfpL1pDHElHmiILKsPZG3wt+Tkl4eUB9taQrzTtspql33RLBN5oBMbrgonK1dHg3lcVcy2kjbjZkN4ffzt+wAsmPu26DR0RBczUQjS3BzYCKp3Lh5hhp2mSfHG0ITcfCiY5DbJdcl+9osQ8Rjyod2iGhRWLxvF2ZhcRTiQ8MCF9Qek00jBT7OPBSMDnM1htSYZXxFlZ841ZzEDWlV7qRnt9Pb6dzmKiTlTj8YwT64Z30vK9YEC2R5P3BHkjux+hyPmM2xxWXGa4gpJ8VrK6Uf7xdHpDe67sDUlp+3Ir/BOwo0Y1vZnXWPG+dfxj0L9Wa+TxDt9SmPt3eliam1OvjwQcjqJ8Gv7fJw3GO1MW7iqGW563FCWrj5+Xi5L0LfHvQP7GmJhBvczPOFLNBAkKK0z9o8rJW3Q+G40CEb9b01Gi1VwyaclO1uHbTrli51Z6HkTfAWhoiImXnT5MdMtvDk2ajvA1smmXyzYZvPkqP1lAXoAn7mKGU14ZZncGJZ+hb3mgVkY2tZD+CYEn3gi/skKhE5ivuoAo6bMg4Pcw6mVGN58MUNalsE9dNjZ4hQcY6DHOKymX0TII07ct4IKGtKx7XTKL7XLDJAj4XeDdT6Ej6RL9hG+M6r7I8pYXDlDO1bCOnx6qlade5SEGaAStVC/DzVaYAEFROGIofwHijeplPxTqptfhZWmJ3kbZIOvYX+lErIevbdLx0xfIsQkqE9kuOpFiVJh3yWIe4dMR4LNY5RODp2AgL311LP++VRbwQkpGI1nHCspGWYJY8Wr8fKMxD074k1is5Zf20rNybBcaNX0VdNONHtQOv3dMwy9SmuUAP0Fz4vUTjXHBvOoIiJtgt/AKXKrt09ItHIBh37/YR3jclFsZbrrR2fRmFfuLLEd0dCrTsJqOc1WJdFZkNdA+4VglhgJRUjbK+k7y4MWf0iQ35d303wrtIK1WkWB0bpYpq6XTXFj9BixABc1+HFm5Owsub+ypHVmU+ninFqpRDTORPp0A/Mvg/dNaW140GRShzIrtonS6ukIVtQ6lX6RZHJWz4jxb3+eKATOFnxF+/V+tYh/h2E1fQ88WGWQFqjyIPlpVNUQvYSXpVhR/kt34quB7Fyq69oCDVQsnjvC4uBngD54yLm6NWvWJeW74R3sJvCeywnA+o0O3vqNGiscYqwU1uMrIhzlFmzjKyqYfZTTs6m45KnkfAzXQRQ4Wy3rAuv2EK9QvXMChPDq5aieYdLaHScBRNv1jbfRJbVaiOkuyPmJX7IHZd48xXpsGwP0aQscBGOP/DNHZZlAAf4ChzpdgLAcCnrd7FF3rD+28zCFKO1iFjunNxvyE4ZbeoCELr8hThr6i4x2I961foQC+gCH04hg2FHCo6aN46ooro5bik+0ypj6wX73jlaWhsczHzKvOpeCN1Pn+xsz5/p+6aw2uqrrCFzEIKKWtyKvWEcV2OhWn2FYrtcw9N7l5vyAgQd4wvCpJeBUoIBogYYIkanjYSiOCji2CUtoAllZKH/KqRFpbp6NQsZYpygyotbTO1Jk2ESzrO/vss/c+e+1zXT/h3pNzzzp777W+9a1vMdvDHJy6uYIeZAa717wxj3KqW7XQaAro1i+T0NkuWj8ZuDrNqcMfidhDqQKBcU0rHmu+O001P/6B7ALiTcn+Iod3ISOGk38Wl/GdGD2QCu1ctOKUOEG3bCfMMcrl5n3586VJWc+E0HpLBmHUOC2Jn4X+cA44h6s+QNO/PI17b0qblygp/Tl9SDQzPARc/ZmbI09hldiSx18RVT9FLWKkUICG0hqMkNQZMFxGv/p6MrCp7FK7VjZF3GnUttQn+WHDaGmCbUx2kSkovdC8aRd+2q+BoNxd7HBKVZ74THzCHw1RyoSBNs5NSbzVtA5L04i0Tq2MnlYooTxI7O9E977kY+/HF7VVszCsytzQeCabpjfDjMO9Yqq3uTYp1l/02eckDWaFLrG2Kp61uNsJ236+KUxYZ5yGw4g7EOu6MMlIYH3Ix37pihQkCHx4irPrI/XiqtpOyp5TH3w+xrjOtlgKsw0I8jeUxH/oRWHURTMJLyyCjXHSYTaHPjf1TldaFB6jsSFSNtvJieGVso9sqAxrc1ohzY3SUxdooAbGdO9NuYaI3hpT9SEKTHovJiVdo7Ko7b341LvoaTuXBcBj4221GqY3z5oW7IGTvw7EurICHQ5R2z4W+EPJWli6Vx90gyXRwtUo5e8tMAQ+qmgp/EfLxKL44Vjb6vjEnIpYEqiq4D5dmwYxcxn3tgZCpbvUYDYB1vYnx9IogS+7NT3nUwLCOjtOqLw/0WR6j2mMDuJs3a6TOJzKtSWfdtaPhbacB9ZtdKJOVdFiRKZqMmRZltAXpf5JiZQP2nW0Qvp7Wpau+MQ7fIabtnf6Z4oUn1uBIe6xRb6jXylzeOKLkpmUtiBtFSvlkdKjTcPbuO5+h1FwWGUYUgKOvkGtcHLBPiXrRlj0iXf4johaxWbQiyKTocTM4T9IS8lN10j9Dby2WYVx0ZxKebQ/Kd8snc109xVFJpBelRltFCqj78KO/mm5w/vTTz8ejT2acWf4PEcdc6AapabKD0InqqrPFObx3oAdvZPc4VlUc/UgXRFVzhw+nictg/4rtsFWI026XLKNKkaQA54cHjTWJsAGyWhO7loKF/AEDyWO+suK0ybRYa6JGgDIfB7U29ETiTtl5HR30AsP0pbKLnQCtWEdRHFPrzRA2rKXSyujITG6T+oleZJcbYkzh9PfvpPpRdrCdv93eQaYnkngArStMxO1YvR2pfyu5AvvmBbzI1ob00p81gm26gsW1MLdWoObgwEAb8GOfnuowxMDJHpt7uS7aiKI28is3LTkrGu1BuKu5frd4cdAKBrmlHXrEe5wWjD7wJUUjjRgtVene8gVsHDc029z2agPwQP14buwwPuE+ztxM/nGk+ec0MBCMAh7g4hGO1L2wWypSIVzPE2/VrVEOgIB5VWFRmfHJ193A0aCVXMxFaaZN29rWqO+8vkmbV54A+X+Hf0+cF26KDgcoJd9JvlFZGvgAkianXHUwakAACAASURBVBV87/K0OajbtXnp0EL4TjJMqktkXyPf2RCLBudSrteszrx5W9NO08VXqMB70e48wSR8tTJ78VK7g3zngXQcDUdsmDeNpdZz/oap2qDVQl1qFAg3noRCWWclfye+Qr+115CRF8nGsrQLp7A+2sr5GxbR3zA+HMMAxYIPNXMO7x+wwG9Sc3iPKyT1E92hDIZGy5i59i683UkrQocV5OuGbcc0OZbFNdIWwq4D1RwOoqvQcDTXicPp6njF3oUfdihGBiCYggBBi16rzzB5En6Dor9BzekxL4pmu5WddxTXCud1OBzJCgyxRj2wBgZ2/g0c/iVVh382KZlD6kahr46LezbMJaMDHBJOkj2ghRLAC/X8AyDN1l3V4VA/+XEMusrTuNLlHe7OcN+Wmx/KH1mhFVJulnOb+iSUjTYcvawPGVmGvC0ioCPcRempVMkUTeILBWtaQtDIGmklXCi2GWDfkI0/cTJbmtaN7rd3YYd5uA+595aHQSkgHVig8e56PwF/98xSd/iV9Ktn3B/is7mINsedIW3tBmp5oSnOPA1EGVG2f5kl4R02OCkZWudVO3B4JRcxxR2W3mEwTC3sCCnTqArvoZ89B3WTroM1HJ7oLDvEHWTiOVGG+0htv7NqWYcBezWMBZpdo/6iH5A3GA3S8TeQIOAQd9COcFoXYzSMBtkrAzkr9cCXUmXVoQZa4/A+0Oc2BfafwCHuAE6fx1aTnepEbjUoZgilOk1Vzk7ovEufHr5SJTzwEIdM/LxjKN1i7QQkSflp18WQmU3WCeslMWVBpRxlG5LQs86ydgT+mvgwLiidq2dNNWjw0o9KP71VdS+lNQGv/jnDuon4EAcliDHsT6mZTQOyzXX8uZTyIELCBtrq3Rb4uQqYSf8qLPBbNf2Nh/haJzLEQaHVDIs7rKNWo0sMxsTXnNbItQJllIAv4D0RKWTzH+IHHQsDzOQq0E131EwYXOKQ/5o5ivcHqi7/AX9f3UXX4XCIr3LMTq/kmjA2yY2ANjGq9+nllqnvQEFp+6N5ci7bt7T9nbhRNqZwBvMjKmFT16Ll8N0u/I1qgNJiREWukv7TPdBQNjwKyiaE06kwAOe0dcHGZlE/b0IMtf2KWo0lvlxlbysB8hQMjg7vCU+EzqX8C1cniMrGa1EB8oCxXnEE26mxxFtVet9GyJkPSv0mITXxN4xUauyk4TY33lKusqsUIR8FS/y86hu5XwmvRQ2AzlkmDqdyTrPOmYq+R994LfKQCvJiaY0EwrKsGjFGIVgCZU/sGBUPpdMltlFh5ULe8HY018Z7dzzisU0wyb6mQRFyWqMCurwE/u7VycjhnfrKJPp4eU6Luapzi1wXBYQAmqwqMiJ8c8OoH2SbgmaUabLTX9ABCKPaNq7RJPfHkJV1LHFgp6QDERU6i3q56CPl8jpZ8npDh1N1n4knHaKrs7lwl1aXkYjs2A1kXtAG/1OCT3wIl3o5EvMhuMVsl+kgDwNjUuVLHatxT8cUn+KB2ALNSAtD6wzez5dpqKNLrUsvWYl0B+fjKWIZh+CDtR1Kx/oC9SA9LBBl8iNcT+VJZxAmB2SZOhz6xA+p3TADlD7X2nV3ONylcInPVmO3LQwD+4H5XI+gy7XG/k58XYau5hYwPp1TTFD64pg0yERwW2uFSuLoAxkbCuUj6bp1N3c46OzuY2OS+qyFZ4XntMWkMtgBtwGiHvAeTw+hhNMeLO/oYxGpTcR6yrTTObtIV/IctePiG+EiSJ9HNRk4vCxX3k/W96ooDqcl0mX14SkiC+JtjXhWF5dS8EcGdXHx7wpxeHMI06VPFH8nbk9KBqBwhjx09xth67K0+zr3mGOHnwVnFVWFn+HQqltMDyXv3wi69IvkcEBXf+rx+CEMS2q2dNUjXoxHeLsdBo+LIMR50qANpLK9X9kCXYToKkhBMOJUVILS1szTHSYCxzZtDqTQbWWhcQZl5JfsllPZdDqEFQS8IDFL8ykDTGNp8VxvIHdr16CDX8T3pkhbHv3PrfD918DfvSP6G8fWveWqH+E4R3hYlueYay04VCDGTvvjINp9mC9d4L9Lak0oU1HhvFymrDzZEQ6ZzuHY0VfE4HCo1ol6C4dJpG3xBN+ATJcuUR2e6COrmO1mozKe5cgHauMhP9AoG9ao/y42BdfDi/PlKl1RUNUA7uq7jhLZ8579ARiQ4FbmxOFwpB96tQjvjgkOXwBG8JHRL+8R3eGQmEE/AhsHsKJNfzRAmDW77o8T2rHx4LUt0tRts2SB74XpJsk7EhbsBnLJ5446AtsoUaHcBo7ekgE7esovCbESilCzAyEIaAj3VmHZpJMNh98mozLyZTa0x7bNwvb7iMGAApYaykwp+gKaH5eIb1a3hSzwITb8jeMR/uio/ADdz/OiX3GNo9NIt4ID6MuRQK7oPSELvNdlVhwOTYWg9jKT66lMt/1iPejFNJ3Jb4tl6Mu3g/KThpqQBX6LHX9DPwKAbd5ppofS1GZZPw/KyI3x+Tu1tFCCvtAoPv3/+s7okAV+xVWWHP4Zet03HfUNL7GL4pa0xTONS+XlI2JxlKFYGgjDPz7REhndT2XsJqOnl3M9lBGeVeIqDJyZUhKnw6vzg+lt4wM6jQ6EgGx9B9pyeOKb9Mq/cFNAOWG1lIl9AKNTsRpKeW0LQpw+7tlEFQkfyHajNX+j2surdpdeYPbyCn2xyiJdDTRrbQr9WUFfJgUkj5MCcgxvHd8CR7DtNc+NWOlom2wLTcVT5+hLY4UQWP14vgzS4d7HBf75hEW7lVx6+G9oawTXaQiaAKVRKMW4IY6M2+HZMLXwIgW4YqUQycyGyQo+mU2bCzyR+KpUlZGreyMn3x4reiOgbDlxO9yHvpQL4YeLoQb2nr7EeIL/zwYmZZMKXe3pEWgvKHk0PxW/HRZKsG4VLqaqIvjwC5iDD7bq8ERvOm6YspVruPb0sYrdd+G2AgQ3qjPA4dOF+oyzhe3ryHt4O2k0YVTdbqKXf9vNgZgNoayxDgSCLvtTmWBAb8ttj8+AonxBY+o0yPMe/TsXyBZQQFnlaE+HwbnGFRQAXZy2EErOGQBYJ/jrI3ViUBVlVa2h6EEFlFnPu4nTywqtnOI4GuRwKpWJSzy/OHWsUvSG3w2b/zOHmMpkl9gQ+hf+Se/ge44eiaGuzCS9IRTODOffTPANp60QYi5v4gK/07q/ka28ylEHBz6SUqPeoKmZUyejBjT5KedrPQGxC9/Xp2exEF2kbaSwp6fZol7wlbfJ5KzMNNAlEO9tFGVqOSgV8gdc4Lcx+Dtxi3RPZ6s1YvddoQGlCphgK3MyxuFY0fFE5BKss+wdjkLZPTgc/mX6R1YHFXu4l3ittruaVsbaEy6170gd3tFMfLotpGqSvJnD34msq2XYi3cf1yOZh0+hWfcKMGEgtziDHI6SqTRq7+glngz/+h76e0AXFocj0WmXq2UDElVe3h7NC0zOqEI42HaJw1cIz7TfJqOOulC0ofTPrKP3MZvtkdwH3Xde5RE9lC3XOv3V5hIPPsXT7btmE1bJXkR/f4HJ37inL6M1Uu8E2zPB9hqvVks9CujOtanMspGBDn9ItAPUI+aSHMrlcIzTD6orvkezAt8imKFTGd/mUE3QBAVsDHJ4O426+JQnH3yQvIbN3xing6JTC18fxx7fs9AQV34KjsDqDHO475Am7EUYceetRZHNvv35HA54+sQzzkTbRvueRp3pgXAglXE2WejvvPYFvjAvhKlqvSwqw9NBpW8j3yMpWeB7HqpZAVZY7808h5flixy+WRSx/RX93e0yTof3o3/sCZD4Z8xvx+X5HogixjouI1rC/0vdlUdFceThIR7g84o+gz7dKD6zu7obNSbubtZk384wnKOICiog+EAFFFBQFESRwxOVEDwQUDxRQUIQURAwovG+MBA0KKhgUNZrUaOiZtW3IQ8iXVdXd1fXTH5/6jDdVd9U1e/4fl9JD83smkIRsJO8NINLUhV36Q3Yc6RmK8cyeEr89DJOgyUmiLe1PkmH/D2vBHNsoKiqtmtfdQEHFJ0q+RWhEuIRXg1FdFbmwCt4VGK7wVSDrqBpbGDLYVYhcwUfMS6jhVBNO5hfO2YaIgcZK56BmcMrPaTM9qLS6IvAfyvilnPBqPRpX3DcL0PtYMTdRCODTdyUI5Vt6mCJSGcInwl6qldAvC0Gqg74H4g0iNuqKpcmo3zZGLITNlP4K7G/Y6KAWze6gSNbCsaiwekSek06W3X/8I9DBvTsOeDff393oHz9dDNzYcnsOE9mgSsK8ZzXEvKWvtYmaz46MYM8tg5opuqwof8a3lV49lr06dJdpnv3HrGtcIy6kxKILDEEEhiU0zlR7xhYjAje3xSKhmTtrTqOGNxWi7YOn8pSWR6qJbWKq3z5uos7cipGrsFldR2FdG47JxMGPCGJDDgo96Bt02rNmg3s+Plnfcy1ZBss48xvD/yAIrjq5OjRWUhdSDI6Jl+kw/TWm6I5jyThDfWSabt3fqf3wO6D/tnlPcsOWjqz6Ck9MdeFKOnkprLgvN4dMx8T1ziKZ132mTTg1g0GPN6H42D0tDKsbXeF6dXVh/leA6ZfgpuS24FQGkAvXDN2M00bcEBUl3gzmWyz+FzqnWaWRKaT+n321/CzknNNSGn1+D3t6OiqYIt+zzgtM+spkQL3CbEqrn7u0iWedNSFuadE6jFx3HyTB7wMQ4aw/VbL0P4ibY2/A/iCxZwpgoGiAevFA+5zUwJCZ28Upq/sZ5k84Nbn3JAjqtIyNYmdh58RKyhqk4D36OTaV9a/A3tgj3jz+4VsAde+KwnwfmS3TV2a/1jZeLO8glxF24p48/WM8db2kKQH064rUfAlTE2KwXh7+YDvKov0OujpMcqk8XZcBNeI8rXM7WMlahBgti1ZvekIMMjHWxdi25yYm55tojWUBJ/EqfB716bKxnVcFM67HyoF8GFC1TbteV6RWfhUHSOLn19mcnA7XUO3HR26KR3puFVX82vuNx22y4vL36TDH+jTTkEFpQjcO1WakS9v69iZ21bT2tsd5zrg06ovJSzqjBUlPwFFTN15iOyq7afAbYvK4sIEXolYAOWH5UNesDfBdPAOmEx8123P40Sh9o5b/yb3PGZCyguV9C+Abhugp22/W40pGTURHsb/tFuqFEB+YKOJwG3jJ/6y6y7sPxmERHp1+vpbNx4VkyciAkC8lyTRCIDMeKZUfVGsmTPgQZT8+vC7tbIRd/AxCbxHJdG+8KGn96rqKr+vKDpSVHGrsq4+91HNOspf/CMlPadgtg1IqNs5s18DC+EhnG7h3VScl4u4fbYJ4J0WouNhG5Ro8fYkR2ZrmSfQt8MDuNfqQoD0knUyp8H4tEanWC54g7eU9lfSV6h9BWyVrKklCP7Pd0Bb3cm6CFnzMM/IeOsX6jiZUL2xlzSS25+JarustWth2rauBuHApK56UvNQ6jTYHjQu4Ht44a3bL5wtKyV3JHjnAVEuU65BMpxQLV6Ni0PTV1x9/CpvuYSIfKUx8fYwcAP8hpKL5fsK5SC0+1U8Gr2C4frRFtEExOoK6rSb3ogb+gFueINFVonSMEBCPeoQIA/Abon7wymo2v+Ip5yirlDPhBFFIZLRb/TFnuuhi1kDXqKoLw2MzJ7L7N8W5wTACbblJylyjLmoMQejw3Fnoy1wREQWfCrl13tOnNzVPcOlij+9L/zzICB/68bIUR8FT8nDagq8LyFyqa53rMsa/Arg/5lkLMADoFf5wfVtjj+c7X6fruQM12isLIj5VUZ8gzI4CWW7ggLvafBaTmouijpmb4Y694yVYz0FNb0LjkKXgCS56BqgunoeMEWSxWEGAxldwDF2YFGN0k+Hh3KJAu/LcLp1wduC6CyoV9NINySMAq8ghXmWHn5uUrG2O+C35vpeWx1Z/6mXZIFW4EZS7V3gASx0vJaIuh5ohw3OwSxsTcSxAX9HRrqXMoUmCWRz0I/WfwsOSZy7aHfCLwtlLfR/x4HqiaX0tiMg+ZIKLPHgc4onZAI8plyaovAF6M9mCKMGG3CrNE5OHVAVxcsinUsOjC8gVYFiTwVmH4xuqfc6LYA/8kb5tVf/EFniU5TOxxw44fIdDSP/e+jPFqcBX9142wQorS7C3dogkgFKCx/vGrj9bFLOxMlhSycvDomNPzvFb9nYZK9IYH/yH42oqEcpITk1l8X7A6d4JvAQhaqm4TCf73wQBd4vSyH/HL7UBrz4zRiRWaTwFbYz+hmNRWhlPAQlec3liAQMAr7kKugXK3rx3bC3kkfD54vLgjzWBwh3MNb4bSlA1sWTyZc6I4sxt6D2E1n3igPMlyDQN1bSrjkL3pey4ijwTs2jy6TtM34oLtQiu8iE3z0f6dRDEsySo3Ck5AvYhaILc5T94mVfyUuwrYYddHT3k43wsuocIwC+ibkeyUZfNAsyShlrFVtCiQLkVyVIooI77iY45qBpwNiyDWauYVaOkEdmMIJE4wzGrBHHrXZIvK/Ano9cgbe/Ad9zBARJLp9xrWgqGGnVWbAgSCPmEYA8hAd/wIXt6zuUJqnGY5ivT2G8LdvJBLwzsMS9wQ3V10XWyyPufqmj2M5PI1KMDbhnrOTWMINDyMDSZ3uA013/ERHZdNPINfAUB9vF5Xm/Bw0UbgfkrdVlSip9AvPNX+HJieEW0zAGl5PJj0J0iMtX6usLOOracpBPIqMre7aD5ISLd/VjJF2XFNsKU1f8b69zFr6qggKOJ14k4SpK6EWJ5vaHYBQMksqky6inwWdRBDHhEnWzKgvTakBqIRN6OHO4A35O+K5ymVZlKXja6/INijsJoVi8v0iCVfJMOh6QwmjyPvn8xde48S4l5c/ShJ/l35MQLXyBRllptXA/Qo69OAM1ZQovUQAz6kFgaOYmLWupT4TeOzMdDXbQtGMvMkklBaK8MyC0/MDYgEtf4Qm7YogtaReQ++KfFGqstwOKZuAllTrdQkmeOiyFX4pguHinF1VFBIsUC8l+71nhp/lfMX1H+AISI9joHYkFxOHXrkKukq6dlCosfwR+5QslJMH54gF46oaSVxQ0ZAP5ehNP4OPh/OkPAH+Amvdp8zp7SpjY8F+cQUuuWmkU23CQbgKiYaAvm+2CV+1dgX9WXV9MyfsgH8qzQG7ka+6Ap4E1vaOeYjIFLnc897rHUlDZa4vQp6D5RwxE1Hv3Ekmp6xbT0p2iN8NxZKt9/ObjTOr2ggaypwDVlPy5Az4b8StNCkwJd4Z58jaN132y126KvUg5+nxMWdG8n4aFdQEP2BrwBXzpuP5OMEX16W95g9Sr39DzunJEolpYLOlL7oB7Yg+jsC98N22f5LfE7+ikKdN9Z4wukEZqK8bRes27M8FbYwaq+WZASRCqyoD+LNwG3/JTTa3/WsKQl4jsjfvgP+FPXB2vToNJZiUuSdWjm4aRgQlWeFOnatKEe0SPNweS3pcyJQw5R0xlJhSxNZ7jDrirGnCXVmFJIm3ZXZHSzhLc1F9B25T4TZVwxaR0WnPR86mEIYetEdNuidyM+LNG7oDHsIfb9md8E1b/DzTs7K+gePeW45A/0iAyfh8DLiD7Not+yCE7RAvbK5GsX/5KrInM8S5PJ2jxmWlY2gBwia+C817kSLdhKo6C/pK699duipd4kucOmuXNX8Urni3ahnsnSIK67ZnirTGD7laBa9MOpDW+C66QlXvjukjQibUF82naCaIxrH7+6vlM20Mz60mEvw7srzDsSNH9YYfPfT24iK2QUbX9/uA+h655xB93s4gjb7z1DKUArlQQy4mWalwyPhyiC0PHuM4epxOQAg/+0BbkZXioGsnZCf60Pf0BWL1D7py2NFZoRxwjs3kthqhyJe0w6GqdakRxIxG1Dm0QoveHWyiqNcTBLt209zq9oKKLqy32m7jLQHiwAPvhT5Vi3O2u3TTq2CCaHm3dZLiEFYlqg27pCb6M99CSYvZJC56dThGmjvsRHqA4BouoXy/eifO+mUYtgzZ1hOPWtMijBeOeuQxV5azD8WCbF/b2ef6SlVK9SMVjA3fA5ykB+/iPdTdp7klo002jnnWCPPVxj5Bz6/62euY8F9kpcQ/bvvSLI5A0QU7e22kJUVzfjjvgwsJ/3orc+3TRV1553SqaFpymHvARnTVq2lCYk4I5gSfG7Lse6e9zbQz6TL2y87dvuAHm0a7JUrd3SV5KnseL3AEXSrg03Ty4ZUPdM7xGbm3EoyeVGzKiJNx7YKVR2T6FnlkoRx5xWysRtv+CtERZZUwvUbWUAu6AC7uCTr+VKj6xvqiyrv50bv7P9/JzTz+5e+zWkZsnL++UKpLfZqhGdevcB2aLF0vGO+8MQQBOZ+suua7lNUb8obe5Az5alE6sxDp80lfDwXr3gBGXusbzBBTVEwjvNNFLAkvOkcDibWWbeePtImRJVzCF23yEmYaPdYQfXvhUEt7FACUZ6cosXhZKFTcneE5yoHvsSN6AzxI+v5ol3F06abjZEPj5O59JwLsGFFE9htuDT03YRU6HjprjvpnwwxL6/0uNnHfJYAj3MA1Ha/8xglNcQo33M8g3CSLURg057hMCNiICcqfQNUdz/s/euQdHVd1xfPMgu3mQF3kCgTzIJkASEiAhDxrvTg1KWhDS0KpVDBIFNEjwUQlCqqVNQqAUChOLFoyAQ8m0ggE6gEB4OYChCAIqyEh4jCgZB0hggMo45VFmz+/uPXd3s+exm/l9/+R1b86Hc+45v/P7fX+6D+rYAnvz/E408EnwfSpYfbvzgwxi5eWj8Rr1jt1wFmt1TbYbTC+auHDxi+vWL5kw4e1Zq9a/Om/xpi/sPqmzRNWMaaJo4P+EgRQ2uBOyAwzC1VurX/1FR7pUfFyu+VPsZ54oUNNy5589Jhc4rIBvZNFgMrrQIEWZRi076/N2res3UzzQS24y5l11Lw8IAv+DaODPwrIBl7/cwwMDDLI0wqT1Smtv61JYSnf0qL7CEveM76s1TvjCgUMPG9caRvsXBHoZZCpN+72WNVIpNH2pFzIs+5Yd78ZPNEM6Y0UDh6HePV2GbUrJz/QzyNYwytst69COtVywt0mtb2P09b5RorgF8IfhVU5Ll2DHpGQM8TK4hXKotnnn1bHWpv3lDvxsBy6xyPM7dIBm0CkauMoN4JbTE9unICczwOA+Gqbjbd3S2dF+dwtX1Na64cI+R3/E8lYXcRddX0t3ZBUN/AP4biecYO2bmJtd6GVwN6WZ9F+7YsGWMif/Vze4gnzG5tV6FryigcM6o2JHPIP9+6Tn5gWmuh/qB3t1o8Jc5ddndA132zcn9D2XRQOHdUbbyRdLDh+Yl5EUXRB5RwXRScH5eX1D+6dm9TO4uwb7sieuHLjh/A17UUfLGnsm26KBQx/Ia+SLFRo8VQP6dB1sVC/qb1386bYT/QeLbx9f6YCrumjgB2lF8IqS5bHADQGDuso7umesv94GoPzkZ44c1No31C5wzEZfdOClUquo6v5Zy8/gwUrr0ofcmHY3Qhthr5NN/cnr26hzvencznrd/oVyI22w0uZzMo/c4NHqndKF5fx+8l2hvwN/tqSufOuezksdrc3tTW1tTe3Nref+2/lj7e4Fdv+mVOAqQx8yrGz2bOAGvxwnJ7kx+cGaFttL4aiNMm/LVOkPq9kYobrL3i3SGQ5kbm2QmSPwYzITIFTpD2RNQa7B8xXm8LqeAHNr+2WYBAEXnOI0np7+kGHoDhriEHKfUJsdav8QXsC3ygQO7T6qyPfKN3QPZUbG2CGQOELLpz8gOEYEcMFZq7A14lEQaDN0FwXlROkUteZTi9Zjh3IB3iIzLx22L+gk3yvH0I00YNhwjbOWMTFZ31GqfwoH4LUyK09gCeWX5HtlG7qXesSH5kdG+d5bp03+CenBfQc7UOIYnsgZuNjasulwkw58j9MM3VM9vbwCnOmtkxrt+u1bYmAczeb7UaHA/wKBg4ZsgQbUfXllu7Sy97q7SyAKYxok1oer3B+AeeIQJE0EavPMXTuY+yaF3VtO8on8OokOELAK4V/gVcMQM5B3YFKCk+lfUfmFDz4eI62/fFaixwusQtgGXncwMraFHv6zdMeyK2KiggPJpk15hMkUBL5IJPDFOlUI8chXW1nhOXFmX91cP9sDAJFbWS7Rp22aThXCAESrm2MR339gXkb08MSUPj4+IT4JUeb0gtyRfcNjtXP9CKPvWxKdGOEx/AYA7o1QGYowk9sNgY9xk2O44oeUGCqQaiYi0k15ps4x3IiQWIpoq7cajvpjAoFP0jmG+yIklgonqlnhqM93k2O4D0JiqTCiyg0CF9nk5k2dY3gKQmKpQuvIroTARbaxmqpzDE9HSCyVStSwQOBPCgT+ls4xfBBCYqlY68gugMBfEQj83zrH8FyExFK9ieoVCPwDcbzH6B3DRyIkpvFYooQBDvtT0pLSYYX8MITEUt7E0MI+K5PEAZ8LgcMimVCExDT0TgwtbGb6sjjgv9bz5OuPkFjKjxhaWH46QVZteBUEnoqQmIpIcofdqVfJqg2/DoFnISOmIrKkm8G4jxcHfCy1NvyO+iEjpiIKUqFNYKkw3qqWhJ9D5x5ExFaE1zNswPOqMODz4Sb9LKymRERsRdjOQO/XZ4QBfxoChx2/hyIitiIqzqFJ8zxhwP8G86OrMZTOU+nWsYWdOZ4QBvw96DsE92wZiIitCDeKDWDgnxUG/H3w3NsKRlZ5Kto6tqfAwM8WBhw2zTsEgY9ARGwVrFC6XI6TlKOsckrHuhPGIorLYB+raZIuR2sx0MZVRK3RDTDwlaKAT9HJUVZieiAitsqmeW8K8+16We9yFHNWWSuUZvIizAKiVO9yFOMurBVOKxB/5FeCgO8Cj22FwOOQEGNlUstHpwsCPo5unK0oeUiIsWKpxWWiao1g/6ofIHA0eGGtLGrpyRwxqK9KnAAABt5JREFUvEfDp27FfBe+IpLalktJTJ+p27/KCwmxljXHqVpKnrIqZfWAgqWjfOUrOW0VnspqVEZyyIe5EmhZjEtknMpUKatJyIe5zJKT2uCp7BJejvIWcSH+lYwcJ91TGVYhsFeSdXiPgrHfJcPPZyvelfEWcT96CIz9VBmFhLsxR5m3CGu+nWDsFwoB/raOnw9u0nmIMO76ScKF+DrYAxeu6MGIh73CaH2NxDTBgC6rZyDwgYiHvXpT70eF2Ou+pZfBGIt42MuLar75koi6slHgkT/C3i/ouslD1h62JyDwmQKAvwMf2YAWbSJjqxXib08m6dWV4Z6Ni4guaDXCPSDg1cnlErR34a84miWAiGA6LDNqhHu23giHh5KtI9whvH70Q52rE1/MSeciIlH5qujY6hFo/nASAI9ENlxE+Ot+L7rY6BW9TTrejfJREK32RECo7TUI/AQmMApQjwhKqE1An5sndKpO/DHswklRtC4Y/C3ToWHXOfyEC1EBLfLC3W71JYtOuks2kuEkoh1lEwCwXnCKcgOewoWIuBG/BgA8zxv4PJ3shxAEw0vxNF8f7q4flTrNbbATAjf5WTvP7wEEHufM+1M4wfcD4OEIRsA2vUFoAelrOu4uxp7IhZuSaM3qXuAL/DnwsKLleCgTpDRr35MdAg12xxTrVBmFIhZ+IkwBWgGDN7gCX6VzCo/BOmGeuzZrcHU/YHCYa9f4cTo1CMORCk9Zk142QghPc+T9e/iopjJc0YUpmRZN5xl6+ZOF3oAyIgCh8JT1SrxsLzyJH+GX+7ACAi8ngUcjE67qF0GpIOWYyKjasrWDFT0MmfDVcEoOhGUTL96Lxurs0UMwm42z+tK6iHPzcppl0clIT0YinJVlovQ24tUY4chE+JgOcAhHHwDuMtPW9OJPBRQgqFpIFyAP7rLaAmypEXAym39YtWUDJSeFyIO7gkyUYJtl1HccgB9UTfDjWEMoL9im8tjlMcWXqB7RVoGGuqKVRstzshS/w9xedbIK+A3QBAHTk0XI2+q5Wq/C8S7ra9HfqB7w8RoSeBrCELymlyy18LxCefg51T9v2QiCLjjBRcdelAsqIJUsb0l/vljNu6oMJ7iMNd26T1/TpELCMPNl0ftq3kW38AsueU1XdTC7s2+bwizCNlXNW5Wsiq0nZezTK9RTvJJRXeHfN9nw3g4alZmRgzB5GelfcUbNpV//ow3voq9J3iYsERYowki7pFkNZjyDz/e6Yhvelm+wTZk0ET3r1BUJd2aiy6WkT06zxW35CgTR/b2RgkD5Ee1PlJtqNJNdO43/cp7G9LZsP4DJ6BJFWKcrdTvUcA67QHx06eMauC01+wDvdEQgVgNMCv1oZrGMmtvVWGrpF1q4LZfPQo8PzHuQuG1Tys7YAHrkdFca0M6Z96gmbktxLZplS1YmOf51NbaMZjvrsDx91kILRTNaIO9BOP7iZSYJtGhQWjHBiUk+eu7iyTTclsv1kLcPVpNJPpnZ5L78vxXK647RfmzVu4ctdO1VNRk1ohm+FEWREKqvabJ64yl7s3zMC29+aNFV81rIG09kbjHFly/VxjX2NL3X9HcfvfjnIosdXdmi4v0QDr0kJQIOF9toyMY+P2GOqinK6CkfvXfwFxb7unxchVuJxFITWUo1ARL79uqAG1U5e9dfT5euLz39zG+nTlthcVBV+9S8zWjoIk/RkMXuvRa22nGyRM27D4bQJcrbH9LY18SU9806NW7FJwhHXabSVDzqmtnhrjqr2PLGiKpc9RiqIrLgM0a4t7WU2fLug/NbtrJUi7pS9kMxi9ldq4FbMWOATb4CbbCUt7tIu/hKuaKlSDRzcQfl2oCpOFXkAu728ys1cSsZeP52C/Uz27L55FoXaddc/bpMG7cxFIfaTRQUosGnvtF52ns3N1QrFPngfYn7KNZfC1HDbed25d+WlyhURePn252UadSktLrTwThM+9VjKxUd+WIVuJspXJu4UnL2lJ0te3HjqZY6RV8FGE31GOJ3L9E2bqj6jxbrf5zZf/xWhWJPIdjuwC1XdX89aNWrl13Yeehox7XWqqozHUcP7Txeu3u54ogikvFyzE13biEKe8UkYSzVfU9nZua4o7EdmTvLL5gpbmPuABxTd9+6+TLD3SsZt+YeIO8CJrRN6SPQzMNTJrmPy7gT8jDLwYPUb5i/K7R98jFo7mnySu7ip9xkTo7H4fNEBfRNcJp2SFwgbtM8WJlxTqzsIdFpeOL2ePUMj+vlQHAlJTgQ92jdRvHZg+i79oiUuOzBGCnvfnu4wQPzByUm+D5wYP7f2IWljcStdAQNR5eoDfcynpGJiYlrmIyoAAA9Li91fKOklwAAAABJRU5ErkJggg==;aspect=fixed;" vertex="1" parent="1">
          <mxGeometry x="484" y="316" width="12.22" height="12.61" as="geometry" />
        </mxCell>
        <mxCell id="JpfB7zD26m4SBqy2sYj4-25" value="&lt;font style=&quot;font-size: 9px;&quot;&gt;Postgres&lt;/font&gt;" style="strokeWidth=2;html=1;shape=mxgraph.flowchart.database;whiteSpace=wrap;fillColor=#dae8fc;strokeColor=#6c8ebf;" vertex="1" parent="1">
          <mxGeometry x="400" y="374" width="40" height="40" as="geometry" />
        </mxCell>
        <mxCell id="JpfB7zD26m4SBqy2sYj4-26" value="" style="shape=image;verticalLabelPosition=bottom;labelBackgroundColor=default;verticalAlign=top;imageAspect=0;image=data:image/png,iVBORw0KGgoAAAANSUhEUgAAAfAAAAIACAMAAABKCM5QAAAABGdBTUEAALGPC/xhBQAAAAFzUkdCAK7OHOkAAAMAUExURUdwTAAAAAAAAAAAAAAAAAAAAAAAAAAAAAAAAAAAAAAAAAAAAAAAAAAAAAAAAAAAAAAAAAAAAAAAAAAAAAAAAAAAAAAAAAAAAAAAAAAAAAAAAAAAAAAAAAAAAAAAAAAAAAAAAAAAAAAAAAAAAAAAAAAAAAAAAAAAAAAAAAAAAAAAAAAAAAAAAAAAAAAAAAAAAAAAAAAAAAAAAAAAAAAAAAAAAAAAAAAAAAAAAAAAAAAAAAAAAAAAAAAAAAAAAAAAAAAAAP///zNnkTVokjhrlP7+/vr7/P7+//b4+jxulv39/e7y9kR0mkFxmeXs8Ul4nc7b5Y2rwgQEBDRokZWwxn+gupKuxeLq8PL1+LXI112HqLLG1m2SsGmQr+nv86K6zQICAnSXtLvM2vn6/EJCQszZ5K7D01uFp8HS3tni6nGVs6m/0QwMDD5vl0V1m/z8/eDo7lmEpnmbt2GKqpu0yYmnwOvw9GSMrIGhvNDQ0MbU4MnX4lWBpHeatgcHB1B9oai+0Nzl7Ofu8qzB0u3x9aG5zPT09FlZWSQkJE17n1VVVRMTE9Hd5trk6zZpk1eCpL3O3Iemv6W8z9/f301NTdPe51FRUX2euYSjvRYWFlF+or/Q3Ud2nPH09x0dHZ+3y9TU1LjL2YWkvS4uLgkJCWaNrVN/oyoqKvHx8Z22yurq6tXf6Iypwfb29t7n7ZCsw6KionuduNvb22dnZ9bh6aioqPX3+W+UshAQEGFhYdfX1+fn5+Xl5ff394uLi15eXrDE1Tk5OXx8fO/v7zIyMjY2NsTT35ubmxkZGcjW4U57oM3NzZ+fn/v7+/f5+7q6ujpslbGxsWpqamRkZHFxcSEhIe/z9nR0dMTExIGBgZeXl0ZGRpizyF+IqY6OjsnJye3t7UpKSry8vISEhG5ubvP2+ZGRkScnJ0x5noiIiKurq+Pj426TsYaGhmeOrfn5+bS0tKWlpb+/v5SUlMbGxq6urkp4nnZ2dre3tz4+Pqqqqnl5ecLCwmCIqXh4eOXq7lhEXfoAAABAdFJOUwAQFdzqAQT4/vALVxkIk+FdQ0zm9K/PovwvJtNqnQZHK9jCmiB9xss0Yqc5ZbiPUD8cvXGzbXZUl3qHqoKEPIudhfo0AAAgAElEQVR42uxceVxNaR/XetukZVqkkBZ1W2hRSTNz77k31ERSMaXxipARlSlEorSYkDaFYVosmTRRSmpslaU3kXUaxmSnwUvyMhlen7f3M8Zn5jzPOffce59zzq2379/3nt/z/L7n+e3PGTCgH/RCeaBaD4Yq9Wuij/LrYKWj5eTuxrWzHKKgq8rh/QkVjqqiwhBLO66bh5OW9nC5flX1bshbqbtoOusrqvAogqPgaGKhZdNPfG/D0OGuFtyRqjxJoWhpMkZbvl+PvQEOOhbjTA15KKCrZzGsn3VZtuA6H9sp8hDD1MTaqF+1NEDN3GaYuq2Lhbu9m1kP3NzsP/UY62SrNUrbykheWdS/lQYbcwfx6IIu19q8z3g7OQejwe8x3FxejfFMRX60tYfBCIWPSDWuoqow0tns4zGuNhpKELKdnFV5dMPUXntorz1Mg3Vsx9pzHYfoqoLOjqM6SN+Rq2lhrD7anN4dqtmMMbEUmynDQY4mY9Wt1N4/RMOaq8hjCB/pafWy+F15sJaHgSV1BakojtTTdHEdrIZ8JUbWJqYq0plZR03jYR76KjxGwbGz7iWcy2k7GehzJNymiq6jm5OOESJzb247TpHXe8HRcx0o42RruGoiOQkcfQMXKfMUZW17BV6vh6qblez661FmiDWs6+wxSkOyAFHHQJXXRzBkjCyadvMxdhx69qur5zJaPMOmpG3SZ9j+I4QzGyxjJScXfXp3bDjS3pWqgXewkAFLntD08FRYblrtpSttv7158+Zd271Ll9Nyw06VNE2V7IEjdGSm3yZn7chM/Grqpi6adG09FfZo3noy79Ldlu6zOal8YqTm3Hx5veF42FUxqTe1lYnk3IbLYdSf2euQJG4DbYewQvSsdbevvOiu+54vFrxzWl/cC9sqhnNzUmOZ7YHW+sxr13DEWCuoeZNzYSEFW5fXUF14lC8FSu8cS19HtbXmwiblGu6s5biKBur4yFXOg+FAbVbJ8Qdv9/LR4FZ3Q9guSjt3Ysuwa2hyeGzC0NHpL10GtbES0Z2wqwcJs8T+3+Hbd++g4voDnv10NyxBtOxB1kr/h3S/9+gef6QrSra6VP8y9errtLb2553/rjvSeNTzvarPpZbmxL292NL+rvb2zvWiIrP0F3GefJqQ2nnpquhtazMemNuLQXdESVj6pWvXH7X+dLbu8a3U1NS9exsbS3MKb3Z1Pzrza1ttbv26XZJzruBuNWA0pUgiov7gi9bKc6KVfrSu9XpbbgksiE4IO0Yf2X+i8O5JUXtxZrRvrmxMzXdH1F/+V/XNUkouLK6zJ1N53SRZZUa05a6/97xSXKKe1VU33P7rirbWvkzlM4OcYyI457gzF71pU0h9tuZde1kpwVFIjfv9bm39YZRmf2p9Q5cUUfQPFxvCInoes/5gVySfSdQ1fEvuyl0Zct7jRGn44eWWSik3e6S1vfZkAgK21x//vVF63Ueeba9+xmccnnfSSHWg58AA31rkwXBE3pkjqPZ7rvDAvXppWO85lN783o1b7WQZuqox3fG6gzOZgr+90oX8HJyLu378oUQJV1r3OX4fgGf3z2QVdnrn36xJjvfhg29pC19LL7bVi1d4Lnlwi99nUFhLbOdUrWnMxbjERafbF+n2camtbyiTnntHNpjyvr90clTigqqqqgWJUUnJhySO+o5cIU5cnekaZ7cibDqub6tkRoF7O6+UiLblByvZJPnzxBUnCsoqQoJX+wgxPIQ+q4NDAv1SguZOHy+mkXsXQZiV0lOGsSUqtTw88z2TCn3ckk6Wte2695gdoiOjwrNjn8R7YRQh8F0WWJBZTj2qLL1CZNhV3JWR0z3UjMhZVjMfCEe+fUdw0KcePMKC4S4vCgjdk4FJBGF0YPaUiRTf9Vqior+lBmK+5UfABe185MmS5cx5EAZ69Lw6xtcxOyv4AiYtBJuKgyZTkRYXRmTWR6Od7Ia776YWTza95a2W3L8ZuZIuFhZxKPsVhga+gUFLRcvrJGitGDqhHGqBZmMJb1L5bGPv8w+cR7RTTrs9Z1atmJGyPyswNOTp06e7d39Rsyp/i993C4NOV80U30FFztiDoUJ0wAZRZ+joNYKA3QBZn3wY9C5Wbo44WhmfXD4lfEZ2wH6/srLYrOLiLWUBBWtOzF4xZWOylFaiseXn/3m225RitftTFsY+2SYkUbm/T3So35rTUeIQ71kUj4xybHHxP0XIziGoxFgiys9cYeH5+ucUdZG0cq1fzTay2FWwODokcFp25saJknL+Q3v9AdGv3IaULzvECKbiV8WEz6RO+TZ0lGM+WRsmkIo7AG/ZD0Iyy6wOu/CeR6HneX5uQWi8UKyNfpV/I2jzIRrKk5tvLBNKpPqQmJXU1uN9whch5djXMUmkKVo6vOymTQ/fh6tFbT850+8XCfMUzL+jJqAoEV0r8nxRhY9UIXR0WTgV0uekLEJJuSAknMzZPYcWIwy1pLbnEL7ryb2398riZun3m7Fp+doq6VkfH77EC4X2f7mxb4JIYT9mCTCkxzzlc5JqK9yTu0g56wDx323nyNn2Qbdj4X9ig6ZLQXeU3ySE0VRg+BxRAhN3I2Uc8yojtuyev0JbC+5Slc/B+HwXiTn3nouS7Q+KXrVwoySRvPfsZaiXsmhJpijOi7ajFZkRGEUo6yY0JzeTvEduDo6uNcURip+IrAQB0fSTlAUTxKJ7ztpmelayfC75Qg7ForXrmKCCkPLGXGhCLmllXQ6cXdtJmO0mB0zC6IXPqnmTKdOdspi+hXTEkKdr+zYhFpixhUig511YdZ0rGePKdsCTwohm76O2CDEm0By7Yg4FYz7Pl95lCGpII+jIGNTaEAYQ5QndsGh9nESMfwoW1wiGPzeG+mOM4ULN2iRyvk/vYeLVyyZL1RLnI49kThC8YnWwoTeuBH7cFXhKOjw8n+gnwBhGdEwioa6TQhlahJcfiWWPvIFcKcFVBI4c1kEzEZtxIyBAT4dnxZm+GBtozoRb8xQv5taQEVhOTPkG5EGjIBZuVJ4dhzCuKe7AA3B5Jw96vifXYOzgC6gvjwpmdhWCJcSUH8pHLu7VabioaxDGPcQjXBP//9cw/x1ZcIElvufDOi0T1jC/HEEFcWUoCL21yb8PlXQdEqwbi8O3DpCPwe5vTI9miW6sORmynB0hrKwlIyuZiPHyePSHfCVUUjVYdVMR4yqSHP56XhMs//5mEVt8+8BO1eZXbC3HK+Y8UTGqArkwfz9oLNUNjkVwPqFMuAG+nnoTEh5N82dLwRf2QXa8UIixh44iokO+JgO5sGBo/ekOyLiikaQGHVI/v/+UNe1mQEIX71iMXSwjShTnom8vLIJmKF3g4LoptQ/6qeE/Bn4PUkmNZk+3JyAR8ROMbWTsJ5jYSUKvKv9psCmot+AZd1SWpMRWD94imtzMnmZjwK0ujcZkAK9WEDjyL2nISmGd8tYEidLx4biZh8PgvMPGxeypdTnkDK3GZAP5O+Atjv3oRW2DtdA6wVidwl1DfM8EHFcsn8SeTjeBBZfpHZisYHE4/JAvRF99njQXNvgEhuo24kZsaeCB8mVPoxfAylbUdkyGEAgvf36DviQkDILIaQdHWUUMLyub4j7WAtyz/mwbi/qcB2xxZgcmU/h6A7y0jt4q+qdA5PwGXicWcUkU9/PfgYB4PovaXAWW1+IxGUNGDLSRmUiDIZoGiRfSxHPjQ3EpWS5Qrw5lUZcdQGx6/itM9vAUWmulI7MpBt+to/XAtDrZ1VIn3P0xIEJPYVGRAsBaRoZgsojtsICKv5SGwYxAkPFSYLSRS/J1ZFwR/Rr+aSsFLOrxO2Bz+ZhsQvAPGOOfbUIvKR8swRQCJTfiSN0Y91km/LcdknzYtJSesmRuRGAJrJ/yIw0FogrwjL8EvvVEGKLjPHgL3oEvY1GFXkkyZW5EIRo2ebeDhjO+BRTTgGd8GNFX93BNcLy5WMimBoEkhFVzQ6EIsxl2xmlIKvzAVhL+GpIlAeG4uaaL+DjTi0X97cG3gccHY7INIaxnmkxDFaMAvECNv08M/yLIJ3//0Sm8Qd/NpvqASY9iTNYBrYwk0VAomgHeIMd/lhVK+H/Ju/rgqKorHiqIRcWB2s5U21IVrdShWLXT1ilD9u3mO0vAJLAhLJBAdvPhhhAIiXyTLNhMIR9rqQiJNFHDxKTZiTJJp0WkraVDrDEVmqpNbCsdS2uAWlurI3Q6kITsOfe+u/veu+/d9x7nz928l93723fv+fid30Gyuf9EN/GJXDwi5dIiWcAaKTmYMv4nUR1Zp/sE9RHTdHhvgmWyZzDlQeSRmYI54EG3FQCXtlL094r4U8MCBP3iT+gRv5sC+HfZVbKwyIUjNsdiyRrmpdAiNvNnY50lkns/QoMjKLPQoTbX04iHXi2SM0Z4bLmSVWw9hVjcwp8OeAlvJa9GTb7MgH/wd3SDcjN5bCsClgFc8lNYETpkjKqinOLTo1BVtyHZniOZAtesF38Zr2Qhqx8kEdchxKjBVHVUFyfS6FB972V0+VaRS3bEih56BOJpZGqE/0/WhUhPF1AsjjW9boRvv4liCaeJHvD+DGsBLq0jKYce/gmY9SgGfJHtp38eamKbKcuBH/AsyWq2jCQ+lfF3QxDn6V1mBWUa1Gs6h6JekS76CM7wuiwHuFRJFs9OcN8026D6zGtQHGLqNNaO/r6JnincWJQnWdBGyI6wdu7/BHWkILlGKNMI55l8glwMkUm25WidTkqWtG5C/CmpWOel+g3jEL8e+ugfIpKtyJXCVcZl1gRcCpMNUrwdtzoYDjwBAZ8bCfj9cEjR8+bJY+IH/KBkVQuRHTy82eooFoezLCfL95P9ArHvRMZki9A+WG9ZwJ0HCcSP6/t0oHx6JHsVavAdMw91bB1aonzJujZwRG8WZgrkKJ2DgM+MGGID30GzYkRy/VGrScIWCwMuNRFDTXo490HCiOZjWaVlGJT9HjXrCVyiAKou5kiWNj8Rjh/hqxABy8jvI/G2CcDhVLI34GdaKXCFKtD61FsbcKmb2NQPcb1/Obz5o3JUxjtY5EWR3TyoWXSzZHUjXPUErtTvLfDmr8DhZjJH+CoooRsU6KOfR6szYnnA64gupGqeSXVXKiPXdsPN44DPA6+/Yh7uYj5SIsi0POBSKeG4cV1gWCP9AzzEb6NH4adNk7puQp0Q+yUbWCXRDcazIxIqXL0nk02/k3GEJwnMow+hZjyXHQCXshw6ErZgGPsPCPj4zKMpUDn557CRXeDSLLVM76ASyzyp46YOn5GL9ED8NlYULrCfbBlalwP2AFwqJShP/FQOW6F6PgR8AbWH8HHTkNlQk/UiyS62nKC/cDusiqE4AD3zsoCRSBd4hGeihtts2wAulehGhqiEREZ6hxlUZnsX/vbErcp61Oo0YB/AXVh9bC0vORA/vC/UZnxgDHCo8/G8WRjB6DGokWxky3BsVsDpxtvhbX9Ay61OgtLo8IolwtbEGTRPhpe/EYqxnJTVS1kUiNtHAb8PvPhHs/R4eFEGMtNWgNftxRpPfNQWAvCucMbVdaOAz2Hl2cT5bD7z1OwM2dT5ZBlS4E0P06on88GLb8PfnTgfPc0e3EVZwx3QiX06AP4MjdUGhR8uQra8WbIuS+2GtzSAJ1k0cLlrDIBDKZ+j4IKQsPUY0pMnYArzYr+NR2XcxQL8s6OAA0r6NtiRJm6UCJLZ9NsPcAmrPHVkcgf8MAXwaeC1w/pV7hSZO9UkvoSO1tTDX3TBzQJ8dEv/KnjtL/ACYcMlyk2kIKWb4WaUpdoZjU2ssGwU8FngtRdhU1mdqLXItaaGj8JgHA8uadR8yz5W4uVzFEn8M7AzV1hQBtNs/QO2BJwom23UXDXbwkqtjiZe7mbo6QpjiaKGkxOSTQ0r6nVyjma3UVKrcJDw6+bg/Yd5b3UmtS0o3xbUupXBWO81WB79GiXv8pg5wnA0DqrNroATU3sWa7wflCj9M031405G3kVUrSyz2f5B2ZhX3c9XXKWV1SH+EKXr5IIpSCZttuooY9ohvo46pMQ+Rht+AugPPzVH3gWp/FfZGHA3kvRaqK3RZyVLyOk7VwCfyqCsihriiqLwszYGnKCpa0u3HWfx0h8mM6tIM1uUAl6ZObIBhlgAabEWcYzz3qbw0m9iyTcJ0rBNv3aOcMojrmnwBCTSvEWZUQi6EFahSYSCGkfzHCYp2RnziHs4yhZB2sgbFM2PLzK6EFYLWoJd9i+NRhoiNCbUqr9VXRJL1ec+crLNKTh0SdAKwOarZKfNAU/v58ZuOwvv9GsI+GyyWPZXU3hLabpQts1riIHfrD75MswqlsXfTIoB/M8MnaNNtmwaZVhtAi+OOqQRrF1FIbzcyJguu0/M919uIm1+Y6yBVxvKEpaK0+2U1tEzZthMs0zCujHOKpHcpGrGMqzF/Due0lo2hzHaRhDgUNmlJ9P+gKPw2TGk9j5wGtAHtG5hOEH6HTMAXmbTtnCGoeKBam8Zct3P0PSzIeDvmQDwFOjC7LgWAE9BBNZL6m7jhHyKUzSJF9YTLobh5LehdJPCw1ct8wRRGNfQRgybD/ByO7cJyxniolWru0svMwyfHRVwMdMmUJOR+5oAHIuMqksnQyrgSzAMnzqFAvgxEwCec63Qm1ixqDo/HVbDfwwf8DviKICbISzrsJmeLrJ0f29V+FBJbn5DYeHB/Bzfjvbw/rzKA4iY3aHq3rAh7z80RhuKw82QafOYRSeOtzUVD+XvJQeYUS3BrX3p0ECEb9BE2n4Jh7AIeQLUUPMDtX7vyMjI8ufqm8ypz1manbPQocTUNFchgZeXIeBfog1D+K94zS6k1tXL/OPM7XlZOQXVIPxMK/B1XqozE9q1SzqSHApNTcnIy1JLH4vK4r7NKI9Wi1id7lh7EErzVi7qkVuv5JNhk1Af68oLFKOt0n+CTnrCsxDwz4wCPpNBgAiKWCBY8Emg79ApxSVd0ZYsaVFrinC4U8IrHKpMDfkExjcvxFPHlt3PoDj1iFiikqibzNmKzWtjWzVPe7rYp7szzaHWVBBId4Ib/I4+Xfhe8CokMSaKWKRCdukkY3GHkmXrbxfYaVzZ5VBvyqvCaP4FKp3cNQY4FIBYA/+piMUqYkh/pmQXJChduIWiRjoMlCRpwFtFA6WfOVz4W2OAz2bNOxHRiDAo66z6fT2qli5HyFHepuXxViWJWMWS+xh30tFEo+8LbzVyyXDSXd37VK9dl4B5hr3J2vBu1ur97IZ4x08aHyQNXn1UeDNhLTX/4M7aqGX1ks8b/TX2J2jD27FCa076TYj3LVeHlsHJ4T8RXYteRlHcbAppfFwciQarAlU4tFqa8r0xkTXR6KGrgF8HXn8BXLTBeMBHiMbRjJJEzcvnSDXUdctO0vyBm7U+Kiix+r04+gyri7rOt45lreDHdqWHOMB9OT4bNu47nI+SJhjcWXAwx1cSCpXU5OZv2tM1SNn/PVp3FajJFz/vKuBfB69/ILo+CtODyVk9Dk6WVmvUV/hoUDb5V5YT7j1AJg+dpet6Gxs0Ztpgnm03ZD/EfzOOPpbwnOheo13qz2kPu/RYZFAdzblI5hd3fKs79r1NOfGjjDWybPLEZOEHzaXE6FO8V3f4lpSvz0i53HLodNeer6jZk8ivAMXLYUvM8UbriWzV9qy5od9wDAI+dwLweawJGH2GA56vBOwyX3ebk1ZaaaFhzndys5w1UQ6h5F2lSg+zLsWBPzPPNn8C8HtZmRfjA/FNsYLtaelmrGL6EGXdu4zYsFooqb7SWC7coI1tdIjJWJ05ATgcavTIWsHiC7Hl04Kh56KBl55LXmaAouMWIiILxvjU7NBGIIWew9F4ajGcknl5QjCjLIYMdE+uNyaNgDwP4TfpL1pDHElHmiILKsPZG3wt+Tkl4eUB9taQrzTtspql33RLBN5oBMbrgonK1dHg3lcVcy2kjbjZkN4ffzt+wAsmPu26DR0RBczUQjS3BzYCKp3Lh5hhp2mSfHG0ITcfCiY5DbJdcl+9osQ8Rjyod2iGhRWLxvF2ZhcRTiQ8MCF9Qek00jBT7OPBSMDnM1htSYZXxFlZ841ZzEDWlV7qRnt9Pb6dzmKiTlTj8YwT64Z30vK9YEC2R5P3BHkjux+hyPmM2xxWXGa4gpJ8VrK6Uf7xdHpDe67sDUlp+3Ir/BOwo0Y1vZnXWPG+dfxj0L9Wa+TxDt9SmPt3eliam1OvjwQcjqJ8Gv7fJw3GO1MW7iqGW563FCWrj5+Xi5L0LfHvQP7GmJhBvczPOFLNBAkKK0z9o8rJW3Q+G40CEb9b01Gi1VwyaclO1uHbTrli51Z6HkTfAWhoiImXnT5MdMtvDk2ajvA1smmXyzYZvPkqP1lAXoAn7mKGU14ZZncGJZ+hb3mgVkY2tZD+CYEn3gi/skKhE5ivuoAo6bMg4Pcw6mVGN58MUNalsE9dNjZ4hQcY6DHOKymX0TII07ct4IKGtKx7XTKL7XLDJAj4XeDdT6Ej6RL9hG+M6r7I8pYXDlDO1bCOnx6qlade5SEGaAStVC/DzVaYAEFROGIofwHijeplPxTqptfhZWmJ3kbZIOvYX+lErIevbdLx0xfIsQkqE9kuOpFiVJh3yWIe4dMR4LNY5RODp2AgL311LP++VRbwQkpGI1nHCspGWYJY8Wr8fKMxD074k1is5Zf20rNybBcaNX0VdNONHtQOv3dMwy9SmuUAP0Fz4vUTjXHBvOoIiJtgt/AKXKrt09ItHIBh37/YR3jclFsZbrrR2fRmFfuLLEd0dCrTsJqOc1WJdFZkNdA+4VglhgJRUjbK+k7y4MWf0iQ35d303wrtIK1WkWB0bpYpq6XTXFj9BixABc1+HFm5Owsub+ypHVmU+ninFqpRDTORPp0A/Mvg/dNaW140GRShzIrtonS6ukIVtQ6lX6RZHJWz4jxb3+eKATOFnxF+/V+tYh/h2E1fQ88WGWQFqjyIPlpVNUQvYSXpVhR/kt34quB7Fyq69oCDVQsnjvC4uBngD54yLm6NWvWJeW74R3sJvCeywnA+o0O3vqNGiscYqwU1uMrIhzlFmzjKyqYfZTTs6m45KnkfAzXQRQ4Wy3rAuv2EK9QvXMChPDq5aieYdLaHScBRNv1jbfRJbVaiOkuyPmJX7IHZd48xXpsGwP0aQscBGOP/DNHZZlAAf4ChzpdgLAcCnrd7FF3rD+28zCFKO1iFjunNxvyE4ZbeoCELr8hThr6i4x2I961foQC+gCH04hg2FHCo6aN46ooro5bik+0ypj6wX73jlaWhsczHzKvOpeCN1Pn+xsz5/p+6aw2uqrrCFzEIKKWtyKvWEcV2OhWn2FYrtcw9N7l5vyAgQd4wvCpJeBUoIBogYYIkanjYSiOCji2CUtoAllZKH/KqRFpbp6NQsZYpygyotbTO1Jk2ESzrO/vss/c+e+1zXT/h3pNzzzp777W+9a1vMdvDHJy6uYIeZAa717wxj3KqW7XQaAro1i+T0NkuWj8ZuDrNqcMfidhDqQKBcU0rHmu+O001P/6B7ALiTcn+Iod3ISOGk38Wl/GdGD2QCu1ctOKUOEG3bCfMMcrl5n3586VJWc+E0HpLBmHUOC2Jn4X+cA44h6s+QNO/PI17b0qblygp/Tl9SDQzPARc/ZmbI09hldiSx18RVT9FLWKkUICG0hqMkNQZMFxGv/p6MrCp7FK7VjZF3GnUttQn+WHDaGmCbUx2kSkovdC8aRd+2q+BoNxd7HBKVZ74THzCHw1RyoSBNs5NSbzVtA5L04i0Tq2MnlYooTxI7O9E977kY+/HF7VVszCsytzQeCabpjfDjMO9Yqq3uTYp1l/02eckDWaFLrG2Kp61uNsJ236+KUxYZ5yGw4g7EOu6MMlIYH3Ix37pihQkCHx4irPrI/XiqtpOyp5TH3w+xrjOtlgKsw0I8jeUxH/oRWHURTMJLyyCjXHSYTaHPjf1TldaFB6jsSFSNtvJieGVso9sqAxrc1ohzY3SUxdooAbGdO9NuYaI3hpT9SEKTHovJiVdo7Ko7b341LvoaTuXBcBj4221GqY3z5oW7IGTvw7EurICHQ5R2z4W+EPJWli6Vx90gyXRwtUo5e8tMAQ+qmgp/EfLxKL44Vjb6vjEnIpYEqiq4D5dmwYxcxn3tgZCpbvUYDYB1vYnx9IogS+7NT3nUwLCOjtOqLw/0WR6j2mMDuJs3a6TOJzKtSWfdtaPhbacB9ZtdKJOVdFiRKZqMmRZltAXpf5JiZQP2nW0Qvp7Wpau+MQ7fIabtnf6Z4oUn1uBIe6xRb6jXylzeOKLkpmUtiBtFSvlkdKjTcPbuO5+h1FwWGUYUgKOvkGtcHLBPiXrRlj0iXf4johaxWbQiyKTocTM4T9IS8lN10j9Dby2WYVx0ZxKebQ/Kd8snc109xVFJpBelRltFCqj78KO/mm5w/vTTz8ejT2acWf4PEcdc6AapabKD0InqqrPFObx3oAdvZPc4VlUc/UgXRFVzhw+nictg/4rtsFWI026XLKNKkaQA54cHjTWJsAGyWhO7loKF/AEDyWO+suK0ybRYa6JGgDIfB7U29ETiTtl5HR30AsP0pbKLnQCtWEdRHFPrzRA2rKXSyujITG6T+oleZJcbYkzh9PfvpPpRdrCdv93eQaYnkngArStMxO1YvR2pfyu5AvvmBbzI1ob00p81gm26gsW1MLdWoObgwEAb8GOfnuowxMDJHpt7uS7aiKI28is3LTkrGu1BuKu5frd4cdAKBrmlHXrEe5wWjD7wJUUjjRgtVene8gVsHDc029z2agPwQP14buwwPuE+ztxM/nGk+ec0MBCMAh7g4hGO1L2wWypSIVzPE2/VrVEOgIB5VWFRmfHJ193A0aCVXMxFaaZN29rWqO+8vkmbV54A+X+Hf0+cF26KDgcoJd9JvlFZGvgAkianXHUwakAACAASURBVBV87/K0OajbtXnp0EL4TjJMqktkXyPf2RCLBudSrteszrx5W9NO08VXqMB70e48wSR8tTJ78VK7g3zngXQcDUdsmDeNpdZz/oap2qDVQl1qFAg3noRCWWclfye+Qr+115CRF8nGsrQLp7A+2sr5GxbR3zA+HMMAxYIPNXMO7x+wwG9Sc3iPKyT1E92hDIZGy5i59i683UkrQocV5OuGbcc0OZbFNdIWwq4D1RwOoqvQcDTXicPp6njF3oUfdihGBiCYggBBi16rzzB5En6Dor9BzekxL4pmu5WddxTXCud1OBzJCgyxRj2wBgZ2/g0c/iVVh382KZlD6kahr46LezbMJaMDHBJOkj2ghRLAC/X8AyDN1l3V4VA/+XEMusrTuNLlHe7OcN+Wmx/KH1mhFVJulnOb+iSUjTYcvawPGVmGvC0ioCPcRempVMkUTeILBWtaQtDIGmklXCi2GWDfkI0/cTJbmtaN7rd3YYd5uA+595aHQSkgHVig8e56PwF/98xSd/iV9Ktn3B/is7mINsedIW3tBmp5oSnOPA1EGVG2f5kl4R02OCkZWudVO3B4JRcxxR2W3mEwTC3sCCnTqArvoZ89B3WTroM1HJ7oLDvEHWTiOVGG+0htv7NqWYcBezWMBZpdo/6iH5A3GA3S8TeQIOAQd9COcFoXYzSMBtkrAzkr9cCXUmXVoQZa4/A+0Oc2BfafwCHuAE6fx1aTnepEbjUoZgilOk1Vzk7ovEufHr5SJTzwEIdM/LxjKN1i7QQkSflp18WQmU3WCeslMWVBpRxlG5LQs86ydgT+mvgwLiidq2dNNWjw0o9KP71VdS+lNQGv/jnDuon4EAcliDHsT6mZTQOyzXX8uZTyIELCBtrq3Rb4uQqYSf8qLPBbNf2Nh/haJzLEQaHVDIs7rKNWo0sMxsTXnNbItQJllIAv4D0RKWTzH+IHHQsDzOQq0E131EwYXOKQ/5o5ivcHqi7/AX9f3UXX4XCIr3LMTq/kmjA2yY2ANjGq9+nllqnvQEFp+6N5ci7bt7T9nbhRNqZwBvMjKmFT16Ll8N0u/I1qgNJiREWukv7TPdBQNjwKyiaE06kwAOe0dcHGZlE/b0IMtf2KWo0lvlxlbysB8hQMjg7vCU+EzqX8C1cniMrGa1EB8oCxXnEE26mxxFtVet9GyJkPSv0mITXxN4xUauyk4TY33lKusqsUIR8FS/y86hu5XwmvRQ2AzlkmDqdyTrPOmYq+R994LfKQCvJiaY0EwrKsGjFGIVgCZU/sGBUPpdMltlFh5ULe8HY018Z7dzzisU0wyb6mQRFyWqMCurwE/u7VycjhnfrKJPp4eU6Luapzi1wXBYQAmqwqMiJ8c8OoH2SbgmaUabLTX9ABCKPaNq7RJPfHkJV1LHFgp6QDERU6i3q56CPl8jpZ8npDh1N1n4knHaKrs7lwl1aXkYjs2A1kXtAG/1OCT3wIl3o5EvMhuMVsl+kgDwNjUuVLHatxT8cUn+KB2ALNSAtD6wzez5dpqKNLrUsvWYl0B+fjKWIZh+CDtR1Kx/oC9SA9LBBl8iNcT+VJZxAmB2SZOhz6xA+p3TADlD7X2nV3ONylcInPVmO3LQwD+4H5XI+gy7XG/k58XYau5hYwPp1TTFD64pg0yERwW2uFSuLoAxkbCuUj6bp1N3c46OzuY2OS+qyFZ4XntMWkMtgBtwGiHvAeTw+hhNMeLO/oYxGpTcR6yrTTObtIV/IctePiG+EiSJ9HNRk4vCxX3k/W96ooDqcl0mX14SkiC+JtjXhWF5dS8EcGdXHx7wpxeHMI06VPFH8nbk9KBqBwhjx09xth67K0+zr3mGOHnwVnFVWFn+HQqltMDyXv3wi69IvkcEBXf+rx+CEMS2q2dNUjXoxHeLsdBo+LIMR50qANpLK9X9kCXYToKkhBMOJUVILS1szTHSYCxzZtDqTQbWWhcQZl5JfsllPZdDqEFQS8IDFL8ykDTGNp8VxvIHdr16CDX8T3pkhbHv3PrfD918DfvSP6G8fWveWqH+E4R3hYlueYay04VCDGTvvjINp9mC9d4L9Lak0oU1HhvFymrDzZEQ6ZzuHY0VfE4HCo1ol6C4dJpG3xBN+ATJcuUR2e6COrmO1mozKe5cgHauMhP9AoG9ao/y42BdfDi/PlKl1RUNUA7uq7jhLZ8579ARiQ4FbmxOFwpB96tQjvjgkOXwBG8JHRL+8R3eGQmEE/AhsHsKJNfzRAmDW77o8T2rHx4LUt0tRts2SB74XpJsk7EhbsBnLJ5446AtsoUaHcBo7ekgE7esovCbESilCzAyEIaAj3VmHZpJMNh98mozLyZTa0x7bNwvb7iMGAApYaykwp+gKaH5eIb1a3hSzwITb8jeMR/uio/ADdz/OiX3GNo9NIt4ID6MuRQK7oPSELvNdlVhwOTYWg9jKT66lMt/1iPejFNJ3Jb4tl6Mu3g/KThpqQBX6LHX9DPwKAbd5ppofS1GZZPw/KyI3x+Tu1tFCCvtAoPv3/+s7okAV+xVWWHP4Zet03HfUNL7GL4pa0xTONS+XlI2JxlKFYGgjDPz7REhndT2XsJqOnl3M9lBGeVeIqDJyZUhKnw6vzg+lt4wM6jQ6EgGx9B9pyeOKb9Mq/cFNAOWG1lIl9AKNTsRpKeW0LQpw+7tlEFQkfyHajNX+j2surdpdeYPbyCn2xyiJdDTRrbQr9WUFfJgUkj5MCcgxvHd8CR7DtNc+NWOlom2wLTcVT5+hLY4UQWP14vgzS4d7HBf75hEW7lVx6+G9oawTXaQiaAKVRKMW4IY6M2+HZMLXwIgW4YqUQycyGyQo+mU2bCzyR+KpUlZGreyMn3x4reiOgbDlxO9yHvpQL4YeLoQb2nr7EeIL/zwYmZZMKXe3pEWgvKHk0PxW/HRZKsG4VLqaqIvjwC5iDD7bq8ERvOm6YspVruPb0sYrdd+G2AgQ3qjPA4dOF+oyzhe3ryHt4O2k0YVTdbqKXf9vNgZgNoayxDgSCLvtTmWBAb8ttj8+AonxBY+o0yPMe/TsXyBZQQFnlaE+HwbnGFRQAXZy2EErOGQBYJ/jrI3ViUBVlVa2h6EEFlFnPu4nTywqtnOI4GuRwKpWJSzy/OHWsUvSG3w2b/zOHmMpkl9gQ+hf+Se/ge44eiaGuzCS9IRTODOffTPANp60QYi5v4gK/07q/ka28ylEHBz6SUqPeoKmZUyejBjT5KedrPQGxC9/Xp2exEF2kbaSwp6fZol7wlbfJ5KzMNNAlEO9tFGVqOSgV8gdc4Lcx+Dtxi3RPZ6s1YvddoQGlCphgK3MyxuFY0fFE5BKss+wdjkLZPTgc/mX6R1YHFXu4l3ittruaVsbaEy6170gd3tFMfLotpGqSvJnD34msq2XYi3cf1yOZh0+hWfcKMGEgtziDHI6SqTRq7+glngz/+h76e0AXFocj0WmXq2UDElVe3h7NC0zOqEI42HaJw1cIz7TfJqOOulC0ofTPrKP3MZvtkdwH3Xde5RE9lC3XOv3V5hIPPsXT7btmE1bJXkR/f4HJ37inL6M1Uu8E2zPB9hqvVks9CujOtanMspGBDn9ItAPUI+aSHMrlcIzTD6orvkezAt8imKFTGd/mUE3QBAVsDHJ4O426+JQnH3yQvIbN3xing6JTC18fxx7fs9AQV34KjsDqDHO475Am7EUYceetRZHNvv35HA54+sQzzkTbRvueRp3pgXAglXE2WejvvPYFvjAvhKlqvSwqw9NBpW8j3yMpWeB7HqpZAVZY7808h5flixy+WRSx/RX93e0yTof3o3/sCZD4Z8xvx+X5HogixjouI1rC/0vdlUdFceThIR7g84o+gz7dKD6zu7obNSbubtZk384wnKOICiog+EAFFFBQFESRwxOVEDwQUDxRQUIQURAwovG+MBA0KKhgUNZrUaOiZtW3IQ8iXVdXd1fXTH5/6jDdVd9U1e/4fl9JD83smkIRsJO8NINLUhV36Q3Yc6RmK8cyeEr89DJOgyUmiLe1PkmH/D2vBHNsoKiqtmtfdQEHFJ0q+RWhEuIRXg1FdFbmwCt4VGK7wVSDrqBpbGDLYVYhcwUfMS6jhVBNO5hfO2YaIgcZK56BmcMrPaTM9qLS6IvAfyvilnPBqPRpX3DcL0PtYMTdRCODTdyUI5Vt6mCJSGcInwl6qldAvC0Gqg74H4g0iNuqKpcmo3zZGLITNlP4K7G/Y6KAWze6gSNbCsaiwekSek06W3X/8I9DBvTsOeDff393oHz9dDNzYcnsOE9mgSsK8ZzXEvKWvtYmaz46MYM8tg5opuqwof8a3lV49lr06dJdpnv3HrGtcIy6kxKILDEEEhiU0zlR7xhYjAje3xSKhmTtrTqOGNxWi7YOn8pSWR6qJbWKq3z5uos7cipGrsFldR2FdG47JxMGPCGJDDgo96Bt02rNmg3s+Plnfcy1ZBss48xvD/yAIrjq5OjRWUhdSDI6Jl+kw/TWm6I5jyThDfWSabt3fqf3wO6D/tnlPcsOWjqz6Ck9MdeFKOnkprLgvN4dMx8T1ziKZ132mTTg1g0GPN6H42D0tDKsbXeF6dXVh/leA6ZfgpuS24FQGkAvXDN2M00bcEBUl3gzmWyz+FzqnWaWRKaT+n321/CzknNNSGn1+D3t6OiqYIt+zzgtM+spkQL3CbEqrn7u0iWedNSFuadE6jFx3HyTB7wMQ4aw/VbL0P4ibY2/A/iCxZwpgoGiAevFA+5zUwJCZ28Upq/sZ5k84Nbn3JAjqtIyNYmdh58RKyhqk4D36OTaV9a/A3tgj3jz+4VsAde+KwnwfmS3TV2a/1jZeLO8glxF24p48/WM8db2kKQH064rUfAlTE2KwXh7+YDvKov0OujpMcqk8XZcBNeI8rXM7WMlahBgti1ZvekIMMjHWxdi25yYm55tojWUBJ/EqfB716bKxnVcFM67HyoF8GFC1TbteV6RWfhUHSOLn19mcnA7XUO3HR26KR3puFVX82vuNx22y4vL36TDH+jTTkEFpQjcO1WakS9v69iZ21bT2tsd5zrg06ovJSzqjBUlPwFFTN15iOyq7afAbYvK4sIEXolYAOWH5UNesDfBdPAOmEx8123P40Sh9o5b/yb3PGZCyguV9C+Abhugp22/W40pGTURHsb/tFuqFEB+YKOJwG3jJ/6y6y7sPxmERHp1+vpbNx4VkyciAkC8lyTRCIDMeKZUfVGsmTPgQZT8+vC7tbIRd/AxCbxHJdG+8KGn96rqKr+vKDpSVHGrsq4+91HNOspf/CMlPadgtg1IqNs5s18DC+EhnG7h3VScl4u4fbYJ4J0WouNhG5Ro8fYkR2ZrmSfQt8MDuNfqQoD0knUyp8H4tEanWC54g7eU9lfSV6h9BWyVrKklCP7Pd0Bb3cm6CFnzMM/IeOsX6jiZUL2xlzSS25+JarustWth2rauBuHApK56UvNQ6jTYHjQu4Ht44a3bL5wtKyV3JHjnAVEuU65BMpxQLV6Ni0PTV1x9/CpvuYSIfKUx8fYwcAP8hpKL5fsK5SC0+1U8Gr2C4frRFtEExOoK6rSb3ogb+gFueINFVonSMEBCPeoQIA/Abon7wymo2v+Ip5yirlDPhBFFIZLRb/TFnuuhi1kDXqKoLw2MzJ7L7N8W5wTACbblJylyjLmoMQejw3Fnoy1wREQWfCrl13tOnNzVPcOlij+9L/zzICB/68bIUR8FT8nDagq8LyFyqa53rMsa/Arg/5lkLMADoFf5wfVtjj+c7X6fruQM12isLIj5VUZ8gzI4CWW7ggLvafBaTmouijpmb4Y694yVYz0FNb0LjkKXgCS56BqgunoeMEWSxWEGAxldwDF2YFGN0k+Hh3KJAu/LcLp1wduC6CyoV9NINySMAq8ghXmWHn5uUrG2O+C35vpeWx1Z/6mXZIFW4EZS7V3gASx0vJaIuh5ohw3OwSxsTcSxAX9HRrqXMoUmCWRz0I/WfwsOSZy7aHfCLwtlLfR/x4HqiaX0tiMg+ZIKLPHgc4onZAI8plyaovAF6M9mCKMGG3CrNE5OHVAVxcsinUsOjC8gVYFiTwVmH4xuqfc6LYA/8kb5tVf/EFniU5TOxxw44fIdDSP/e+jPFqcBX9142wQorS7C3dogkgFKCx/vGrj9bFLOxMlhSycvDomNPzvFb9nYZK9IYH/yH42oqEcpITk1l8X7A6d4JvAQhaqm4TCf73wQBd4vSyH/HL7UBrz4zRiRWaTwFbYz+hmNRWhlPAQlec3liAQMAr7kKugXK3rx3bC3kkfD54vLgjzWBwh3MNb4bSlA1sWTyZc6I4sxt6D2E1n3igPMlyDQN1bSrjkL3pey4ijwTs2jy6TtM34oLtQiu8iE3z0f6dRDEsySo3Ck5AvYhaILc5T94mVfyUuwrYYddHT3k43wsuocIwC+ibkeyUZfNAsyShlrFVtCiQLkVyVIooI77iY45qBpwNiyDWauYVaOkEdmMIJE4wzGrBHHrXZIvK/Ano9cgbe/Ad9zBARJLp9xrWgqGGnVWbAgSCPmEYA8hAd/wIXt6zuUJqnGY5ivT2G8LdvJBLwzsMS9wQ3V10XWyyPufqmj2M5PI1KMDbhnrOTWMINDyMDSZ3uA013/ERHZdNPINfAUB9vF5Xm/Bw0UbgfkrdVlSip9AvPNX+HJieEW0zAGl5PJj0J0iMtX6usLOOracpBPIqMre7aD5ISLd/VjJF2XFNsKU1f8b69zFr6qggKOJ14k4SpK6EWJ5vaHYBQMksqky6inwWdRBDHhEnWzKgvTakBqIRN6OHO4A35O+K5ymVZlKXja6/INijsJoVi8v0iCVfJMOh6QwmjyPvn8xde48S4l5c/ShJ/l35MQLXyBRllptXA/Qo69OAM1ZQovUQAz6kFgaOYmLWupT4TeOzMdDXbQtGMvMkklBaK8MyC0/MDYgEtf4Qm7YogtaReQ++KfFGqstwOKZuAllTrdQkmeOiyFX4pguHinF1VFBIsUC8l+71nhp/lfMX1H+AISI9joHYkFxOHXrkKukq6dlCosfwR+5QslJMH54gF46oaSVxQ0ZAP5ehNP4OPh/OkPAH+Amvdp8zp7SpjY8F+cQUuuWmkU23CQbgKiYaAvm+2CV+1dgX9WXV9MyfsgH8qzQG7ka+6Ap4E1vaOeYjIFLnc897rHUlDZa4vQp6D5RwxE1Hv3Ekmp6xbT0p2iN8NxZKt9/ObjTOr2ggaypwDVlPy5Az4b8StNCkwJd4Z58jaN132y126KvUg5+nxMWdG8n4aFdQEP2BrwBXzpuP5OMEX16W95g9Sr39DzunJEolpYLOlL7oB7Yg+jsC98N22f5LfE7+ikKdN9Z4wukEZqK8bRes27M8FbYwaq+WZASRCqyoD+LNwG3/JTTa3/WsKQl4jsjfvgP+FPXB2vToNJZiUuSdWjm4aRgQlWeFOnatKEe0SPNweS3pcyJQw5R0xlJhSxNZ7jDrirGnCXVmFJIm3ZXZHSzhLc1F9B25T4TZVwxaR0WnPR86mEIYetEdNuidyM+LNG7oDHsIfb9md8E1b/DzTs7K+gePeW45A/0iAyfh8DLiD7Not+yCE7RAvbK5GsX/5KrInM8S5PJ2jxmWlY2gBwia+C817kSLdhKo6C/pK699duipd4kucOmuXNX8Urni3ahnsnSIK67ZnirTGD7laBa9MOpDW+C66QlXvjukjQibUF82naCaIxrH7+6vlM20Mz60mEvw7srzDsSNH9YYfPfT24iK2QUbX9/uA+h655xB93s4gjb7z1DKUArlQQy4mWalwyPhyiC0PHuM4epxOQAg/+0BbkZXioGsnZCf60Pf0BWL1D7py2NFZoRxwjs3kthqhyJe0w6GqdakRxIxG1Dm0QoveHWyiqNcTBLt209zq9oKKLqy32m7jLQHiwAPvhT5Vi3O2u3TTq2CCaHm3dZLiEFYlqg27pCb6M99CSYvZJC56dThGmjvsRHqA4BouoXy/eifO+mUYtgzZ1hOPWtMijBeOeuQxV5azD8WCbF/b2ef6SlVK9SMVjA3fA5ykB+/iPdTdp7klo002jnnWCPPVxj5Bz6/62euY8F9kpcQ/bvvSLI5A0QU7e22kJUVzfjjvgwsJ/3orc+3TRV1553SqaFpymHvARnTVq2lCYk4I5gSfG7Lse6e9zbQz6TL2y87dvuAHm0a7JUrd3SV5KnseL3AEXSrg03Ty4ZUPdM7xGbm3EoyeVGzKiJNx7YKVR2T6FnlkoRx5xWysRtv+CtERZZUwvUbWUAu6AC7uCTr+VKj6xvqiyrv50bv7P9/JzTz+5e+zWkZsnL++UKpLfZqhGdevcB2aLF0vGO+8MQQBOZ+suua7lNUb8obe5Az5alE6sxDp80lfDwXr3gBGXusbzBBTVEwjvNNFLAkvOkcDibWWbeePtImRJVzCF23yEmYaPdYQfXvhUEt7FACUZ6cosXhZKFTcneE5yoHvsSN6AzxI+v5ol3F06abjZEPj5O59JwLsGFFE9htuDT03YRU6HjprjvpnwwxL6/0uNnHfJYAj3MA1Ha/8xglNcQo33M8g3CSLURg057hMCNiICcqfQNUdz/s/euQdHVd1xfPMgu3mQF3kCgTzIJkASEiAhDxrvTg1KWhDS0KpVDBIFNEjwUQlCqqVNQqAUChOLFoyAQ8m0ggE6gEB4OYChCAIqyEh4jCgZB0hggMo45VFmz+/uPXd3s+exm/l9/+R1b86Hc+45v/P7fX+6D+rYAnvz/E408EnwfSpYfbvzgwxi5eWj8Rr1jt1wFmt1TbYbTC+auHDxi+vWL5kw4e1Zq9a/Om/xpi/sPqmzRNWMaaJo4P+EgRQ2uBOyAwzC1VurX/1FR7pUfFyu+VPsZ54oUNNy5589Jhc4rIBvZNFgMrrQIEWZRi076/N2res3UzzQS24y5l11Lw8IAv+DaODPwrIBl7/cwwMDDLI0wqT1Smtv61JYSnf0qL7CEveM76s1TvjCgUMPG9caRvsXBHoZZCpN+72WNVIpNH2pFzIs+5Yd78ZPNEM6Y0UDh6HePV2GbUrJz/QzyNYwytst69COtVywt0mtb2P09b5RorgF8IfhVU5Ll2DHpGQM8TK4hXKotnnn1bHWpv3lDvxsBy6xyPM7dIBm0CkauMoN4JbTE9unICczwOA+Gqbjbd3S2dF+dwtX1Na64cI+R3/E8lYXcRddX0t3ZBUN/AP4biecYO2bmJtd6GVwN6WZ9F+7YsGWMif/Vze4gnzG5tV6FryigcM6o2JHPIP9+6Tn5gWmuh/qB3t1o8Jc5ddndA132zcn9D2XRQOHdUbbyRdLDh+Yl5EUXRB5RwXRScH5eX1D+6dm9TO4uwb7sieuHLjh/A17UUfLGnsm26KBQx/Ia+SLFRo8VQP6dB1sVC/qb1386bYT/QeLbx9f6YCrumjgB2lF8IqS5bHADQGDuso7umesv94GoPzkZ44c1No31C5wzEZfdOClUquo6v5Zy8/gwUrr0ofcmHY3Qhthr5NN/cnr26hzvencznrd/oVyI22w0uZzMo/c4NHqndKF5fx+8l2hvwN/tqSufOuezksdrc3tTW1tTe3Nref+2/lj7e4Fdv+mVOAqQx8yrGz2bOAGvxwnJ7kx+cGaFttL4aiNMm/LVOkPq9kYobrL3i3SGQ5kbm2QmSPwYzITIFTpD2RNQa7B8xXm8LqeAHNr+2WYBAEXnOI0np7+kGHoDhriEHKfUJsdav8QXsC3ygQO7T6qyPfKN3QPZUbG2CGQOELLpz8gOEYEcMFZq7A14lEQaDN0FwXlROkUteZTi9Zjh3IB3iIzLx22L+gk3yvH0I00YNhwjbOWMTFZ31GqfwoH4LUyK09gCeWX5HtlG7qXesSH5kdG+d5bp03+CenBfQc7UOIYnsgZuNjasulwkw58j9MM3VM9vbwCnOmtkxrt+u1bYmAczeb7UaHA/wKBg4ZsgQbUfXllu7Sy97q7SyAKYxok1oer3B+AeeIQJE0EavPMXTuY+yaF3VtO8on8OokOELAK4V/gVcMQM5B3YFKCk+lfUfmFDz4eI62/fFaixwusQtgGXncwMraFHv6zdMeyK2KiggPJpk15hMkUBL5IJPDFOlUI8chXW1nhOXFmX91cP9sDAJFbWS7Rp22aThXCAESrm2MR339gXkb08MSUPj4+IT4JUeb0gtyRfcNjtXP9CKPvWxKdGOEx/AYA7o1QGYowk9sNgY9xk2O44oeUGCqQaiYi0k15ps4x3IiQWIpoq7cajvpjAoFP0jmG+yIklgonqlnhqM93k2O4D0JiqTCiyg0CF9nk5k2dY3gKQmKpQuvIroTARbaxmqpzDE9HSCyVStSwQOBPCgT+ls4xfBBCYqlY68gugMBfEQj83zrH8FyExFK9ieoVCPwDcbzH6B3DRyIkpvFYooQBDvtT0pLSYYX8MITEUt7E0MI+K5PEAZ8LgcMimVCExDT0TgwtbGb6sjjgv9bz5OuPkFjKjxhaWH46QVZteBUEnoqQmIpIcofdqVfJqg2/DoFnISOmIrKkm8G4jxcHfCy1NvyO+iEjpiIKUqFNYKkw3qqWhJ9D5x5ExFaE1zNswPOqMODz4Sb9LKymRERsRdjOQO/XZ4QBfxoChx2/hyIitiIqzqFJ8zxhwP8G86OrMZTOU+nWsYWdOZ4QBvw96DsE92wZiIitCDeKDWDgnxUG/H3w3NsKRlZ5Kto6tqfAwM8WBhw2zTsEgY9ARGwVrFC6XI6TlKOsckrHuhPGIorLYB+raZIuR2sx0MZVRK3RDTDwlaKAT9HJUVZieiAitsqmeW8K8+16We9yFHNWWSuUZvIizAKiVO9yFOMurBVOKxB/5FeCgO8Cj22FwOOQEGNlUstHpwsCPo5unK0oeUiIsWKpxWWiao1g/6ofIHA0eGGtLGrpyRwxqK9KnAAABt5JREFUvEfDp27FfBe+IpLalktJTJ+p27/KCwmxljXHqVpKnrIqZfWAgqWjfOUrOW0VnspqVEZyyIe5EmhZjEtknMpUKatJyIe5zJKT2uCp7BJejvIWcSH+lYwcJ91TGVYhsFeSdXiPgrHfJcPPZyvelfEWcT96CIz9VBmFhLsxR5m3CGu+nWDsFwoB/raOnw9u0nmIMO76ScKF+DrYAxeu6MGIh73CaH2NxDTBgC6rZyDwgYiHvXpT70eF2Ou+pZfBGIt42MuLar75koi6slHgkT/C3i/ouslD1h62JyDwmQKAvwMf2YAWbSJjqxXib08m6dWV4Z6Ni4guaDXCPSDg1cnlErR34a84miWAiGA6LDNqhHu23giHh5KtI9whvH70Q52rE1/MSeciIlH5qujY6hFo/nASAI9ENlxE+Ot+L7rY6BW9TTrejfJREK32RECo7TUI/AQmMApQjwhKqE1An5sndKpO/DHswklRtC4Y/C3ToWHXOfyEC1EBLfLC3W71JYtOuks2kuEkoh1lEwCwXnCKcgOewoWIuBG/BgA8zxv4PJ3shxAEw0vxNF8f7q4flTrNbbATAjf5WTvP7wEEHufM+1M4wfcD4OEIRsA2vUFoAelrOu4uxp7IhZuSaM3qXuAL/DnwsKLleCgTpDRr35MdAg12xxTrVBmFIhZ+IkwBWgGDN7gCX6VzCo/BOmGeuzZrcHU/YHCYa9f4cTo1CMORCk9Zk142QghPc+T9e/iopjJc0YUpmRZN5xl6+ZOF3oAyIgCh8JT1SrxsLzyJH+GX+7ACAi8ngUcjE67qF0GpIOWYyKjasrWDFT0MmfDVcEoOhGUTL96Lxurs0UMwm42z+tK6iHPzcppl0clIT0YinJVlovQ24tUY4chE+JgOcAhHHwDuMtPW9OJPBRQgqFpIFyAP7rLaAmypEXAym39YtWUDJSeFyIO7gkyUYJtl1HccgB9UTfDjWEMoL9im8tjlMcWXqB7RVoGGuqKVRstzshS/w9xedbIK+A3QBAHTk0XI2+q5Wq/C8S7ra9HfqB7w8RoSeBrCELymlyy18LxCefg51T9v2QiCLjjBRcdelAsqIJUsb0l/vljNu6oMJ7iMNd26T1/TpELCMPNl0ftq3kW38AsueU1XdTC7s2+bwizCNlXNW5Wsiq0nZezTK9RTvJJRXeHfN9nw3g4alZmRgzB5GelfcUbNpV//ow3voq9J3iYsERYowki7pFkNZjyDz/e6Yhvelm+wTZk0ET3r1BUJd2aiy6WkT06zxW35CgTR/b2RgkD5Ee1PlJtqNJNdO43/cp7G9LZsP4DJ6BJFWKcrdTvUcA67QHx06eMauC01+wDvdEQgVgNMCv1oZrGMmtvVWGrpF1q4LZfPQo8PzHuQuG1Tys7YAHrkdFca0M6Z96gmbktxLZplS1YmOf51NbaMZjvrsDx91kILRTNaIO9BOP7iZSYJtGhQWjHBiUk+eu7iyTTclsv1kLcPVpNJPpnZ5L78vxXK647RfmzVu4ctdO1VNRk1ohm+FEWREKqvabJ64yl7s3zMC29+aNFV81rIG09kbjHFly/VxjX2NL3X9HcfvfjnIosdXdmi4v0QDr0kJQIOF9toyMY+P2GOqinK6CkfvXfwFxb7unxchVuJxFITWUo1ARL79uqAG1U5e9dfT5euLz39zG+nTlthcVBV+9S8zWjoIk/RkMXuvRa22nGyRM27D4bQJcrbH9LY18SU9806NW7FJwhHXabSVDzqmtnhrjqr2PLGiKpc9RiqIrLgM0a4t7WU2fLug/NbtrJUi7pS9kMxi9ldq4FbMWOATb4CbbCUt7tIu/hKuaKlSDRzcQfl2oCpOFXkAu728ys1cSsZeP52C/Uz27L55FoXaddc/bpMG7cxFIfaTRQUosGnvtF52ns3N1QrFPngfYn7KNZfC1HDbed25d+WlyhURePn252UadSktLrTwThM+9VjKxUd+WIVuJspXJu4UnL2lJ0te3HjqZY6RV8FGE31GOJ3L9E2bqj6jxbrf5zZf/xWhWJPIdjuwC1XdX89aNWrl13Yeehox7XWqqozHUcP7Txeu3u54ogikvFyzE13biEKe8UkYSzVfU9nZua4o7EdmTvLL5gpbmPuABxTd9+6+TLD3SsZt+YeIO8CJrRN6SPQzMNTJrmPy7gT8jDLwYPUb5i/K7R98jFo7mnySu7ip9xkTo7H4fNEBfRNcJp2SFwgbtM8WJlxTqzsIdFpeOL2ePUMj+vlQHAlJTgQ92jdRvHZg+i79oiUuOzBGCnvfnu4wQPzByUm+D5wYP7f2IWljcStdAQNR5eoDfcynpGJiYlrmIyoAAA9Li91fKOklwAAAABJRU5ErkJggg==;aspect=fixed;" vertex="1" parent="1">
          <mxGeometry x="414" y="400" width="12.22" height="12.61" as="geometry" />
        </mxCell>
        <mxCell id="JpfB7zD26m4SBqy2sYj4-28" value="&lt;font style=&quot;font-size: 9px;&quot;&gt;Postgres&lt;/font&gt;" style="strokeWidth=2;html=1;shape=mxgraph.flowchart.database;whiteSpace=wrap;fillColor=#dae8fc;strokeColor=#6c8ebf;" vertex="1" parent="1">
          <mxGeometry x="391" y="490" width="40" height="40" as="geometry" />
        </mxCell>
        <mxCell id="JpfB7zD26m4SBqy2sYj4-29" value="" style="shape=image;verticalLabelPosition=bottom;labelBackgroundColor=default;verticalAlign=top;imageAspect=0;image=data:image/png,iVBORw0KGgoAAAANSUhEUgAAAfAAAAIACAMAAABKCM5QAAAABGdBTUEAALGPC/xhBQAAAAFzUkdCAK7OHOkAAAMAUExURUdwTAAAAAAAAAAAAAAAAAAAAAAAAAAAAAAAAAAAAAAAAAAAAAAAAAAAAAAAAAAAAAAAAAAAAAAAAAAAAAAAAAAAAAAAAAAAAAAAAAAAAAAAAAAAAAAAAAAAAAAAAAAAAAAAAAAAAAAAAAAAAAAAAAAAAAAAAAAAAAAAAAAAAAAAAAAAAAAAAAAAAAAAAAAAAAAAAAAAAAAAAAAAAAAAAAAAAAAAAAAAAAAAAAAAAAAAAAAAAAAAAAAAAAAAAAAAAAAAAP///zNnkTVokjhrlP7+/vr7/P7+//b4+jxulv39/e7y9kR0mkFxmeXs8Ul4nc7b5Y2rwgQEBDRokZWwxn+gupKuxeLq8PL1+LXI112HqLLG1m2SsGmQr+nv86K6zQICAnSXtLvM2vn6/EJCQszZ5K7D01uFp8HS3tni6nGVs6m/0QwMDD5vl0V1m/z8/eDo7lmEpnmbt2GKqpu0yYmnwOvw9GSMrIGhvNDQ0MbU4MnX4lWBpHeatgcHB1B9oai+0Nzl7Ofu8qzB0u3x9aG5zPT09FlZWSQkJE17n1VVVRMTE9Hd5trk6zZpk1eCpL3O3Iemv6W8z9/f301NTdPe51FRUX2euYSjvRYWFlF+or/Q3Ud2nPH09x0dHZ+3y9TU1LjL2YWkvS4uLgkJCWaNrVN/oyoqKvHx8Z22yurq6tXf6Iypwfb29t7n7ZCsw6KionuduNvb22dnZ9bh6aioqPX3+W+UshAQEGFhYdfX1+fn5+Xl5ff394uLi15eXrDE1Tk5OXx8fO/v7zIyMjY2NsTT35ubmxkZGcjW4U57oM3NzZ+fn/v7+/f5+7q6ujpslbGxsWpqamRkZHFxcSEhIe/z9nR0dMTExIGBgZeXl0ZGRpizyF+IqY6OjsnJye3t7UpKSry8vISEhG5ubvP2+ZGRkScnJ0x5noiIiKurq+Pj426TsYaGhmeOrfn5+bS0tKWlpb+/v5SUlMbGxq6urkp4nnZ2dre3tz4+Pqqqqnl5ecLCwmCIqXh4eOXq7lhEXfoAAABAdFJOUwAQFdzqAQT4/vALVxkIk+FdQ0zm9K/PovwvJtNqnQZHK9jCmiB9xss0Yqc5ZbiPUD8cvXGzbXZUl3qHqoKEPIudhfo0AAAgAElEQVR42uxceVxNaR/XetukZVqkkBZ1W2hRSTNz77k31ERSMaXxipARlSlEorSYkDaFYVosmTRRSmpslaU3kXUaxmSnwUvyMhlen7f3M8Zn5jzPOffce59zzq2379/3nt/z/L7n+e3PGTCgH/RCeaBaD4Yq9Wuij/LrYKWj5eTuxrWzHKKgq8rh/QkVjqqiwhBLO66bh5OW9nC5flX1bshbqbtoOusrqvAogqPgaGKhZdNPfG/D0OGuFtyRqjxJoWhpMkZbvl+PvQEOOhbjTA15KKCrZzGsn3VZtuA6H9sp8hDD1MTaqF+1NEDN3GaYuq2Lhbu9m1kP3NzsP/UY62SrNUrbykheWdS/lQYbcwfx6IIu19q8z3g7OQejwe8x3FxejfFMRX60tYfBCIWPSDWuoqow0tns4zGuNhpKELKdnFV5dMPUXntorz1Mg3Vsx9pzHYfoqoLOjqM6SN+Rq2lhrD7anN4dqtmMMbEUmynDQY4mY9Wt1N4/RMOaq8hjCB/pafWy+F15sJaHgSV1BakojtTTdHEdrIZ8JUbWJqYq0plZR03jYR76KjxGwbGz7iWcy2k7GehzJNymiq6jm5OOESJzb247TpHXe8HRcx0o42RruGoiOQkcfQMXKfMUZW17BV6vh6qblez661FmiDWs6+wxSkOyAFHHQJXXRzBkjCyadvMxdhx69qur5zJaPMOmpG3SZ9j+I4QzGyxjJScXfXp3bDjS3pWqgXewkAFLntD08FRYblrtpSttv7158+Zd271Ll9Nyw06VNE2V7IEjdGSm3yZn7chM/Grqpi6adG09FfZo3noy79Ldlu6zOal8YqTm3Hx5veF42FUxqTe1lYnk3IbLYdSf2euQJG4DbYewQvSsdbevvOiu+54vFrxzWl/cC9sqhnNzUmOZ7YHW+sxr13DEWCuoeZNzYSEFW5fXUF14lC8FSu8cS19HtbXmwiblGu6s5biKBur4yFXOg+FAbVbJ8Qdv9/LR4FZ3Q9guSjt3Ysuwa2hyeGzC0NHpL10GtbES0Z2wqwcJs8T+3+Hbd++g4voDnv10NyxBtOxB1kr/h3S/9+gef6QrSra6VP8y9errtLb2553/rjvSeNTzvarPpZbmxL292NL+rvb2zvWiIrP0F3GefJqQ2nnpquhtazMemNuLQXdESVj6pWvXH7X+dLbu8a3U1NS9exsbS3MKb3Z1Pzrza1ttbv26XZJzruBuNWA0pUgiov7gi9bKc6KVfrSu9XpbbgksiE4IO0Yf2X+i8O5JUXtxZrRvrmxMzXdH1F/+V/XNUkouLK6zJ1N53SRZZUa05a6/97xSXKKe1VU33P7rirbWvkzlM4OcYyI457gzF71pU0h9tuZde1kpwVFIjfv9bm39YZRmf2p9Q5cUUfQPFxvCInoes/5gVySfSdQ1fEvuyl0Zct7jRGn44eWWSik3e6S1vfZkAgK21x//vVF63Ueeba9+xmccnnfSSHWg58AA31rkwXBE3pkjqPZ7rvDAvXppWO85lN783o1b7WQZuqox3fG6gzOZgr+90oX8HJyLu378oUQJV1r3OX4fgGf3z2QVdnrn36xJjvfhg29pC19LL7bVi1d4Lnlwi99nUFhLbOdUrWnMxbjERafbF+n2camtbyiTnntHNpjyvr90clTigqqqqgWJUUnJhySO+o5cIU5cnekaZ7cibDqub6tkRoF7O6+UiLblByvZJPnzxBUnCsoqQoJX+wgxPIQ+q4NDAv1SguZOHy+mkXsXQZiV0lOGsSUqtTw88z2TCn3ckk6Wte2695gdoiOjwrNjn8R7YRQh8F0WWJBZTj2qLL1CZNhV3JWR0z3UjMhZVjMfCEe+fUdw0KcePMKC4S4vCgjdk4FJBGF0YPaUiRTf9Vqior+lBmK+5UfABe185MmS5cx5EAZ69Lw6xtcxOyv4AiYtBJuKgyZTkRYXRmTWR6Od7Ia776YWTza95a2W3L8ZuZIuFhZxKPsVhga+gUFLRcvrJGitGDqhHGqBZmMJb1L5bGPv8w+cR7RTTrs9Z1atmJGyPyswNOTp06e7d39Rsyp/i993C4NOV80U30FFztiDoUJ0wAZRZ+joNYKA3QBZn3wY9C5Wbo44WhmfXD4lfEZ2wH6/srLYrOLiLWUBBWtOzF4xZWOylFaiseXn/3m225RitftTFsY+2SYkUbm/T3So35rTUeIQ71kUj4xybHHxP0XIziGoxFgiys9cYeH5+ucUdZG0cq1fzTay2FWwODokcFp25saJknL+Q3v9AdGv3IaULzvECKbiV8WEz6RO+TZ0lGM+WRsmkIo7AG/ZD0Iyy6wOu/CeR6HneX5uQWi8UKyNfpV/I2jzIRrKk5tvLBNKpPqQmJXU1uN9whch5djXMUmkKVo6vOymTQ/fh6tFbT850+8XCfMUzL+jJqAoEV0r8nxRhY9UIXR0WTgV0uekLEJJuSAknMzZPYcWIwy1pLbnEL7ryb2398riZun3m7Fp+doq6VkfH77EC4X2f7mxb4JIYT9mCTCkxzzlc5JqK9yTu0g56wDx323nyNn2Qbdj4X9ig6ZLQXeU3ySE0VRg+BxRAhN3I2Uc8yojtuyev0JbC+5Slc/B+HwXiTn3nouS7Q+KXrVwoySRvPfsZaiXsmhJpijOi7ajFZkRGEUo6yY0JzeTvEduDo6uNcURip+IrAQB0fSTlAUTxKJ7ztpmelayfC75Qg7ForXrmKCCkPLGXGhCLmllXQ6cXdtJmO0mB0zC6IXPqnmTKdOdspi+hXTEkKdr+zYhFpixhUig511YdZ0rGePKdsCTwohm76O2CDEm0By7Yg4FYz7Pl95lCGpII+jIGNTaEAYQ5QndsGh9nESMfwoW1wiGPzeG+mOM4ULN2iRyvk/vYeLVyyZL1RLnI49kThC8YnWwoTeuBH7cFXhKOjw8n+gnwBhGdEwioa6TQhlahJcfiWWPvIFcKcFVBI4c1kEzEZtxIyBAT4dnxZm+GBtozoRb8xQv5taQEVhOTPkG5EGjIBZuVJ4dhzCuKe7AA3B5Jw96vifXYOzgC6gvjwpmdhWCJcSUH8pHLu7VabioaxDGPcQjXBP//9cw/x1ZcIElvufDOi0T1jC/HEEFcWUoCL21yb8PlXQdEqwbi8O3DpCPwe5vTI9miW6sORmynB0hrKwlIyuZiPHyePSHfCVUUjVYdVMR4yqSHP56XhMs//5mEVt8+8BO1eZXbC3HK+Y8UTGqArkwfz9oLNUNjkVwPqFMuAG+nnoTEh5N82dLwRf2QXa8UIixh44iokO+JgO5sGBo/ekOyLiikaQGHVI/v/+UNe1mQEIX71iMXSwjShTnom8vLIJmKF3g4LoptQ/6qeE/Bn4PUkmNZk+3JyAR8ROMbWTsJ5jYSUKvKv9psCmot+AZd1SWpMRWD94imtzMnmZjwK0ujcZkAK9WEDjyL2nISmGd8tYEidLx4biZh8PgvMPGxeypdTnkDK3GZAP5O+Atjv3oRW2DtdA6wVidwl1DfM8EHFcsn8SeTjeBBZfpHZisYHE4/JAvRF99njQXNvgEhuo24kZsaeCB8mVPoxfAylbUdkyGEAgvf36DviQkDILIaQdHWUUMLyub4j7WAtyz/mwbi/qcB2xxZgcmU/h6A7y0jt4q+qdA5PwGXicWcUkU9/PfgYB4PovaXAWW1+IxGUNGDLSRmUiDIZoGiRfSxHPjQ3EpWS5Qrw5lUZcdQGx6/itM9vAUWmulI7MpBt+to/XAtDrZ1VIn3P0xIEJPYVGRAsBaRoZgsojtsICKv5SGwYxAkPFSYLSRS/J1ZFwR/Rr+aSsFLOrxO2Bz+ZhsQvAPGOOfbUIvKR8swRQCJTfiSN0Y91km/LcdknzYtJSesmRuRGAJrJ/yIw0FogrwjL8EvvVEGKLjPHgL3oEvY1GFXkkyZW5EIRo2ebeDhjO+BRTTgGd8GNFX93BNcLy5WMimBoEkhFVzQ6EIsxl2xmlIKvzAVhL+GpIlAeG4uaaL+DjTi0X97cG3gccHY7INIaxnmkxDFaMAvECNv08M/yLIJ3//0Sm8Qd/NpvqASY9iTNYBrYwk0VAomgHeIMd/lhVK+H/Ju/rgqKorHiqIRcWB2s5U21IVrdShWLXT1ilD9u3mO0vAJLAhLJBAdvPhhhAIiXyTLNhMIR9rqQiJNFHDxKTZiTJJp0WkraVDrDEVmqpNbCsdS2uAWlurI3Q6kITsOfe+u/veu+/d9x7nz928l93723fv+fid30Gyuf9EN/GJXDwi5dIiWcAaKTmYMv4nUR1Zp/sE9RHTdHhvgmWyZzDlQeSRmYI54EG3FQCXtlL094r4U8MCBP3iT+gRv5sC+HfZVbKwyIUjNsdiyRrmpdAiNvNnY50lkns/QoMjKLPQoTbX04iHXi2SM0Z4bLmSVWw9hVjcwp8OeAlvJa9GTb7MgH/wd3SDcjN5bCsClgFc8lNYETpkjKqinOLTo1BVtyHZniOZAtesF38Zr2Qhqx8kEdchxKjBVHVUFyfS6FB972V0+VaRS3bEih56BOJpZGqE/0/WhUhPF1AsjjW9boRvv4liCaeJHvD+DGsBLq0jKYce/gmY9SgGfJHtp38eamKbKcuBH/AsyWq2jCQ+lfF3QxDn6V1mBWUa1Gs6h6JekS76CM7wuiwHuFRJFs9OcN8026D6zGtQHGLqNNaO/r6JnincWJQnWdBGyI6wdu7/BHWkILlGKNMI55l8glwMkUm25WidTkqWtG5C/CmpWOel+g3jEL8e+ugfIpKtyJXCVcZl1gRcCpMNUrwdtzoYDjwBAZ8bCfj9cEjR8+bJY+IH/KBkVQuRHTy82eooFoezLCfL95P9ArHvRMZki9A+WG9ZwJ0HCcSP6/t0oHx6JHsVavAdMw91bB1aonzJujZwRG8WZgrkKJ2DgM+MGGID30GzYkRy/VGrScIWCwMuNRFDTXo490HCiOZjWaVlGJT9HjXrCVyiAKou5kiWNj8Rjh/hqxABy8jvI/G2CcDhVLI34GdaKXCFKtD61FsbcKmb2NQPcb1/Obz5o3JUxjtY5EWR3TyoWXSzZHUjXPUErtTvLfDmr8DhZjJH+CoooRsU6KOfR6szYnnA64gupGqeSXVXKiPXdsPN44DPA6+/Yh7uYj5SIsi0POBSKeG4cV1gWCP9AzzEb6NH4adNk7puQp0Q+yUbWCXRDcazIxIqXL0nk02/k3GEJwnMow+hZjyXHQCXshw6ErZgGPsPCPj4zKMpUDn557CRXeDSLLVM76ASyzyp46YOn5GL9ED8NlYULrCfbBlalwP2AFwqJShP/FQOW6F6PgR8AbWH8HHTkNlQk/UiyS62nKC/cDusiqE4AD3zsoCRSBd4hGeihtts2wAulehGhqiEREZ6hxlUZnsX/vbErcp61Oo0YB/AXVh9bC0vORA/vC/UZnxgDHCo8/G8WRjB6DGokWxky3BsVsDpxtvhbX9Ay61OgtLo8IolwtbEGTRPhpe/EYqxnJTVS1kUiNtHAb8PvPhHs/R4eFEGMtNWgNftxRpPfNQWAvCucMbVdaOAz2Hl2cT5bD7z1OwM2dT5ZBlS4E0P06on88GLb8PfnTgfPc0e3EVZwx3QiX06AP4MjdUGhR8uQra8WbIuS+2GtzSAJ1k0cLlrDIBDKZ+j4IKQsPUY0pMnYArzYr+NR2XcxQL8s6OAA0r6NtiRJm6UCJLZ9NsPcAmrPHVkcgf8MAXwaeC1w/pV7hSZO9UkvoSO1tTDX3TBzQJ8dEv/KnjtL/ACYcMlyk2kIKWb4WaUpdoZjU2ssGwU8FngtRdhU1mdqLXItaaGj8JgHA8uadR8yz5W4uVzFEn8M7AzV1hQBtNs/QO2BJwom23UXDXbwkqtjiZe7mbo6QpjiaKGkxOSTQ0r6nVyjma3UVKrcJDw6+bg/Yd5b3UmtS0o3xbUupXBWO81WB79GiXv8pg5wnA0DqrNroATU3sWa7wflCj9M031405G3kVUrSyz2f5B2ZhX3c9XXKWV1SH+EKXr5IIpSCZttuooY9ohvo46pMQ+Rht+AugPPzVH3gWp/FfZGHA3kvRaqK3RZyVLyOk7VwCfyqCsihriiqLwszYGnKCpa0u3HWfx0h8mM6tIM1uUAl6ZObIBhlgAabEWcYzz3qbw0m9iyTcJ0rBNv3aOcMojrmnwBCTSvEWZUQi6EFahSYSCGkfzHCYp2RnziHs4yhZB2sgbFM2PLzK6EFYLWoJd9i+NRhoiNCbUqr9VXRJL1ec+crLNKTh0SdAKwOarZKfNAU/v58ZuOwvv9GsI+GyyWPZXU3hLabpQts1riIHfrD75MswqlsXfTIoB/M8MnaNNtmwaZVhtAi+OOqQRrF1FIbzcyJguu0/M919uIm1+Y6yBVxvKEpaK0+2U1tEzZthMs0zCujHOKpHcpGrGMqzF/Due0lo2hzHaRhDgUNmlJ9P+gKPw2TGk9j5wGtAHtG5hOEH6HTMAXmbTtnCGoeKBam8Zct3P0PSzIeDvmQDwFOjC7LgWAE9BBNZL6m7jhHyKUzSJF9YTLobh5LehdJPCw1ct8wRRGNfQRgybD/ByO7cJyxniolWru0svMwyfHRVwMdMmUJOR+5oAHIuMqksnQyrgSzAMnzqFAvgxEwCec63Qm1ixqDo/HVbDfwwf8DviKICbISzrsJmeLrJ0f29V+FBJbn5DYeHB/Bzfjvbw/rzKA4iY3aHq3rAh7z80RhuKw82QafOYRSeOtzUVD+XvJQeYUS3BrX3p0ECEb9BE2n4Jh7AIeQLUUPMDtX7vyMjI8ufqm8ypz1manbPQocTUNFchgZeXIeBfog1D+K94zS6k1tXL/OPM7XlZOQXVIPxMK/B1XqozE9q1SzqSHApNTcnIy1JLH4vK4r7NKI9Wi1id7lh7EErzVi7qkVuv5JNhk1Af68oLFKOt0n+CTnrCsxDwz4wCPpNBgAiKWCBY8Emg79ApxSVd0ZYsaVFrinC4U8IrHKpMDfkExjcvxFPHlt3PoDj1iFiikqibzNmKzWtjWzVPe7rYp7szzaHWVBBId4Ib/I4+Xfhe8CokMSaKWKRCdukkY3GHkmXrbxfYaVzZ5VBvyqvCaP4FKp3cNQY4FIBYA/+piMUqYkh/pmQXJChduIWiRjoMlCRpwFtFA6WfOVz4W2OAz2bNOxHRiDAo66z6fT2qli5HyFHepuXxViWJWMWS+xh30tFEo+8LbzVyyXDSXd37VK9dl4B5hr3J2vBu1ur97IZ4x08aHyQNXn1UeDNhLTX/4M7aqGX1ks8b/TX2J2jD27FCa076TYj3LVeHlsHJ4T8RXYteRlHcbAppfFwciQarAlU4tFqa8r0xkTXR6KGrgF8HXn8BXLTBeMBHiMbRjJJEzcvnSDXUdctO0vyBm7U+Kiix+r04+gyri7rOt45lreDHdqWHOMB9OT4bNu47nI+SJhjcWXAwx1cSCpXU5OZv2tM1SNn/PVp3FajJFz/vKuBfB69/ILo+CtODyVk9Dk6WVmvUV/hoUDb5V5YT7j1AJg+dpet6Gxs0Ztpgnm03ZD/EfzOOPpbwnOheo13qz2kPu/RYZFAdzblI5hd3fKs79r1NOfGjjDWybPLEZOEHzaXE6FO8V3f4lpSvz0i53HLodNeer6jZk8ivAMXLYUvM8UbriWzV9qy5od9wDAI+dwLweawJGH2GA56vBOwyX3ebk1ZaaaFhzndys5w1UQ6h5F2lSg+zLsWBPzPPNn8C8HtZmRfjA/FNsYLtaelmrGL6EGXdu4zYsFooqb7SWC7coI1tdIjJWJ05ATgcavTIWsHiC7Hl04Kh56KBl55LXmaAouMWIiILxvjU7NBGIIWew9F4ajGcknl5QjCjLIYMdE+uNyaNgDwP4TfpL1pDHElHmiILKsPZG3wt+Tkl4eUB9taQrzTtspql33RLBN5oBMbrgonK1dHg3lcVcy2kjbjZkN4ffzt+wAsmPu26DR0RBczUQjS3BzYCKp3Lh5hhp2mSfHG0ITcfCiY5DbJdcl+9osQ8Rjyod2iGhRWLxvF2ZhcRTiQ8MCF9Qek00jBT7OPBSMDnM1htSYZXxFlZ841ZzEDWlV7qRnt9Pb6dzmKiTlTj8YwT64Z30vK9YEC2R5P3BHkjux+hyPmM2xxWXGa4gpJ8VrK6Uf7xdHpDe67sDUlp+3Ir/BOwo0Y1vZnXWPG+dfxj0L9Wa+TxDt9SmPt3eliam1OvjwQcjqJ8Gv7fJw3GO1MW7iqGW563FCWrj5+Xi5L0LfHvQP7GmJhBvczPOFLNBAkKK0z9o8rJW3Q+G40CEb9b01Gi1VwyaclO1uHbTrli51Z6HkTfAWhoiImXnT5MdMtvDk2ajvA1smmXyzYZvPkqP1lAXoAn7mKGU14ZZncGJZ+hb3mgVkY2tZD+CYEn3gi/skKhE5ivuoAo6bMg4Pcw6mVGN58MUNalsE9dNjZ4hQcY6DHOKymX0TII07ct4IKGtKx7XTKL7XLDJAj4XeDdT6Ej6RL9hG+M6r7I8pYXDlDO1bCOnx6qlade5SEGaAStVC/DzVaYAEFROGIofwHijeplPxTqptfhZWmJ3kbZIOvYX+lErIevbdLx0xfIsQkqE9kuOpFiVJh3yWIe4dMR4LNY5RODp2AgL311LP++VRbwQkpGI1nHCspGWYJY8Wr8fKMxD074k1is5Zf20rNybBcaNX0VdNONHtQOv3dMwy9SmuUAP0Fz4vUTjXHBvOoIiJtgt/AKXKrt09ItHIBh37/YR3jclFsZbrrR2fRmFfuLLEd0dCrTsJqOc1WJdFZkNdA+4VglhgJRUjbK+k7y4MWf0iQ35d303wrtIK1WkWB0bpYpq6XTXFj9BixABc1+HFm5Owsub+ypHVmU+ninFqpRDTORPp0A/Mvg/dNaW140GRShzIrtonS6ukIVtQ6lX6RZHJWz4jxb3+eKATOFnxF+/V+tYh/h2E1fQ88WGWQFqjyIPlpVNUQvYSXpVhR/kt34quB7Fyq69oCDVQsnjvC4uBngD54yLm6NWvWJeW74R3sJvCeywnA+o0O3vqNGiscYqwU1uMrIhzlFmzjKyqYfZTTs6m45KnkfAzXQRQ4Wy3rAuv2EK9QvXMChPDq5aieYdLaHScBRNv1jbfRJbVaiOkuyPmJX7IHZd48xXpsGwP0aQscBGOP/DNHZZlAAf4ChzpdgLAcCnrd7FF3rD+28zCFKO1iFjunNxvyE4ZbeoCELr8hThr6i4x2I961foQC+gCH04hg2FHCo6aN46ooro5bik+0ypj6wX73jlaWhsczHzKvOpeCN1Pn+xsz5/p+6aw2uqrrCFzEIKKWtyKvWEcV2OhWn2FYrtcw9N7l5vyAgQd4wvCpJeBUoIBogYYIkanjYSiOCji2CUtoAllZKH/KqRFpbp6NQsZYpygyotbTO1Jk2ESzrO/vss/c+e+1zXT/h3pNzzzp777W+9a1vMdvDHJy6uYIeZAa717wxj3KqW7XQaAro1i+T0NkuWj8ZuDrNqcMfidhDqQKBcU0rHmu+O001P/6B7ALiTcn+Iod3ISOGk38Wl/GdGD2QCu1ctOKUOEG3bCfMMcrl5n3586VJWc+E0HpLBmHUOC2Jn4X+cA44h6s+QNO/PI17b0qblygp/Tl9SDQzPARc/ZmbI09hldiSx18RVT9FLWKkUICG0hqMkNQZMFxGv/p6MrCp7FK7VjZF3GnUttQn+WHDaGmCbUx2kSkovdC8aRd+2q+BoNxd7HBKVZ74THzCHw1RyoSBNs5NSbzVtA5L04i0Tq2MnlYooTxI7O9E977kY+/HF7VVszCsytzQeCabpjfDjMO9Yqq3uTYp1l/02eckDWaFLrG2Kp61uNsJ236+KUxYZ5yGw4g7EOu6MMlIYH3Ix37pihQkCHx4irPrI/XiqtpOyp5TH3w+xrjOtlgKsw0I8jeUxH/oRWHURTMJLyyCjXHSYTaHPjf1TldaFB6jsSFSNtvJieGVso9sqAxrc1ohzY3SUxdooAbGdO9NuYaI3hpT9SEKTHovJiVdo7Ko7b341LvoaTuXBcBj4221GqY3z5oW7IGTvw7EurICHQ5R2z4W+EPJWli6Vx90gyXRwtUo5e8tMAQ+qmgp/EfLxKL44Vjb6vjEnIpYEqiq4D5dmwYxcxn3tgZCpbvUYDYB1vYnx9IogS+7NT3nUwLCOjtOqLw/0WR6j2mMDuJs3a6TOJzKtSWfdtaPhbacB9ZtdKJOVdFiRKZqMmRZltAXpf5JiZQP2nW0Qvp7Wpau+MQ7fIabtnf6Z4oUn1uBIe6xRb6jXylzeOKLkpmUtiBtFSvlkdKjTcPbuO5+h1FwWGUYUgKOvkGtcHLBPiXrRlj0iXf4johaxWbQiyKTocTM4T9IS8lN10j9Dby2WYVx0ZxKebQ/Kd8snc109xVFJpBelRltFCqj78KO/mm5w/vTTz8ejT2acWf4PEcdc6AapabKD0InqqrPFObx3oAdvZPc4VlUc/UgXRFVzhw+nictg/4rtsFWI026XLKNKkaQA54cHjTWJsAGyWhO7loKF/AEDyWO+suK0ybRYa6JGgDIfB7U29ETiTtl5HR30AsP0pbKLnQCtWEdRHFPrzRA2rKXSyujITG6T+oleZJcbYkzh9PfvpPpRdrCdv93eQaYnkngArStMxO1YvR2pfyu5AvvmBbzI1ob00p81gm26gsW1MLdWoObgwEAb8GOfnuowxMDJHpt7uS7aiKI28is3LTkrGu1BuKu5frd4cdAKBrmlHXrEe5wWjD7wJUUjjRgtVene8gVsHDc029z2agPwQP14buwwPuE+ztxM/nGk+ec0MBCMAh7g4hGO1L2wWypSIVzPE2/VrVEOgIB5VWFRmfHJ193A0aCVXMxFaaZN29rWqO+8vkmbV54A+X+Hf0+cF26KDgcoJd9JvlFZGvgAkianXHUwakAACAASURBVBV87/K0OajbtXnp0EL4TjJMqktkXyPf2RCLBudSrteszrx5W9NO08VXqMB70e48wSR8tTJ78VK7g3zngXQcDUdsmDeNpdZz/oap2qDVQl1qFAg3noRCWWclfye+Qr+115CRF8nGsrQLp7A+2sr5GxbR3zA+HMMAxYIPNXMO7x+wwG9Sc3iPKyT1E92hDIZGy5i59i683UkrQocV5OuGbcc0OZbFNdIWwq4D1RwOoqvQcDTXicPp6njF3oUfdihGBiCYggBBi16rzzB5En6Dor9BzekxL4pmu5WddxTXCud1OBzJCgyxRj2wBgZ2/g0c/iVVh382KZlD6kahr46LezbMJaMDHBJOkj2ghRLAC/X8AyDN1l3V4VA/+XEMusrTuNLlHe7OcN+Wmx/KH1mhFVJulnOb+iSUjTYcvawPGVmGvC0ioCPcRempVMkUTeILBWtaQtDIGmklXCi2GWDfkI0/cTJbmtaN7rd3YYd5uA+595aHQSkgHVig8e56PwF/98xSd/iV9Ktn3B/is7mINsedIW3tBmp5oSnOPA1EGVG2f5kl4R02OCkZWudVO3B4JRcxxR2W3mEwTC3sCCnTqArvoZ89B3WTroM1HJ7oLDvEHWTiOVGG+0htv7NqWYcBezWMBZpdo/6iH5A3GA3S8TeQIOAQd9COcFoXYzSMBtkrAzkr9cCXUmXVoQZa4/A+0Oc2BfafwCHuAE6fx1aTnepEbjUoZgilOk1Vzk7ovEufHr5SJTzwEIdM/LxjKN1i7QQkSflp18WQmU3WCeslMWVBpRxlG5LQs86ydgT+mvgwLiidq2dNNWjw0o9KP71VdS+lNQGv/jnDuon4EAcliDHsT6mZTQOyzXX8uZTyIELCBtrq3Rb4uQqYSf8qLPBbNf2Nh/haJzLEQaHVDIs7rKNWo0sMxsTXnNbItQJllIAv4D0RKWTzH+IHHQsDzOQq0E131EwYXOKQ/5o5ivcHqi7/AX9f3UXX4XCIr3LMTq/kmjA2yY2ANjGq9+nllqnvQEFp+6N5ci7bt7T9nbhRNqZwBvMjKmFT16Ll8N0u/I1qgNJiREWukv7TPdBQNjwKyiaE06kwAOe0dcHGZlE/b0IMtf2KWo0lvlxlbysB8hQMjg7vCU+EzqX8C1cniMrGa1EB8oCxXnEE26mxxFtVet9GyJkPSv0mITXxN4xUauyk4TY33lKusqsUIR8FS/y86hu5XwmvRQ2AzlkmDqdyTrPOmYq+R994LfKQCvJiaY0EwrKsGjFGIVgCZU/sGBUPpdMltlFh5ULe8HY018Z7dzzisU0wyb6mQRFyWqMCurwE/u7VycjhnfrKJPp4eU6Luapzi1wXBYQAmqwqMiJ8c8OoH2SbgmaUabLTX9ABCKPaNq7RJPfHkJV1LHFgp6QDERU6i3q56CPl8jpZ8npDh1N1n4knHaKrs7lwl1aXkYjs2A1kXtAG/1OCT3wIl3o5EvMhuMVsl+kgDwNjUuVLHatxT8cUn+KB2ALNSAtD6wzez5dpqKNLrUsvWYl0B+fjKWIZh+CDtR1Kx/oC9SA9LBBl8iNcT+VJZxAmB2SZOhz6xA+p3TADlD7X2nV3ONylcInPVmO3LQwD+4H5XI+gy7XG/k58XYau5hYwPp1TTFD64pg0yERwW2uFSuLoAxkbCuUj6bp1N3c46OzuY2OS+qyFZ4XntMWkMtgBtwGiHvAeTw+hhNMeLO/oYxGpTcR6yrTTObtIV/IctePiG+EiSJ9HNRk4vCxX3k/W96ooDqcl0mX14SkiC+JtjXhWF5dS8EcGdXHx7wpxeHMI06VPFH8nbk9KBqBwhjx09xth67K0+zr3mGOHnwVnFVWFn+HQqltMDyXv3wi69IvkcEBXf+rx+CEMS2q2dNUjXoxHeLsdBo+LIMR50qANpLK9X9kCXYToKkhBMOJUVILS1szTHSYCxzZtDqTQbWWhcQZl5JfsllPZdDqEFQS8IDFL8ykDTGNp8VxvIHdr16CDX8T3pkhbHv3PrfD918DfvSP6G8fWveWqH+E4R3hYlueYay04VCDGTvvjINp9mC9d4L9Lak0oU1HhvFymrDzZEQ6ZzuHY0VfE4HCo1ol6C4dJpG3xBN+ATJcuUR2e6COrmO1mozKe5cgHauMhP9AoG9ao/y42BdfDi/PlKl1RUNUA7uq7jhLZ8579ARiQ4FbmxOFwpB96tQjvjgkOXwBG8JHRL+8R3eGQmEE/AhsHsKJNfzRAmDW77o8T2rHx4LUt0tRts2SB74XpJsk7EhbsBnLJ5446AtsoUaHcBo7ekgE7esovCbESilCzAyEIaAj3VmHZpJMNh98mozLyZTa0x7bNwvb7iMGAApYaykwp+gKaH5eIb1a3hSzwITb8jeMR/uio/ADdz/OiX3GNo9NIt4ID6MuRQK7oPSELvNdlVhwOTYWg9jKT66lMt/1iPejFNJ3Jb4tl6Mu3g/KThpqQBX6LHX9DPwKAbd5ppofS1GZZPw/KyI3x+Tu1tFCCvtAoPv3/+s7okAV+xVWWHP4Zet03HfUNL7GL4pa0xTONS+XlI2JxlKFYGgjDPz7REhndT2XsJqOnl3M9lBGeVeIqDJyZUhKnw6vzg+lt4wM6jQ6EgGx9B9pyeOKb9Mq/cFNAOWG1lIl9AKNTsRpKeW0LQpw+7tlEFQkfyHajNX+j2surdpdeYPbyCn2xyiJdDTRrbQr9WUFfJgUkj5MCcgxvHd8CR7DtNc+NWOlom2wLTcVT5+hLY4UQWP14vgzS4d7HBf75hEW7lVx6+G9oawTXaQiaAKVRKMW4IY6M2+HZMLXwIgW4YqUQycyGyQo+mU2bCzyR+KpUlZGreyMn3x4reiOgbDlxO9yHvpQL4YeLoQb2nr7EeIL/zwYmZZMKXe3pEWgvKHk0PxW/HRZKsG4VLqaqIvjwC5iDD7bq8ERvOm6YspVruPb0sYrdd+G2AgQ3qjPA4dOF+oyzhe3ryHt4O2k0YVTdbqKXf9vNgZgNoayxDgSCLvtTmWBAb8ttj8+AonxBY+o0yPMe/TsXyBZQQFnlaE+HwbnGFRQAXZy2EErOGQBYJ/jrI3ViUBVlVa2h6EEFlFnPu4nTywqtnOI4GuRwKpWJSzy/OHWsUvSG3w2b/zOHmMpkl9gQ+hf+Se/ge44eiaGuzCS9IRTODOffTPANp60QYi5v4gK/07q/ka28ylEHBz6SUqPeoKmZUyejBjT5KedrPQGxC9/Xp2exEF2kbaSwp6fZol7wlbfJ5KzMNNAlEO9tFGVqOSgV8gdc4Lcx+Dtxi3RPZ6s1YvddoQGlCphgK3MyxuFY0fFE5BKss+wdjkLZPTgc/mX6R1YHFXu4l3ittruaVsbaEy6170gd3tFMfLotpGqSvJnD34msq2XYi3cf1yOZh0+hWfcKMGEgtziDHI6SqTRq7+glngz/+h76e0AXFocj0WmXq2UDElVe3h7NC0zOqEI42HaJw1cIz7TfJqOOulC0ofTPrKP3MZvtkdwH3Xde5RE9lC3XOv3V5hIPPsXT7btmE1bJXkR/f4HJ37inL6M1Uu8E2zPB9hqvVks9CujOtanMspGBDn9ItAPUI+aSHMrlcIzTD6orvkezAt8imKFTGd/mUE3QBAVsDHJ4O426+JQnH3yQvIbN3xing6JTC18fxx7fs9AQV34KjsDqDHO475Am7EUYceetRZHNvv35HA54+sQzzkTbRvueRp3pgXAglXE2WejvvPYFvjAvhKlqvSwqw9NBpW8j3yMpWeB7HqpZAVZY7808h5flixy+WRSx/RX93e0yTof3o3/sCZD4Z8xvx+X5HogixjouI1rC/0vdlUdFceThIR7g84o+gz7dKD6zu7obNSbubtZk384wnKOICiog+EAFFFBQFESRwxOVEDwQUDxRQUIQURAwovG+MBA0KKhgUNZrUaOiZtW3IQ8iXVdXd1fXTH5/6jDdVd9U1e/4fl9JD83smkIRsJO8NINLUhV36Q3Yc6RmK8cyeEr89DJOgyUmiLe1PkmH/D2vBHNsoKiqtmtfdQEHFJ0q+RWhEuIRXg1FdFbmwCt4VGK7wVSDrqBpbGDLYVYhcwUfMS6jhVBNO5hfO2YaIgcZK56BmcMrPaTM9qLS6IvAfyvilnPBqPRpX3DcL0PtYMTdRCODTdyUI5Vt6mCJSGcInwl6qldAvC0Gqg74H4g0iNuqKpcmo3zZGLITNlP4K7G/Y6KAWze6gSNbCsaiwekSek06W3X/8I9DBvTsOeDff393oHz9dDNzYcnsOE9mgSsK8ZzXEvKWvtYmaz46MYM8tg5opuqwof8a3lV49lr06dJdpnv3HrGtcIy6kxKILDEEEhiU0zlR7xhYjAje3xSKhmTtrTqOGNxWi7YOn8pSWR6qJbWKq3z5uos7cipGrsFldR2FdG47JxMGPCGJDDgo96Bt02rNmg3s+Plnfcy1ZBss48xvD/yAIrjq5OjRWUhdSDI6Jl+kw/TWm6I5jyThDfWSabt3fqf3wO6D/tnlPcsOWjqz6Ck9MdeFKOnkprLgvN4dMx8T1ziKZ132mTTg1g0GPN6H42D0tDKsbXeF6dXVh/leA6ZfgpuS24FQGkAvXDN2M00bcEBUl3gzmWyz+FzqnWaWRKaT+n321/CzknNNSGn1+D3t6OiqYIt+zzgtM+spkQL3CbEqrn7u0iWedNSFuadE6jFx3HyTB7wMQ4aw/VbL0P4ibY2/A/iCxZwpgoGiAevFA+5zUwJCZ28Upq/sZ5k84Nbn3JAjqtIyNYmdh58RKyhqk4D36OTaV9a/A3tgj3jz+4VsAde+KwnwfmS3TV2a/1jZeLO8glxF24p48/WM8db2kKQH064rUfAlTE2KwXh7+YDvKov0OujpMcqk8XZcBNeI8rXM7WMlahBgti1ZvekIMMjHWxdi25yYm55tojWUBJ/EqfB716bKxnVcFM67HyoF8GFC1TbteV6RWfhUHSOLn19mcnA7XUO3HR26KR3puFVX82vuNx22y4vL36TDH+jTTkEFpQjcO1WakS9v69iZ21bT2tsd5zrg06ovJSzqjBUlPwFFTN15iOyq7afAbYvK4sIEXolYAOWH5UNesDfBdPAOmEx8123P40Sh9o5b/yb3PGZCyguV9C+Abhugp22/W40pGTURHsb/tFuqFEB+YKOJwG3jJ/6y6y7sPxmERHp1+vpbNx4VkyciAkC8lyTRCIDMeKZUfVGsmTPgQZT8+vC7tbIRd/AxCbxHJdG+8KGn96rqKr+vKDpSVHGrsq4+91HNOspf/CMlPadgtg1IqNs5s18DC+EhnG7h3VScl4u4fbYJ4J0WouNhG5Ro8fYkR2ZrmSfQt8MDuNfqQoD0knUyp8H4tEanWC54g7eU9lfSV6h9BWyVrKklCP7Pd0Bb3cm6CFnzMM/IeOsX6jiZUL2xlzSS25+JarustWth2rauBuHApK56UvNQ6jTYHjQu4Ht44a3bL5wtKyV3JHjnAVEuU65BMpxQLV6Ni0PTV1x9/CpvuYSIfKUx8fYwcAP8hpKL5fsK5SC0+1U8Gr2C4frRFtEExOoK6rSb3ogb+gFueINFVonSMEBCPeoQIA/Abon7wymo2v+Ip5yirlDPhBFFIZLRb/TFnuuhi1kDXqKoLw2MzJ7L7N8W5wTACbblJylyjLmoMQejw3Fnoy1wREQWfCrl13tOnNzVPcOlij+9L/zzICB/68bIUR8FT8nDagq8LyFyqa53rMsa/Arg/5lkLMADoFf5wfVtjj+c7X6fruQM12isLIj5VUZ8gzI4CWW7ggLvafBaTmouijpmb4Y694yVYz0FNb0LjkKXgCS56BqgunoeMEWSxWEGAxldwDF2YFGN0k+Hh3KJAu/LcLp1wduC6CyoV9NINySMAq8ghXmWHn5uUrG2O+C35vpeWx1Z/6mXZIFW4EZS7V3gASx0vJaIuh5ohw3OwSxsTcSxAX9HRrqXMoUmCWRz0I/WfwsOSZy7aHfCLwtlLfR/x4HqiaX0tiMg+ZIKLPHgc4onZAI8plyaovAF6M9mCKMGG3CrNE5OHVAVxcsinUsOjC8gVYFiTwVmH4xuqfc6LYA/8kb5tVf/EFniU5TOxxw44fIdDSP/e+jPFqcBX9142wQorS7C3dogkgFKCx/vGrj9bFLOxMlhSycvDomNPzvFb9nYZK9IYH/yH42oqEcpITk1l8X7A6d4JvAQhaqm4TCf73wQBd4vSyH/HL7UBrz4zRiRWaTwFbYz+hmNRWhlPAQlec3liAQMAr7kKugXK3rx3bC3kkfD54vLgjzWBwh3MNb4bSlA1sWTyZc6I4sxt6D2E1n3igPMlyDQN1bSrjkL3pey4ijwTs2jy6TtM34oLtQiu8iE3z0f6dRDEsySo3Ck5AvYhaILc5T94mVfyUuwrYYddHT3k43wsuocIwC+ibkeyUZfNAsyShlrFVtCiQLkVyVIooI77iY45qBpwNiyDWauYVaOkEdmMIJE4wzGrBHHrXZIvK/Ano9cgbe/Ad9zBARJLp9xrWgqGGnVWbAgSCPmEYA8hAd/wIXt6zuUJqnGY5ivT2G8LdvJBLwzsMS9wQ3V10XWyyPufqmj2M5PI1KMDbhnrOTWMINDyMDSZ3uA013/ERHZdNPINfAUB9vF5Xm/Bw0UbgfkrdVlSip9AvPNX+HJieEW0zAGl5PJj0J0iMtX6usLOOracpBPIqMre7aD5ISLd/VjJF2XFNsKU1f8b69zFr6qggKOJ14k4SpK6EWJ5vaHYBQMksqky6inwWdRBDHhEnWzKgvTakBqIRN6OHO4A35O+K5ymVZlKXja6/INijsJoVi8v0iCVfJMOh6QwmjyPvn8xde48S4l5c/ShJ/l35MQLXyBRllptXA/Qo69OAM1ZQovUQAz6kFgaOYmLWupT4TeOzMdDXbQtGMvMkklBaK8MyC0/MDYgEtf4Qm7YogtaReQ++KfFGqstwOKZuAllTrdQkmeOiyFX4pguHinF1VFBIsUC8l+71nhp/lfMX1H+AISI9joHYkFxOHXrkKukq6dlCosfwR+5QslJMH54gF46oaSVxQ0ZAP5ehNP4OPh/OkPAH+Amvdp8zp7SpjY8F+cQUuuWmkU23CQbgKiYaAvm+2CV+1dgX9WXV9MyfsgH8qzQG7ka+6Ap4E1vaOeYjIFLnc897rHUlDZa4vQp6D5RwxE1Hv3Ekmp6xbT0p2iN8NxZKt9/ObjTOr2ggaypwDVlPy5Az4b8StNCkwJd4Z58jaN132y126KvUg5+nxMWdG8n4aFdQEP2BrwBXzpuP5OMEX16W95g9Sr39DzunJEolpYLOlL7oB7Yg+jsC98N22f5LfE7+ikKdN9Z4wukEZqK8bRes27M8FbYwaq+WZASRCqyoD+LNwG3/JTTa3/WsKQl4jsjfvgP+FPXB2vToNJZiUuSdWjm4aRgQlWeFOnatKEe0SPNweS3pcyJQw5R0xlJhSxNZ7jDrirGnCXVmFJIm3ZXZHSzhLc1F9B25T4TZVwxaR0WnPR86mEIYetEdNuidyM+LNG7oDHsIfb9md8E1b/DzTs7K+gePeW45A/0iAyfh8DLiD7Not+yCE7RAvbK5GsX/5KrInM8S5PJ2jxmWlY2gBwia+C817kSLdhKo6C/pK699duipd4kucOmuXNX8Urni3ahnsnSIK67ZnirTGD7laBa9MOpDW+C66QlXvjukjQibUF82naCaIxrH7+6vlM20Mz60mEvw7srzDsSNH9YYfPfT24iK2QUbX9/uA+h655xB93s4gjb7z1DKUArlQQy4mWalwyPhyiC0PHuM4epxOQAg/+0BbkZXioGsnZCf60Pf0BWL1D7py2NFZoRxwjs3kthqhyJe0w6GqdakRxIxG1Dm0QoveHWyiqNcTBLt209zq9oKKLqy32m7jLQHiwAPvhT5Vi3O2u3TTq2CCaHm3dZLiEFYlqg27pCb6M99CSYvZJC56dThGmjvsRHqA4BouoXy/eifO+mUYtgzZ1hOPWtMijBeOeuQxV5azD8WCbF/b2ef6SlVK9SMVjA3fA5ykB+/iPdTdp7klo002jnnWCPPVxj5Bz6/62euY8F9kpcQ/bvvSLI5A0QU7e22kJUVzfjjvgwsJ/3orc+3TRV1553SqaFpymHvARnTVq2lCYk4I5gSfG7Lse6e9zbQz6TL2y87dvuAHm0a7JUrd3SV5KnseL3AEXSrg03Ty4ZUPdM7xGbm3EoyeVGzKiJNx7YKVR2T6FnlkoRx5xWysRtv+CtERZZUwvUbWUAu6AC7uCTr+VKj6xvqiyrv50bv7P9/JzTz+5e+zWkZsnL++UKpLfZqhGdevcB2aLF0vGO+8MQQBOZ+suua7lNUb8obe5Az5alE6sxDp80lfDwXr3gBGXusbzBBTVEwjvNNFLAkvOkcDibWWbeePtImRJVzCF23yEmYaPdYQfXvhUEt7FACUZ6cosXhZKFTcneE5yoHvsSN6AzxI+v5ol3F06abjZEPj5O59JwLsGFFE9htuDT03YRU6HjprjvpnwwxL6/0uNnHfJYAj3MA1Ha/8xglNcQo33M8g3CSLURg057hMCNiICcqfQNUdz/s/euQdHVd1xfPMgu3mQF3kCgTzIJkASEiAhDxrvTg1KWhDS0KpVDBIFNEjwUQlCqqVNQqAUChOLFoyAQ8m0ggE6gEB4OYChCAIqyEh4jCgZB0hggMo45VFmz+/uPXd3s+exm/l9/+R1b86Hc+45v/P7fX+6D+rYAnvz/E408EnwfSpYfbvzgwxi5eWj8Rr1jt1wFmt1TbYbTC+auHDxi+vWL5kw4e1Zq9a/Om/xpi/sPqmzRNWMaaJo4P+EgRQ2uBOyAwzC1VurX/1FR7pUfFyu+VPsZ54oUNNy5589Jhc4rIBvZNFgMrrQIEWZRi076/N2res3UzzQS24y5l11Lw8IAv+DaODPwrIBl7/cwwMDDLI0wqT1Smtv61JYSnf0qL7CEveM76s1TvjCgUMPG9caRvsXBHoZZCpN+72WNVIpNH2pFzIs+5Yd78ZPNEM6Y0UDh6HePV2GbUrJz/QzyNYwytst69COtVywt0mtb2P09b5RorgF8IfhVU5Ll2DHpGQM8TK4hXKotnnn1bHWpv3lDvxsBy6xyPM7dIBm0CkauMoN4JbTE9unICczwOA+Gqbjbd3S2dF+dwtX1Na64cI+R3/E8lYXcRddX0t3ZBUN/AP4biecYO2bmJtd6GVwN6WZ9F+7YsGWMif/Vze4gnzG5tV6FryigcM6o2JHPIP9+6Tn5gWmuh/qB3t1o8Jc5ddndA132zcn9D2XRQOHdUbbyRdLDh+Yl5EUXRB5RwXRScH5eX1D+6dm9TO4uwb7sieuHLjh/A17UUfLGnsm26KBQx/Ia+SLFRo8VQP6dB1sVC/qb1386bYT/QeLbx9f6YCrumjgB2lF8IqS5bHADQGDuso7umesv94GoPzkZ44c1No31C5wzEZfdOClUquo6v5Zy8/gwUrr0ofcmHY3Qhthr5NN/cnr26hzvencznrd/oVyI22w0uZzMo/c4NHqndKF5fx+8l2hvwN/tqSufOuezksdrc3tTW1tTe3Nref+2/lj7e4Fdv+mVOAqQx8yrGz2bOAGvxwnJ7kx+cGaFttL4aiNMm/LVOkPq9kYobrL3i3SGQ5kbm2QmSPwYzITIFTpD2RNQa7B8xXm8LqeAHNr+2WYBAEXnOI0np7+kGHoDhriEHKfUJsdav8QXsC3ygQO7T6qyPfKN3QPZUbG2CGQOELLpz8gOEYEcMFZq7A14lEQaDN0FwXlROkUteZTi9Zjh3IB3iIzLx22L+gk3yvH0I00YNhwjbOWMTFZ31GqfwoH4LUyK09gCeWX5HtlG7qXesSH5kdG+d5bp03+CenBfQc7UOIYnsgZuNjasulwkw58j9MM3VM9vbwCnOmtkxrt+u1bYmAczeb7UaHA/wKBg4ZsgQbUfXllu7Sy97q7SyAKYxok1oer3B+AeeIQJE0EavPMXTuY+yaF3VtO8on8OokOELAK4V/gVcMQM5B3YFKCk+lfUfmFDz4eI62/fFaixwusQtgGXncwMraFHv6zdMeyK2KiggPJpk15hMkUBL5IJPDFOlUI8chXW1nhOXFmX91cP9sDAJFbWS7Rp22aThXCAESrm2MR339gXkb08MSUPj4+IT4JUeb0gtyRfcNjtXP9CKPvWxKdGOEx/AYA7o1QGYowk9sNgY9xk2O44oeUGCqQaiYi0k15ps4x3IiQWIpoq7cajvpjAoFP0jmG+yIklgonqlnhqM93k2O4D0JiqTCiyg0CF9nk5k2dY3gKQmKpQuvIroTARbaxmqpzDE9HSCyVStSwQOBPCgT+ls4xfBBCYqlY68gugMBfEQj83zrH8FyExFK9ieoVCPwDcbzH6B3DRyIkpvFYooQBDvtT0pLSYYX8MITEUt7E0MI+K5PEAZ8LgcMimVCExDT0TgwtbGb6sjjgv9bz5OuPkFjKjxhaWH46QVZteBUEnoqQmIpIcofdqVfJqg2/DoFnISOmIrKkm8G4jxcHfCy1NvyO+iEjpiIKUqFNYKkw3qqWhJ9D5x5ExFaE1zNswPOqMODz4Sb9LKymRERsRdjOQO/XZ4QBfxoChx2/hyIitiIqzqFJ8zxhwP8G86OrMZTOU+nWsYWdOZ4QBvw96DsE92wZiIitCDeKDWDgnxUG/H3w3NsKRlZ5Kto6tqfAwM8WBhw2zTsEgY9ARGwVrFC6XI6TlKOsckrHuhPGIorLYB+raZIuR2sx0MZVRK3RDTDwlaKAT9HJUVZieiAitsqmeW8K8+16We9yFHNWWSuUZvIizAKiVO9yFOMurBVOKxB/5FeCgO8Cj22FwOOQEGNlUstHpwsCPo5unK0oeUiIsWKpxWWiao1g/6ofIHA0eGGtLGrpyRwxqK9KnAAABt5JREFUvEfDp27FfBe+IpLalktJTJ+p27/KCwmxljXHqVpKnrIqZfWAgqWjfOUrOW0VnspqVEZyyIe5EmhZjEtknMpUKatJyIe5zJKT2uCp7BJejvIWcSH+lYwcJ91TGVYhsFeSdXiPgrHfJcPPZyvelfEWcT96CIz9VBmFhLsxR5m3CGu+nWDsFwoB/raOnw9u0nmIMO76ScKF+DrYAxeu6MGIh73CaH2NxDTBgC6rZyDwgYiHvXpT70eF2Ou+pZfBGIt42MuLar75koi6slHgkT/C3i/ouslD1h62JyDwmQKAvwMf2YAWbSJjqxXib08m6dWV4Z6Ni4guaDXCPSDg1cnlErR34a84miWAiGA6LDNqhHu23giHh5KtI9whvH70Q52rE1/MSeciIlH5qujY6hFo/nASAI9ENlxE+Ot+L7rY6BW9TTrejfJREK32RECo7TUI/AQmMApQjwhKqE1An5sndKpO/DHswklRtC4Y/C3ToWHXOfyEC1EBLfLC3W71JYtOuks2kuEkoh1lEwCwXnCKcgOewoWIuBG/BgA8zxv4PJ3shxAEw0vxNF8f7q4flTrNbbATAjf5WTvP7wEEHufM+1M4wfcD4OEIRsA2vUFoAelrOu4uxp7IhZuSaM3qXuAL/DnwsKLleCgTpDRr35MdAg12xxTrVBmFIhZ+IkwBWgGDN7gCX6VzCo/BOmGeuzZrcHU/YHCYa9f4cTo1CMORCk9Zk142QghPc+T9e/iopjJc0YUpmRZN5xl6+ZOF3oAyIgCh8JT1SrxsLzyJH+GX+7ACAi8ngUcjE67qF0GpIOWYyKjasrWDFT0MmfDVcEoOhGUTL96Lxurs0UMwm42z+tK6iHPzcppl0clIT0YinJVlovQ24tUY4chE+JgOcAhHHwDuMtPW9OJPBRQgqFpIFyAP7rLaAmypEXAym39YtWUDJSeFyIO7gkyUYJtl1HccgB9UTfDjWEMoL9im8tjlMcWXqB7RVoGGuqKVRstzshS/w9xedbIK+A3QBAHTk0XI2+q5Wq/C8S7ra9HfqB7w8RoSeBrCELymlyy18LxCefg51T9v2QiCLjjBRcdelAsqIJUsb0l/vljNu6oMJ7iMNd26T1/TpELCMPNl0ftq3kW38AsueU1XdTC7s2+bwizCNlXNW5Wsiq0nZezTK9RTvJJRXeHfN9nw3g4alZmRgzB5GelfcUbNpV//ow3voq9J3iYsERYowki7pFkNZjyDz/e6Yhvelm+wTZk0ET3r1BUJd2aiy6WkT06zxW35CgTR/b2RgkD5Ee1PlJtqNJNdO43/cp7G9LZsP4DJ6BJFWKcrdTvUcA67QHx06eMauC01+wDvdEQgVgNMCv1oZrGMmtvVWGrpF1q4LZfPQo8PzHuQuG1Tys7YAHrkdFca0M6Z96gmbktxLZplS1YmOf51NbaMZjvrsDx91kILRTNaIO9BOP7iZSYJtGhQWjHBiUk+eu7iyTTclsv1kLcPVpNJPpnZ5L78vxXK647RfmzVu4ctdO1VNRk1ohm+FEWREKqvabJ64yl7s3zMC29+aNFV81rIG09kbjHFly/VxjX2NL3X9HcfvfjnIosdXdmi4v0QDr0kJQIOF9toyMY+P2GOqinK6CkfvXfwFxb7unxchVuJxFITWUo1ARL79uqAG1U5e9dfT5euLz39zG+nTlthcVBV+9S8zWjoIk/RkMXuvRa22nGyRM27D4bQJcrbH9LY18SU9806NW7FJwhHXabSVDzqmtnhrjqr2PLGiKpc9RiqIrLgM0a4t7WU2fLug/NbtrJUi7pS9kMxi9ldq4FbMWOATb4CbbCUt7tIu/hKuaKlSDRzcQfl2oCpOFXkAu728ys1cSsZeP52C/Uz27L55FoXaddc/bpMG7cxFIfaTRQUosGnvtF52ns3N1QrFPngfYn7KNZfC1HDbed25d+WlyhURePn252UadSktLrTwThM+9VjKxUd+WIVuJspXJu4UnL2lJ0te3HjqZY6RV8FGE31GOJ3L9E2bqj6jxbrf5zZf/xWhWJPIdjuwC1XdX89aNWrl13Yeehox7XWqqozHUcP7Txeu3u54ogikvFyzE13biEKe8UkYSzVfU9nZua4o7EdmTvLL5gpbmPuABxTd9+6+TLD3SsZt+YeIO8CJrRN6SPQzMNTJrmPy7gT8jDLwYPUb5i/K7R98jFo7mnySu7ip9xkTo7H4fNEBfRNcJp2SFwgbtM8WJlxTqzsIdFpeOL2ePUMj+vlQHAlJTgQ92jdRvHZg+i79oiUuOzBGCnvfnu4wQPzByUm+D5wYP7f2IWljcStdAQNR5eoDfcynpGJiYlrmIyoAAA9Li91fKOklwAAAABJRU5ErkJggg==;aspect=fixed;" vertex="1" parent="1">
          <mxGeometry x="405" y="516" width="12.22" height="12.61" as="geometry" />
        </mxCell>
        <mxCell id="JpfB7zD26m4SBqy2sYj4-33" value="" style="edgeStyle=orthogonalEdgeStyle;rounded=0;orthogonalLoop=1;jettySize=auto;html=1;shape=link;entryX=0.993;entryY=0.665;entryDx=0;entryDy=0;entryPerimeter=0;" edge="1" parent="1" source="JpfB7zD26m4SBqy2sYj4-31" target="JN2aCoUtrqrgfyc8CFwK-42">
          <mxGeometry relative="1" as="geometry" />
        </mxCell>
        <mxCell id="JpfB7zD26m4SBqy2sYj4-31" value="&lt;font style=&quot;font-size: 9px;&quot;&gt;Postgres&lt;/font&gt;" style="strokeWidth=2;html=1;shape=mxgraph.flowchart.database;whiteSpace=wrap;fillColor=#dae8fc;strokeColor=#6c8ebf;" vertex="1" parent="1">
          <mxGeometry x="633" y="580" width="40" height="40" as="geometry" />
        </mxCell>
        <mxCell id="JpfB7zD26m4SBqy2sYj4-32" value="" style="shape=image;verticalLabelPosition=bottom;labelBackgroundColor=default;verticalAlign=top;imageAspect=0;image=data:image/png,iVBORw0KGgoAAAANSUhEUgAAAfAAAAIACAMAAABKCM5QAAAABGdBTUEAALGPC/xhBQAAAAFzUkdCAK7OHOkAAAMAUExURUdwTAAAAAAAAAAAAAAAAAAAAAAAAAAAAAAAAAAAAAAAAAAAAAAAAAAAAAAAAAAAAAAAAAAAAAAAAAAAAAAAAAAAAAAAAAAAAAAAAAAAAAAAAAAAAAAAAAAAAAAAAAAAAAAAAAAAAAAAAAAAAAAAAAAAAAAAAAAAAAAAAAAAAAAAAAAAAAAAAAAAAAAAAAAAAAAAAAAAAAAAAAAAAAAAAAAAAAAAAAAAAAAAAAAAAAAAAAAAAAAAAAAAAAAAAAAAAAAAAP///zNnkTVokjhrlP7+/vr7/P7+//b4+jxulv39/e7y9kR0mkFxmeXs8Ul4nc7b5Y2rwgQEBDRokZWwxn+gupKuxeLq8PL1+LXI112HqLLG1m2SsGmQr+nv86K6zQICAnSXtLvM2vn6/EJCQszZ5K7D01uFp8HS3tni6nGVs6m/0QwMDD5vl0V1m/z8/eDo7lmEpnmbt2GKqpu0yYmnwOvw9GSMrIGhvNDQ0MbU4MnX4lWBpHeatgcHB1B9oai+0Nzl7Ofu8qzB0u3x9aG5zPT09FlZWSQkJE17n1VVVRMTE9Hd5trk6zZpk1eCpL3O3Iemv6W8z9/f301NTdPe51FRUX2euYSjvRYWFlF+or/Q3Ud2nPH09x0dHZ+3y9TU1LjL2YWkvS4uLgkJCWaNrVN/oyoqKvHx8Z22yurq6tXf6Iypwfb29t7n7ZCsw6KionuduNvb22dnZ9bh6aioqPX3+W+UshAQEGFhYdfX1+fn5+Xl5ff394uLi15eXrDE1Tk5OXx8fO/v7zIyMjY2NsTT35ubmxkZGcjW4U57oM3NzZ+fn/v7+/f5+7q6ujpslbGxsWpqamRkZHFxcSEhIe/z9nR0dMTExIGBgZeXl0ZGRpizyF+IqY6OjsnJye3t7UpKSry8vISEhG5ubvP2+ZGRkScnJ0x5noiIiKurq+Pj426TsYaGhmeOrfn5+bS0tKWlpb+/v5SUlMbGxq6urkp4nnZ2dre3tz4+Pqqqqnl5ecLCwmCIqXh4eOXq7lhEXfoAAABAdFJOUwAQFdzqAQT4/vALVxkIk+FdQ0zm9K/PovwvJtNqnQZHK9jCmiB9xss0Yqc5ZbiPUD8cvXGzbXZUl3qHqoKEPIudhfo0AAAgAElEQVR42uxceVxNaR/XetukZVqkkBZ1W2hRSTNz77k31ERSMaXxipARlSlEorSYkDaFYVosmTRRSmpslaU3kXUaxmSnwUvyMhlen7f3M8Zn5jzPOffce59zzq2379/3nt/z/L7n+e3PGTCgH/RCeaBaD4Yq9Wuij/LrYKWj5eTuxrWzHKKgq8rh/QkVjqqiwhBLO66bh5OW9nC5flX1bshbqbtoOusrqvAogqPgaGKhZdNPfG/D0OGuFtyRqjxJoWhpMkZbvl+PvQEOOhbjTA15KKCrZzGsn3VZtuA6H9sp8hDD1MTaqF+1NEDN3GaYuq2Lhbu9m1kP3NzsP/UY62SrNUrbykheWdS/lQYbcwfx6IIu19q8z3g7OQejwe8x3FxejfFMRX60tYfBCIWPSDWuoqow0tns4zGuNhpKELKdnFV5dMPUXntorz1Mg3Vsx9pzHYfoqoLOjqM6SN+Rq2lhrD7anN4dqtmMMbEUmynDQY4mY9Wt1N4/RMOaq8hjCB/pafWy+F15sJaHgSV1BakojtTTdHEdrIZ8JUbWJqYq0plZR03jYR76KjxGwbGz7iWcy2k7GehzJNymiq6jm5OOESJzb247TpHXe8HRcx0o42RruGoiOQkcfQMXKfMUZW17BV6vh6qblez661FmiDWs6+wxSkOyAFHHQJXXRzBkjCyadvMxdhx69qur5zJaPMOmpG3SZ9j+I4QzGyxjJScXfXp3bDjS3pWqgXewkAFLntD08FRYblrtpSttv7158+Zd271Ll9Nyw06VNE2V7IEjdGSm3yZn7chM/Grqpi6adG09FfZo3noy79Ldlu6zOal8YqTm3Hx5veF42FUxqTe1lYnk3IbLYdSf2euQJG4DbYewQvSsdbevvOiu+54vFrxzWl/cC9sqhnNzUmOZ7YHW+sxr13DEWCuoeZNzYSEFW5fXUF14lC8FSu8cS19HtbXmwiblGu6s5biKBur4yFXOg+FAbVbJ8Qdv9/LR4FZ3Q9guSjt3Ysuwa2hyeGzC0NHpL10GtbES0Z2wqwcJs8T+3+Hbd++g4voDnv10NyxBtOxB1kr/h3S/9+gef6QrSra6VP8y9errtLb2553/rjvSeNTzvarPpZbmxL292NL+rvb2zvWiIrP0F3GefJqQ2nnpquhtazMemNuLQXdESVj6pWvXH7X+dLbu8a3U1NS9exsbS3MKb3Z1Pzrza1ttbv26XZJzruBuNWA0pUgiov7gi9bKc6KVfrSu9XpbbgksiE4IO0Yf2X+i8O5JUXtxZrRvrmxMzXdH1F/+V/XNUkouLK6zJ1N53SRZZUa05a6/97xSXKKe1VU33P7rirbWvkzlM4OcYyI457gzF71pU0h9tuZde1kpwVFIjfv9bm39YZRmf2p9Q5cUUfQPFxvCInoes/5gVySfSdQ1fEvuyl0Zct7jRGn44eWWSik3e6S1vfZkAgK21x//vVF63Ueeba9+xmccnnfSSHWg58AA31rkwXBE3pkjqPZ7rvDAvXppWO85lN783o1b7WQZuqox3fG6gzOZgr+90oX8HJyLu378oUQJV1r3OX4fgGf3z2QVdnrn36xJjvfhg29pC19LL7bVi1d4Lnlwi99nUFhLbOdUrWnMxbjERafbF+n2camtbyiTnntHNpjyvr90clTigqqqqgWJUUnJhySO+o5cIU5cnekaZ7cibDqub6tkRoF7O6+UiLblByvZJPnzxBUnCsoqQoJX+wgxPIQ+q4NDAv1SguZOHy+mkXsXQZiV0lOGsSUqtTw88z2TCn3ckk6Wte2695gdoiOjwrNjn8R7YRQh8F0WWJBZTj2qLL1CZNhV3JWR0z3UjMhZVjMfCEe+fUdw0KcePMKC4S4vCgjdk4FJBGF0YPaUiRTf9Vqior+lBmK+5UfABe185MmS5cx5EAZ69Lw6xtcxOyv4AiYtBJuKgyZTkRYXRmTWR6Od7Ia776YWTza95a2W3L8ZuZIuFhZxKPsVhga+gUFLRcvrJGitGDqhHGqBZmMJb1L5bGPv8w+cR7RTTrs9Z1atmJGyPyswNOTp06e7d39Rsyp/i993C4NOV80U30FFztiDoUJ0wAZRZ+joNYKA3QBZn3wY9C5Wbo44WhmfXD4lfEZ2wH6/srLYrOLiLWUBBWtOzF4xZWOylFaiseXn/3m225RitftTFsY+2SYkUbm/T3So35rTUeIQ71kUj4xybHHxP0XIziGoxFgiys9cYeH5+ucUdZG0cq1fzTay2FWwODokcFp25saJknL+Q3v9AdGv3IaULzvECKbiV8WEz6RO+TZ0lGM+WRsmkIo7AG/ZD0Iyy6wOu/CeR6HneX5uQWi8UKyNfpV/I2jzIRrKk5tvLBNKpPqQmJXU1uN9whch5djXMUmkKVo6vOymTQ/fh6tFbT850+8XCfMUzL+jJqAoEV0r8nxRhY9UIXR0WTgV0uekLEJJuSAknMzZPYcWIwy1pLbnEL7ryb2398riZun3m7Fp+doq6VkfH77EC4X2f7mxb4JIYT9mCTCkxzzlc5JqK9yTu0g56wDx323nyNn2Qbdj4X9ig6ZLQXeU3ySE0VRg+BxRAhN3I2Uc8yojtuyev0JbC+5Slc/B+HwXiTn3nouS7Q+KXrVwoySRvPfsZaiXsmhJpijOi7ajFZkRGEUo6yY0JzeTvEduDo6uNcURip+IrAQB0fSTlAUTxKJ7ztpmelayfC75Qg7ForXrmKCCkPLGXGhCLmllXQ6cXdtJmO0mB0zC6IXPqnmTKdOdspi+hXTEkKdr+zYhFpixhUig511YdZ0rGePKdsCTwohm76O2CDEm0By7Yg4FYz7Pl95lCGpII+jIGNTaEAYQ5QndsGh9nESMfwoW1wiGPzeG+mOM4ULN2iRyvk/vYeLVyyZL1RLnI49kThC8YnWwoTeuBH7cFXhKOjw8n+gnwBhGdEwioa6TQhlahJcfiWWPvIFcKcFVBI4c1kEzEZtxIyBAT4dnxZm+GBtozoRb8xQv5taQEVhOTPkG5EGjIBZuVJ4dhzCuKe7AA3B5Jw96vifXYOzgC6gvjwpmdhWCJcSUH8pHLu7VabioaxDGPcQjXBP//9cw/x1ZcIElvufDOi0T1jC/HEEFcWUoCL21yb8PlXQdEqwbi8O3DpCPwe5vTI9miW6sORmynB0hrKwlIyuZiPHyePSHfCVUUjVYdVMR4yqSHP56XhMs//5mEVt8+8BO1eZXbC3HK+Y8UTGqArkwfz9oLNUNjkVwPqFMuAG+nnoTEh5N82dLwRf2QXa8UIixh44iokO+JgO5sGBo/ekOyLiikaQGHVI/v/+UNe1mQEIX71iMXSwjShTnom8vLIJmKF3g4LoptQ/6qeE/Bn4PUkmNZk+3JyAR8ROMbWTsJ5jYSUKvKv9psCmot+AZd1SWpMRWD94imtzMnmZjwK0ujcZkAK9WEDjyL2nISmGd8tYEidLx4biZh8PgvMPGxeypdTnkDK3GZAP5O+Atjv3oRW2DtdA6wVidwl1DfM8EHFcsn8SeTjeBBZfpHZisYHE4/JAvRF99njQXNvgEhuo24kZsaeCB8mVPoxfAylbUdkyGEAgvf36DviQkDILIaQdHWUUMLyub4j7WAtyz/mwbi/qcB2xxZgcmU/h6A7y0jt4q+qdA5PwGXicWcUkU9/PfgYB4PovaXAWW1+IxGUNGDLSRmUiDIZoGiRfSxHPjQ3EpWS5Qrw5lUZcdQGx6/itM9vAUWmulI7MpBt+to/XAtDrZ1VIn3P0xIEJPYVGRAsBaRoZgsojtsICKv5SGwYxAkPFSYLSRS/J1ZFwR/Rr+aSsFLOrxO2Bz+ZhsQvAPGOOfbUIvKR8swRQCJTfiSN0Y91km/LcdknzYtJSesmRuRGAJrJ/yIw0FogrwjL8EvvVEGKLjPHgL3oEvY1GFXkkyZW5EIRo2ebeDhjO+BRTTgGd8GNFX93BNcLy5WMimBoEkhFVzQ6EIsxl2xmlIKvzAVhL+GpIlAeG4uaaL+DjTi0X97cG3gccHY7INIaxnmkxDFaMAvECNv08M/yLIJ3//0Sm8Qd/NpvqASY9iTNYBrYwk0VAomgHeIMd/lhVK+H/Ju/rgqKorHiqIRcWB2s5U21IVrdShWLXT1ilD9u3mO0vAJLAhLJBAdvPhhhAIiXyTLNhMIR9rqQiJNFHDxKTZiTJJp0WkraVDrDEVmqpNbCsdS2uAWlurI3Q6kITsOfe+u/veu+/d9x7nz928l93723fv+fid30Gyuf9EN/GJXDwi5dIiWcAaKTmYMv4nUR1Zp/sE9RHTdHhvgmWyZzDlQeSRmYI54EG3FQCXtlL094r4U8MCBP3iT+gRv5sC+HfZVbKwyIUjNsdiyRrmpdAiNvNnY50lkns/QoMjKLPQoTbX04iHXi2SM0Z4bLmSVWw9hVjcwp8OeAlvJa9GTb7MgH/wd3SDcjN5bCsClgFc8lNYETpkjKqinOLTo1BVtyHZniOZAtesF38Zr2Qhqx8kEdchxKjBVHVUFyfS6FB972V0+VaRS3bEih56BOJpZGqE/0/WhUhPF1AsjjW9boRvv4liCaeJHvD+DGsBLq0jKYce/gmY9SgGfJHtp38eamKbKcuBH/AsyWq2jCQ+lfF3QxDn6V1mBWUa1Gs6h6JekS76CM7wuiwHuFRJFs9OcN8026D6zGtQHGLqNNaO/r6JnincWJQnWdBGyI6wdu7/BHWkILlGKNMI55l8glwMkUm25WidTkqWtG5C/CmpWOel+g3jEL8e+ugfIpKtyJXCVcZl1gRcCpMNUrwdtzoYDjwBAZ8bCfj9cEjR8+bJY+IH/KBkVQuRHTy82eooFoezLCfL95P9ArHvRMZki9A+WG9ZwJ0HCcSP6/t0oHx6JHsVavAdMw91bB1aonzJujZwRG8WZgrkKJ2DgM+MGGID30GzYkRy/VGrScIWCwMuNRFDTXo490HCiOZjWaVlGJT9HjXrCVyiAKou5kiWNj8Rjh/hqxABy8jvI/G2CcDhVLI34GdaKXCFKtD61FsbcKmb2NQPcb1/Obz5o3JUxjtY5EWR3TyoWXSzZHUjXPUErtTvLfDmr8DhZjJH+CoooRsU6KOfR6szYnnA64gupGqeSXVXKiPXdsPN44DPA6+/Yh7uYj5SIsi0POBSKeG4cV1gWCP9AzzEb6NH4adNk7puQp0Q+yUbWCXRDcazIxIqXL0nk02/k3GEJwnMow+hZjyXHQCXshw6ErZgGPsPCPj4zKMpUDn557CRXeDSLLVM76ASyzyp46YOn5GL9ED8NlYULrCfbBlalwP2AFwqJShP/FQOW6F6PgR8AbWH8HHTkNlQk/UiyS62nKC/cDusiqE4AD3zsoCRSBd4hGeihtts2wAulehGhqiEREZ6hxlUZnsX/vbErcp61Oo0YB/AXVh9bC0vORA/vC/UZnxgDHCo8/G8WRjB6DGokWxky3BsVsDpxtvhbX9Ay61OgtLo8IolwtbEGTRPhpe/EYqxnJTVS1kUiNtHAb8PvPhHs/R4eFEGMtNWgNftxRpPfNQWAvCucMbVdaOAz2Hl2cT5bD7z1OwM2dT5ZBlS4E0P06on88GLb8PfnTgfPc0e3EVZwx3QiX06AP4MjdUGhR8uQra8WbIuS+2GtzSAJ1k0cLlrDIBDKZ+j4IKQsPUY0pMnYArzYr+NR2XcxQL8s6OAA0r6NtiRJm6UCJLZ9NsPcAmrPHVkcgf8MAXwaeC1w/pV7hSZO9UkvoSO1tTDX3TBzQJ8dEv/KnjtL/ACYcMlyk2kIKWb4WaUpdoZjU2ssGwU8FngtRdhU1mdqLXItaaGj8JgHA8uadR8yz5W4uVzFEn8M7AzV1hQBtNs/QO2BJwom23UXDXbwkqtjiZe7mbo6QpjiaKGkxOSTQ0r6nVyjma3UVKrcJDw6+bg/Yd5b3UmtS0o3xbUupXBWO81WB79GiXv8pg5wnA0DqrNroATU3sWa7wflCj9M031405G3kVUrSyz2f5B2ZhX3c9XXKWV1SH+EKXr5IIpSCZttuooY9ohvo46pMQ+Rht+AugPPzVH3gWp/FfZGHA3kvRaqK3RZyVLyOk7VwCfyqCsihriiqLwszYGnKCpa0u3HWfx0h8mM6tIM1uUAl6ZObIBhlgAabEWcYzz3qbw0m9iyTcJ0rBNv3aOcMojrmnwBCTSvEWZUQi6EFahSYSCGkfzHCYp2RnziHs4yhZB2sgbFM2PLzK6EFYLWoJd9i+NRhoiNCbUqr9VXRJL1ec+crLNKTh0SdAKwOarZKfNAU/v58ZuOwvv9GsI+GyyWPZXU3hLabpQts1riIHfrD75MswqlsXfTIoB/M8MnaNNtmwaZVhtAi+OOqQRrF1FIbzcyJguu0/M919uIm1+Y6yBVxvKEpaK0+2U1tEzZthMs0zCujHOKpHcpGrGMqzF/Due0lo2hzHaRhDgUNmlJ9P+gKPw2TGk9j5wGtAHtG5hOEH6HTMAXmbTtnCGoeKBam8Zct3P0PSzIeDvmQDwFOjC7LgWAE9BBNZL6m7jhHyKUzSJF9YTLobh5LehdJPCw1ct8wRRGNfQRgybD/ByO7cJyxniolWru0svMwyfHRVwMdMmUJOR+5oAHIuMqksnQyrgSzAMnzqFAvgxEwCec63Qm1ixqDo/HVbDfwwf8DviKICbISzrsJmeLrJ0f29V+FBJbn5DYeHB/Bzfjvbw/rzKA4iY3aHq3rAh7z80RhuKw82QafOYRSeOtzUVD+XvJQeYUS3BrX3p0ECEb9BE2n4Jh7AIeQLUUPMDtX7vyMjI8ufqm8ypz1manbPQocTUNFchgZeXIeBfog1D+K94zS6k1tXL/OPM7XlZOQXVIPxMK/B1XqozE9q1SzqSHApNTcnIy1JLH4vK4r7NKI9Wi1id7lh7EErzVi7qkVuv5JNhk1Af68oLFKOt0n+CTnrCsxDwz4wCPpNBgAiKWCBY8Emg79ApxSVd0ZYsaVFrinC4U8IrHKpMDfkExjcvxFPHlt3PoDj1iFiikqibzNmKzWtjWzVPe7rYp7szzaHWVBBId4Ib/I4+Xfhe8CokMSaKWKRCdukkY3GHkmXrbxfYaVzZ5VBvyqvCaP4FKp3cNQY4FIBYA/+piMUqYkh/pmQXJChduIWiRjoMlCRpwFtFA6WfOVz4W2OAz2bNOxHRiDAo66z6fT2qli5HyFHepuXxViWJWMWS+xh30tFEo+8LbzVyyXDSXd37VK9dl4B5hr3J2vBu1ur97IZ4x08aHyQNXn1UeDNhLTX/4M7aqGX1ks8b/TX2J2jD27FCa076TYj3LVeHlsHJ4T8RXYteRlHcbAppfFwciQarAlU4tFqa8r0xkTXR6KGrgF8HXn8BXLTBeMBHiMbRjJJEzcvnSDXUdctO0vyBm7U+Kiix+r04+gyri7rOt45lreDHdqWHOMB9OT4bNu47nI+SJhjcWXAwx1cSCpXU5OZv2tM1SNn/PVp3FajJFz/vKuBfB69/ILo+CtODyVk9Dk6WVmvUV/hoUDb5V5YT7j1AJg+dpet6Gxs0Ztpgnm03ZD/EfzOOPpbwnOheo13qz2kPu/RYZFAdzblI5hd3fKs79r1NOfGjjDWybPLEZOEHzaXE6FO8V3f4lpSvz0i53HLodNeer6jZk8ivAMXLYUvM8UbriWzV9qy5od9wDAI+dwLweawJGH2GA56vBOwyX3ebk1ZaaaFhzndys5w1UQ6h5F2lSg+zLsWBPzPPNn8C8HtZmRfjA/FNsYLtaelmrGL6EGXdu4zYsFooqb7SWC7coI1tdIjJWJ05ATgcavTIWsHiC7Hl04Kh56KBl55LXmaAouMWIiILxvjU7NBGIIWew9F4ajGcknl5QjCjLIYMdE+uNyaNgDwP4TfpL1pDHElHmiILKsPZG3wt+Tkl4eUB9taQrzTtspql33RLBN5oBMbrgonK1dHg3lcVcy2kjbjZkN4ffzt+wAsmPu26DR0RBczUQjS3BzYCKp3Lh5hhp2mSfHG0ITcfCiY5DbJdcl+9osQ8Rjyod2iGhRWLxvF2ZhcRTiQ8MCF9Qek00jBT7OPBSMDnM1htSYZXxFlZ841ZzEDWlV7qRnt9Pb6dzmKiTlTj8YwT64Z30vK9YEC2R5P3BHkjux+hyPmM2xxWXGa4gpJ8VrK6Uf7xdHpDe67sDUlp+3Ir/BOwo0Y1vZnXWPG+dfxj0L9Wa+TxDt9SmPt3eliam1OvjwQcjqJ8Gv7fJw3GO1MW7iqGW563FCWrj5+Xi5L0LfHvQP7GmJhBvczPOFLNBAkKK0z9o8rJW3Q+G40CEb9b01Gi1VwyaclO1uHbTrli51Z6HkTfAWhoiImXnT5MdMtvDk2ajvA1smmXyzYZvPkqP1lAXoAn7mKGU14ZZncGJZ+hb3mgVkY2tZD+CYEn3gi/skKhE5ivuoAo6bMg4Pcw6mVGN58MUNalsE9dNjZ4hQcY6DHOKymX0TII07ct4IKGtKx7XTKL7XLDJAj4XeDdT6Ej6RL9hG+M6r7I8pYXDlDO1bCOnx6qlade5SEGaAStVC/DzVaYAEFROGIofwHijeplPxTqptfhZWmJ3kbZIOvYX+lErIevbdLx0xfIsQkqE9kuOpFiVJh3yWIe4dMR4LNY5RODp2AgL311LP++VRbwQkpGI1nHCspGWYJY8Wr8fKMxD074k1is5Zf20rNybBcaNX0VdNONHtQOv3dMwy9SmuUAP0Fz4vUTjXHBvOoIiJtgt/AKXKrt09ItHIBh37/YR3jclFsZbrrR2fRmFfuLLEd0dCrTsJqOc1WJdFZkNdA+4VglhgJRUjbK+k7y4MWf0iQ35d303wrtIK1WkWB0bpYpq6XTXFj9BixABc1+HFm5Owsub+ypHVmU+ninFqpRDTORPp0A/Mvg/dNaW140GRShzIrtonS6ukIVtQ6lX6RZHJWz4jxb3+eKATOFnxF+/V+tYh/h2E1fQ88WGWQFqjyIPlpVNUQvYSXpVhR/kt34quB7Fyq69oCDVQsnjvC4uBngD54yLm6NWvWJeW74R3sJvCeywnA+o0O3vqNGiscYqwU1uMrIhzlFmzjKyqYfZTTs6m45KnkfAzXQRQ4Wy3rAuv2EK9QvXMChPDq5aieYdLaHScBRNv1jbfRJbVaiOkuyPmJX7IHZd48xXpsGwP0aQscBGOP/DNHZZlAAf4ChzpdgLAcCnrd7FF3rD+28zCFKO1iFjunNxvyE4ZbeoCELr8hThr6i4x2I961foQC+gCH04hg2FHCo6aN46ooro5bik+0ypj6wX73jlaWhsczHzKvOpeCN1Pn+xsz5/p+6aw2uqrrCFzEIKKWtyKvWEcV2OhWn2FYrtcw9N7l5vyAgQd4wvCpJeBUoIBogYYIkanjYSiOCji2CUtoAllZKH/KqRFpbp6NQsZYpygyotbTO1Jk2ESzrO/vss/c+e+1zXT/h3pNzzzp777W+9a1vMdvDHJy6uYIeZAa717wxj3KqW7XQaAro1i+T0NkuWj8ZuDrNqcMfidhDqQKBcU0rHmu+O001P/6B7ALiTcn+Iod3ISOGk38Wl/GdGD2QCu1ctOKUOEG3bCfMMcrl5n3586VJWc+E0HpLBmHUOC2Jn4X+cA44h6s+QNO/PI17b0qblygp/Tl9SDQzPARc/ZmbI09hldiSx18RVT9FLWKkUICG0hqMkNQZMFxGv/p6MrCp7FK7VjZF3GnUttQn+WHDaGmCbUx2kSkovdC8aRd+2q+BoNxd7HBKVZ74THzCHw1RyoSBNs5NSbzVtA5L04i0Tq2MnlYooTxI7O9E977kY+/HF7VVszCsytzQeCabpjfDjMO9Yqq3uTYp1l/02eckDWaFLrG2Kp61uNsJ236+KUxYZ5yGw4g7EOu6MMlIYH3Ix37pihQkCHx4irPrI/XiqtpOyp5TH3w+xrjOtlgKsw0I8jeUxH/oRWHURTMJLyyCjXHSYTaHPjf1TldaFB6jsSFSNtvJieGVso9sqAxrc1ohzY3SUxdooAbGdO9NuYaI3hpT9SEKTHovJiVdo7Ko7b341LvoaTuXBcBj4221GqY3z5oW7IGTvw7EurICHQ5R2z4W+EPJWli6Vx90gyXRwtUo5e8tMAQ+qmgp/EfLxKL44Vjb6vjEnIpYEqiq4D5dmwYxcxn3tgZCpbvUYDYB1vYnx9IogS+7NT3nUwLCOjtOqLw/0WR6j2mMDuJs3a6TOJzKtSWfdtaPhbacB9ZtdKJOVdFiRKZqMmRZltAXpf5JiZQP2nW0Qvp7Wpau+MQ7fIabtnf6Z4oUn1uBIe6xRb6jXylzeOKLkpmUtiBtFSvlkdKjTcPbuO5+h1FwWGUYUgKOvkGtcHLBPiXrRlj0iXf4johaxWbQiyKTocTM4T9IS8lN10j9Dby2WYVx0ZxKebQ/Kd8snc109xVFJpBelRltFCqj78KO/mm5w/vTTz8ejT2acWf4PEcdc6AapabKD0InqqrPFObx3oAdvZPc4VlUc/UgXRFVzhw+nictg/4rtsFWI026XLKNKkaQA54cHjTWJsAGyWhO7loKF/AEDyWO+suK0ybRYa6JGgDIfB7U29ETiTtl5HR30AsP0pbKLnQCtWEdRHFPrzRA2rKXSyujITG6T+oleZJcbYkzh9PfvpPpRdrCdv93eQaYnkngArStMxO1YvR2pfyu5AvvmBbzI1ob00p81gm26gsW1MLdWoObgwEAb8GOfnuowxMDJHpt7uS7aiKI28is3LTkrGu1BuKu5frd4cdAKBrmlHXrEe5wWjD7wJUUjjRgtVene8gVsHDc029z2agPwQP14buwwPuE+ztxM/nGk+ec0MBCMAh7g4hGO1L2wWypSIVzPE2/VrVEOgIB5VWFRmfHJ193A0aCVXMxFaaZN29rWqO+8vkmbV54A+X+Hf0+cF26KDgcoJd9JvlFZGvgAkianXHUwakAACAASURBVBV87/K0OajbtXnp0EL4TjJMqktkXyPf2RCLBudSrteszrx5W9NO08VXqMB70e48wSR8tTJ78VK7g3zngXQcDUdsmDeNpdZz/oap2qDVQl1qFAg3noRCWWclfye+Qr+115CRF8nGsrQLp7A+2sr5GxbR3zA+HMMAxYIPNXMO7x+wwG9Sc3iPKyT1E92hDIZGy5i59i683UkrQocV5OuGbcc0OZbFNdIWwq4D1RwOoqvQcDTXicPp6njF3oUfdihGBiCYggBBi16rzzB5En6Dor9BzekxL4pmu5WddxTXCud1OBzJCgyxRj2wBgZ2/g0c/iVVh382KZlD6kahr46LezbMJaMDHBJOkj2ghRLAC/X8AyDN1l3V4VA/+XEMusrTuNLlHe7OcN+Wmx/KH1mhFVJulnOb+iSUjTYcvawPGVmGvC0ioCPcRempVMkUTeILBWtaQtDIGmklXCi2GWDfkI0/cTJbmtaN7rd3YYd5uA+595aHQSkgHVig8e56PwF/98xSd/iV9Ktn3B/is7mINsedIW3tBmp5oSnOPA1EGVG2f5kl4R02OCkZWudVO3B4JRcxxR2W3mEwTC3sCCnTqArvoZ89B3WTroM1HJ7oLDvEHWTiOVGG+0htv7NqWYcBezWMBZpdo/6iH5A3GA3S8TeQIOAQd9COcFoXYzSMBtkrAzkr9cCXUmXVoQZa4/A+0Oc2BfafwCHuAE6fx1aTnepEbjUoZgilOk1Vzk7ovEufHr5SJTzwEIdM/LxjKN1i7QQkSflp18WQmU3WCeslMWVBpRxlG5LQs86ydgT+mvgwLiidq2dNNWjw0o9KP71VdS+lNQGv/jnDuon4EAcliDHsT6mZTQOyzXX8uZTyIELCBtrq3Rb4uQqYSf8qLPBbNf2Nh/haJzLEQaHVDIs7rKNWo0sMxsTXnNbItQJllIAv4D0RKWTzH+IHHQsDzOQq0E131EwYXOKQ/5o5ivcHqi7/AX9f3UXX4XCIr3LMTq/kmjA2yY2ANjGq9+nllqnvQEFp+6N5ci7bt7T9nbhRNqZwBvMjKmFT16Ll8N0u/I1qgNJiREWukv7TPdBQNjwKyiaE06kwAOe0dcHGZlE/b0IMtf2KWo0lvlxlbysB8hQMjg7vCU+EzqX8C1cniMrGa1EB8oCxXnEE26mxxFtVet9GyJkPSv0mITXxN4xUauyk4TY33lKusqsUIR8FS/y86hu5XwmvRQ2AzlkmDqdyTrPOmYq+R994LfKQCvJiaY0EwrKsGjFGIVgCZU/sGBUPpdMltlFh5ULe8HY018Z7dzzisU0wyb6mQRFyWqMCurwE/u7VycjhnfrKJPp4eU6Luapzi1wXBYQAmqwqMiJ8c8OoH2SbgmaUabLTX9ABCKPaNq7RJPfHkJV1LHFgp6QDERU6i3q56CPl8jpZ8npDh1N1n4knHaKrs7lwl1aXkYjs2A1kXtAG/1OCT3wIl3o5EvMhuMVsl+kgDwNjUuVLHatxT8cUn+KB2ALNSAtD6wzez5dpqKNLrUsvWYl0B+fjKWIZh+CDtR1Kx/oC9SA9LBBl8iNcT+VJZxAmB2SZOhz6xA+p3TADlD7X2nV3ONylcInPVmO3LQwD+4H5XI+gy7XG/k58XYau5hYwPp1TTFD64pg0yERwW2uFSuLoAxkbCuUj6bp1N3c46OzuY2OS+qyFZ4XntMWkMtgBtwGiHvAeTw+hhNMeLO/oYxGpTcR6yrTTObtIV/IctePiG+EiSJ9HNRk4vCxX3k/W96ooDqcl0mX14SkiC+JtjXhWF5dS8EcGdXHx7wpxeHMI06VPFH8nbk9KBqBwhjx09xth67K0+zr3mGOHnwVnFVWFn+HQqltMDyXv3wi69IvkcEBXf+rx+CEMS2q2dNUjXoxHeLsdBo+LIMR50qANpLK9X9kCXYToKkhBMOJUVILS1szTHSYCxzZtDqTQbWWhcQZl5JfsllPZdDqEFQS8IDFL8ykDTGNp8VxvIHdr16CDX8T3pkhbHv3PrfD918DfvSP6G8fWveWqH+E4R3hYlueYay04VCDGTvvjINp9mC9d4L9Lak0oU1HhvFymrDzZEQ6ZzuHY0VfE4HCo1ol6C4dJpG3xBN+ATJcuUR2e6COrmO1mozKe5cgHauMhP9AoG9ao/y42BdfDi/PlKl1RUNUA7uq7jhLZ8579ARiQ4FbmxOFwpB96tQjvjgkOXwBG8JHRL+8R3eGQmEE/AhsHsKJNfzRAmDW77o8T2rHx4LUt0tRts2SB74XpJsk7EhbsBnLJ5446AtsoUaHcBo7ekgE7esovCbESilCzAyEIaAj3VmHZpJMNh98mozLyZTa0x7bNwvb7iMGAApYaykwp+gKaH5eIb1a3hSzwITb8jeMR/uio/ADdz/OiX3GNo9NIt4ID6MuRQK7oPSELvNdlVhwOTYWg9jKT66lMt/1iPejFNJ3Jb4tl6Mu3g/KThpqQBX6LHX9DPwKAbd5ppofS1GZZPw/KyI3x+Tu1tFCCvtAoPv3/+s7okAV+xVWWHP4Zet03HfUNL7GL4pa0xTONS+XlI2JxlKFYGgjDPz7REhndT2XsJqOnl3M9lBGeVeIqDJyZUhKnw6vzg+lt4wM6jQ6EgGx9B9pyeOKb9Mq/cFNAOWG1lIl9AKNTsRpKeW0LQpw+7tlEFQkfyHajNX+j2surdpdeYPbyCn2xyiJdDTRrbQr9WUFfJgUkj5MCcgxvHd8CR7DtNc+NWOlom2wLTcVT5+hLY4UQWP14vgzS4d7HBf75hEW7lVx6+G9oawTXaQiaAKVRKMW4IY6M2+HZMLXwIgW4YqUQycyGyQo+mU2bCzyR+KpUlZGreyMn3x4reiOgbDlxO9yHvpQL4YeLoQb2nr7EeIL/zwYmZZMKXe3pEWgvKHk0PxW/HRZKsG4VLqaqIvjwC5iDD7bq8ERvOm6YspVruPb0sYrdd+G2AgQ3qjPA4dOF+oyzhe3ryHt4O2k0YVTdbqKXf9vNgZgNoayxDgSCLvtTmWBAb8ttj8+AonxBY+o0yPMe/TsXyBZQQFnlaE+HwbnGFRQAXZy2EErOGQBYJ/jrI3ViUBVlVa2h6EEFlFnPu4nTywqtnOI4GuRwKpWJSzy/OHWsUvSG3w2b/zOHmMpkl9gQ+hf+Se/ge44eiaGuzCS9IRTODOffTPANp60QYi5v4gK/07q/ka28ylEHBz6SUqPeoKmZUyejBjT5KedrPQGxC9/Xp2exEF2kbaSwp6fZol7wlbfJ5KzMNNAlEO9tFGVqOSgV8gdc4Lcx+Dtxi3RPZ6s1YvddoQGlCphgK3MyxuFY0fFE5BKss+wdjkLZPTgc/mX6R1YHFXu4l3ittruaVsbaEy6170gd3tFMfLotpGqSvJnD34msq2XYi3cf1yOZh0+hWfcKMGEgtziDHI6SqTRq7+glngz/+h76e0AXFocj0WmXq2UDElVe3h7NC0zOqEI42HaJw1cIz7TfJqOOulC0ofTPrKP3MZvtkdwH3Xde5RE9lC3XOv3V5hIPPsXT7btmE1bJXkR/f4HJ37inL6M1Uu8E2zPB9hqvVks9CujOtanMspGBDn9ItAPUI+aSHMrlcIzTD6orvkezAt8imKFTGd/mUE3QBAVsDHJ4O426+JQnH3yQvIbN3xing6JTC18fxx7fs9AQV34KjsDqDHO475Am7EUYceetRZHNvv35HA54+sQzzkTbRvueRp3pgXAglXE2WejvvPYFvjAvhKlqvSwqw9NBpW8j3yMpWeB7HqpZAVZY7808h5flixy+WRSx/RX93e0yTof3o3/sCZD4Z8xvx+X5HogixjouI1rC/0vdlUdFceThIR7g84o+gz7dKD6zu7obNSbubtZk384wnKOICiog+EAFFFBQFESRwxOVEDwQUDxRQUIQURAwovG+MBA0KKhgUNZrUaOiZtW3IQ8iXVdXd1fXTH5/6jDdVd9U1e/4fl9JD83smkIRsJO8NINLUhV36Q3Yc6RmK8cyeEr89DJOgyUmiLe1PkmH/D2vBHNsoKiqtmtfdQEHFJ0q+RWhEuIRXg1FdFbmwCt4VGK7wVSDrqBpbGDLYVYhcwUfMS6jhVBNO5hfO2YaIgcZK56BmcMrPaTM9qLS6IvAfyvilnPBqPRpX3DcL0PtYMTdRCODTdyUI5Vt6mCJSGcInwl6qldAvC0Gqg74H4g0iNuqKpcmo3zZGLITNlP4K7G/Y6KAWze6gSNbCsaiwekSek06W3X/8I9DBvTsOeDff393oHz9dDNzYcnsOE9mgSsK8ZzXEvKWvtYmaz46MYM8tg5opuqwof8a3lV49lr06dJdpnv3HrGtcIy6kxKILDEEEhiU0zlR7xhYjAje3xSKhmTtrTqOGNxWi7YOn8pSWR6qJbWKq3z5uos7cipGrsFldR2FdG47JxMGPCGJDDgo96Bt02rNmg3s+Plnfcy1ZBss48xvD/yAIrjq5OjRWUhdSDI6Jl+kw/TWm6I5jyThDfWSabt3fqf3wO6D/tnlPcsOWjqz6Ck9MdeFKOnkprLgvN4dMx8T1ziKZ132mTTg1g0GPN6H42D0tDKsbXeF6dXVh/leA6ZfgpuS24FQGkAvXDN2M00bcEBUl3gzmWyz+FzqnWaWRKaT+n321/CzknNNSGn1+D3t6OiqYIt+zzgtM+spkQL3CbEqrn7u0iWedNSFuadE6jFx3HyTB7wMQ4aw/VbL0P4ibY2/A/iCxZwpgoGiAevFA+5zUwJCZ28Upq/sZ5k84Nbn3JAjqtIyNYmdh58RKyhqk4D36OTaV9a/A3tgj3jz+4VsAde+KwnwfmS3TV2a/1jZeLO8glxF24p48/WM8db2kKQH064rUfAlTE2KwXh7+YDvKov0OujpMcqk8XZcBNeI8rXM7WMlahBgti1ZvekIMMjHWxdi25yYm55tojWUBJ/EqfB716bKxnVcFM67HyoF8GFC1TbteV6RWfhUHSOLn19mcnA7XUO3HR26KR3puFVX82vuNx22y4vL36TDH+jTTkEFpQjcO1WakS9v69iZ21bT2tsd5zrg06ovJSzqjBUlPwFFTN15iOyq7afAbYvK4sIEXolYAOWH5UNesDfBdPAOmEx8123P40Sh9o5b/yb3PGZCyguV9C+Abhugp22/W40pGTURHsb/tFuqFEB+YKOJwG3jJ/6y6y7sPxmERHp1+vpbNx4VkyciAkC8lyTRCIDMeKZUfVGsmTPgQZT8+vC7tbIRd/AxCbxHJdG+8KGn96rqKr+vKDpSVHGrsq4+91HNOspf/CMlPadgtg1IqNs5s18DC+EhnG7h3VScl4u4fbYJ4J0WouNhG5Ro8fYkR2ZrmSfQt8MDuNfqQoD0knUyp8H4tEanWC54g7eU9lfSV6h9BWyVrKklCP7Pd0Bb3cm6CFnzMM/IeOsX6jiZUL2xlzSS25+JarustWth2rauBuHApK56UvNQ6jTYHjQu4Ht44a3bL5wtKyV3JHjnAVEuU65BMpxQLV6Ni0PTV1x9/CpvuYSIfKUx8fYwcAP8hpKL5fsK5SC0+1U8Gr2C4frRFtEExOoK6rSb3ogb+gFueINFVonSMEBCPeoQIA/Abon7wymo2v+Ip5yirlDPhBFFIZLRb/TFnuuhi1kDXqKoLw2MzJ7L7N8W5wTACbblJylyjLmoMQejw3Fnoy1wREQWfCrl13tOnNzVPcOlij+9L/zzICB/68bIUR8FT8nDagq8LyFyqa53rMsa/Arg/5lkLMADoFf5wfVtjj+c7X6fruQM12isLIj5VUZ8gzI4CWW7ggLvafBaTmouijpmb4Y694yVYz0FNb0LjkKXgCS56BqgunoeMEWSxWEGAxldwDF2YFGN0k+Hh3KJAu/LcLp1wduC6CyoV9NINySMAq8ghXmWHn5uUrG2O+C35vpeWx1Z/6mXZIFW4EZS7V3gASx0vJaIuh5ohw3OwSxsTcSxAX9HRrqXMoUmCWRz0I/WfwsOSZy7aHfCLwtlLfR/x4HqiaX0tiMg+ZIKLPHgc4onZAI8plyaovAF6M9mCKMGG3CrNE5OHVAVxcsinUsOjC8gVYFiTwVmH4xuqfc6LYA/8kb5tVf/EFniU5TOxxw44fIdDSP/e+jPFqcBX9142wQorS7C3dogkgFKCx/vGrj9bFLOxMlhSycvDomNPzvFb9nYZK9IYH/yH42oqEcpITk1l8X7A6d4JvAQhaqm4TCf73wQBd4vSyH/HL7UBrz4zRiRWaTwFbYz+hmNRWhlPAQlec3liAQMAr7kKugXK3rx3bC3kkfD54vLgjzWBwh3MNb4bSlA1sWTyZc6I4sxt6D2E1n3igPMlyDQN1bSrjkL3pey4ijwTs2jy6TtM34oLtQiu8iE3z0f6dRDEsySo3Ck5AvYhaILc5T94mVfyUuwrYYddHT3k43wsuocIwC+ibkeyUZfNAsyShlrFVtCiQLkVyVIooI77iY45qBpwNiyDWauYVaOkEdmMIJE4wzGrBHHrXZIvK/Ano9cgbe/Ad9zBARJLp9xrWgqGGnVWbAgSCPmEYA8hAd/wIXt6zuUJqnGY5ivT2G8LdvJBLwzsMS9wQ3V10XWyyPufqmj2M5PI1KMDbhnrOTWMINDyMDSZ3uA013/ERHZdNPINfAUB9vF5Xm/Bw0UbgfkrdVlSip9AvPNX+HJieEW0zAGl5PJj0J0iMtX6usLOOracpBPIqMre7aD5ISLd/VjJF2XFNsKU1f8b69zFr6qggKOJ14k4SpK6EWJ5vaHYBQMksqky6inwWdRBDHhEnWzKgvTakBqIRN6OHO4A35O+K5ymVZlKXja6/INijsJoVi8v0iCVfJMOh6QwmjyPvn8xde48S4l5c/ShJ/l35MQLXyBRllptXA/Qo69OAM1ZQovUQAz6kFgaOYmLWupT4TeOzMdDXbQtGMvMkklBaK8MyC0/MDYgEtf4Qm7YogtaReQ++KfFGqstwOKZuAllTrdQkmeOiyFX4pguHinF1VFBIsUC8l+71nhp/lfMX1H+AISI9joHYkFxOHXrkKukq6dlCosfwR+5QslJMH54gF46oaSVxQ0ZAP5ehNP4OPh/OkPAH+Amvdp8zp7SpjY8F+cQUuuWmkU23CQbgKiYaAvm+2CV+1dgX9WXV9MyfsgH8qzQG7ka+6Ap4E1vaOeYjIFLnc897rHUlDZa4vQp6D5RwxE1Hv3Ekmp6xbT0p2iN8NxZKt9/ObjTOr2ggaypwDVlPy5Az4b8StNCkwJd4Z58jaN132y126KvUg5+nxMWdG8n4aFdQEP2BrwBXzpuP5OMEX16W95g9Sr39DzunJEolpYLOlL7oB7Yg+jsC98N22f5LfE7+ikKdN9Z4wukEZqK8bRes27M8FbYwaq+WZASRCqyoD+LNwG3/JTTa3/WsKQl4jsjfvgP+FPXB2vToNJZiUuSdWjm4aRgQlWeFOnatKEe0SPNweS3pcyJQw5R0xlJhSxNZ7jDrirGnCXVmFJIm3ZXZHSzhLc1F9B25T4TZVwxaR0WnPR86mEIYetEdNuidyM+LNG7oDHsIfb9md8E1b/DzTs7K+gePeW45A/0iAyfh8DLiD7Not+yCE7RAvbK5GsX/5KrInM8S5PJ2jxmWlY2gBwia+C817kSLdhKo6C/pK699duipd4kucOmuXNX8Urni3ahnsnSIK67ZnirTGD7laBa9MOpDW+C66QlXvjukjQibUF82naCaIxrH7+6vlM20Mz60mEvw7srzDsSNH9YYfPfT24iK2QUbX9/uA+h655xB93s4gjb7z1DKUArlQQy4mWalwyPhyiC0PHuM4epxOQAg/+0BbkZXioGsnZCf60Pf0BWL1D7py2NFZoRxwjs3kthqhyJe0w6GqdakRxIxG1Dm0QoveHWyiqNcTBLt209zq9oKKLqy32m7jLQHiwAPvhT5Vi3O2u3TTq2CCaHm3dZLiEFYlqg27pCb6M99CSYvZJC56dThGmjvsRHqA4BouoXy/eifO+mUYtgzZ1hOPWtMijBeOeuQxV5azD8WCbF/b2ef6SlVK9SMVjA3fA5ykB+/iPdTdp7klo002jnnWCPPVxj5Bz6/62euY8F9kpcQ/bvvSLI5A0QU7e22kJUVzfjjvgwsJ/3orc+3TRV1553SqaFpymHvARnTVq2lCYk4I5gSfG7Lse6e9zbQz6TL2y87dvuAHm0a7JUrd3SV5KnseL3AEXSrg03Ty4ZUPdM7xGbm3EoyeVGzKiJNx7YKVR2T6FnlkoRx5xWysRtv+CtERZZUwvUbWUAu6AC7uCTr+VKj6xvqiyrv50bv7P9/JzTz+5e+zWkZsnL++UKpLfZqhGdevcB2aLF0vGO+8MQQBOZ+suua7lNUb8obe5Az5alE6sxDp80lfDwXr3gBGXusbzBBTVEwjvNNFLAkvOkcDibWWbeePtImRJVzCF23yEmYaPdYQfXvhUEt7FACUZ6cosXhZKFTcneE5yoHvsSN6AzxI+v5ol3F06abjZEPj5O59JwLsGFFE9htuDT03YRU6HjprjvpnwwxL6/0uNnHfJYAj3MA1Ha/8xglNcQo33M8g3CSLURg057hMCNiICcqfQNUdz/s/euQdHVd1xfPMgu3mQF3kCgTzIJkASEiAhDxrvTg1KWhDS0KpVDBIFNEjwUQlCqqVNQqAUChOLFoyAQ8m0ggE6gEB4OYChCAIqyEh4jCgZB0hggMo45VFmz+/uPXd3s+exm/l9/+R1b86Hc+45v/P7fX+6D+rYAnvz/E408EnwfSpYfbvzgwxi5eWj8Rr1jt1wFmt1TbYbTC+auHDxi+vWL5kw4e1Zq9a/Om/xpi/sPqmzRNWMaaJo4P+EgRQ2uBOyAwzC1VurX/1FR7pUfFyu+VPsZ54oUNNy5589Jhc4rIBvZNFgMrrQIEWZRi076/N2res3UzzQS24y5l11Lw8IAv+DaODPwrIBl7/cwwMDDLI0wqT1Smtv61JYSnf0qL7CEveM76s1TvjCgUMPG9caRvsXBHoZZCpN+72WNVIpNH2pFzIs+5Yd78ZPNEM6Y0UDh6HePV2GbUrJz/QzyNYwytst69COtVywt0mtb2P09b5RorgF8IfhVU5Ll2DHpGQM8TK4hXKotnnn1bHWpv3lDvxsBy6xyPM7dIBm0CkauMoN4JbTE9unICczwOA+Gqbjbd3S2dF+dwtX1Na64cI+R3/E8lYXcRddX0t3ZBUN/AP4biecYO2bmJtd6GVwN6WZ9F+7YsGWMif/Vze4gnzG5tV6FryigcM6o2JHPIP9+6Tn5gWmuh/qB3t1o8Jc5ddndA132zcn9D2XRQOHdUbbyRdLDh+Yl5EUXRB5RwXRScH5eX1D+6dm9TO4uwb7sieuHLjh/A17UUfLGnsm26KBQx/Ia+SLFRo8VQP6dB1sVC/qb1386bYT/QeLbx9f6YCrumjgB2lF8IqS5bHADQGDuso7umesv94GoPzkZ44c1No31C5wzEZfdOClUquo6v5Zy8/gwUrr0ofcmHY3Qhthr5NN/cnr26hzvencznrd/oVyI22w0uZzMo/c4NHqndKF5fx+8l2hvwN/tqSufOuezksdrc3tTW1tTe3Nref+2/lj7e4Fdv+mVOAqQx8yrGz2bOAGvxwnJ7kx+cGaFttL4aiNMm/LVOkPq9kYobrL3i3SGQ5kbm2QmSPwYzITIFTpD2RNQa7B8xXm8LqeAHNr+2WYBAEXnOI0np7+kGHoDhriEHKfUJsdav8QXsC3ygQO7T6qyPfKN3QPZUbG2CGQOELLpz8gOEYEcMFZq7A14lEQaDN0FwXlROkUteZTi9Zjh3IB3iIzLx22L+gk3yvH0I00YNhwjbOWMTFZ31GqfwoH4LUyK09gCeWX5HtlG7qXesSH5kdG+d5bp03+CenBfQc7UOIYnsgZuNjasulwkw58j9MM3VM9vbwCnOmtkxrt+u1bYmAczeb7UaHA/wKBg4ZsgQbUfXllu7Sy97q7SyAKYxok1oer3B+AeeIQJE0EavPMXTuY+yaF3VtO8on8OokOELAK4V/gVcMQM5B3YFKCk+lfUfmFDz4eI62/fFaixwusQtgGXncwMraFHv6zdMeyK2KiggPJpk15hMkUBL5IJPDFOlUI8chXW1nhOXFmX91cP9sDAJFbWS7Rp22aThXCAESrm2MR339gXkb08MSUPj4+IT4JUeb0gtyRfcNjtXP9CKPvWxKdGOEx/AYA7o1QGYowk9sNgY9xk2O44oeUGCqQaiYi0k15ps4x3IiQWIpoq7cajvpjAoFP0jmG+yIklgonqlnhqM93k2O4D0JiqTCiyg0CF9nk5k2dY3gKQmKpQuvIroTARbaxmqpzDE9HSCyVStSwQOBPCgT+ls4xfBBCYqlY68gugMBfEQj83zrH8FyExFK9ieoVCPwDcbzH6B3DRyIkpvFYooQBDvtT0pLSYYX8MITEUt7E0MI+K5PEAZ8LgcMimVCExDT0TgwtbGb6sjjgv9bz5OuPkFjKjxhaWH46QVZteBUEnoqQmIpIcofdqVfJqg2/DoFnISOmIrKkm8G4jxcHfCy1NvyO+iEjpiIKUqFNYKkw3qqWhJ9D5x5ExFaE1zNswPOqMODz4Sb9LKymRERsRdjOQO/XZ4QBfxoChx2/hyIitiIqzqFJ8zxhwP8G86OrMZTOU+nWsYWdOZ4QBvw96DsE92wZiIitCDeKDWDgnxUG/H3w3NsKRlZ5Kto6tqfAwM8WBhw2zTsEgY9ARGwVrFC6XI6TlKOsckrHuhPGIorLYB+raZIuR2sx0MZVRK3RDTDwlaKAT9HJUVZieiAitsqmeW8K8+16We9yFHNWWSuUZvIizAKiVO9yFOMurBVOKxB/5FeCgO8Cj22FwOOQEGNlUstHpwsCPo5unK0oeUiIsWKpxWWiao1g/6ofIHA0eGGtLGrpyRwxqK9KnAAABt5JREFUvEfDp27FfBe+IpLalktJTJ+p27/KCwmxljXHqVpKnrIqZfWAgqWjfOUrOW0VnspqVEZyyIe5EmhZjEtknMpUKatJyIe5zJKT2uCp7BJejvIWcSH+lYwcJ91TGVYhsFeSdXiPgrHfJcPPZyvelfEWcT96CIz9VBmFhLsxR5m3CGu+nWDsFwoB/raOnw9u0nmIMO76ScKF+DrYAxeu6MGIh73CaH2NxDTBgC6rZyDwgYiHvXpT70eF2Ou+pZfBGIt42MuLar75koi6slHgkT/C3i/ouslD1h62JyDwmQKAvwMf2YAWbSJjqxXib08m6dWV4Z6Ni4guaDXCPSDg1cnlErR34a84miWAiGA6LDNqhHu23giHh5KtI9whvH70Q52rE1/MSeciIlH5qujY6hFo/nASAI9ENlxE+Ot+L7rY6BW9TTrejfJREK32RECo7TUI/AQmMApQjwhKqE1An5sndKpO/DHswklRtC4Y/C3ToWHXOfyEC1EBLfLC3W71JYtOuks2kuEkoh1lEwCwXnCKcgOewoWIuBG/BgA8zxv4PJ3shxAEw0vxNF8f7q4flTrNbbATAjf5WTvP7wEEHufM+1M4wfcD4OEIRsA2vUFoAelrOu4uxp7IhZuSaM3qXuAL/DnwsKLleCgTpDRr35MdAg12xxTrVBmFIhZ+IkwBWgGDN7gCX6VzCo/BOmGeuzZrcHU/YHCYa9f4cTo1CMORCk9Zk142QghPc+T9e/iopjJc0YUpmRZN5xl6+ZOF3oAyIgCh8JT1SrxsLzyJH+GX+7ACAi8ngUcjE67qF0GpIOWYyKjasrWDFT0MmfDVcEoOhGUTL96Lxurs0UMwm42z+tK6iHPzcppl0clIT0YinJVlovQ24tUY4chE+JgOcAhHHwDuMtPW9OJPBRQgqFpIFyAP7rLaAmypEXAym39YtWUDJSeFyIO7gkyUYJtl1HccgB9UTfDjWEMoL9im8tjlMcWXqB7RVoGGuqKVRstzshS/w9xedbIK+A3QBAHTk0XI2+q5Wq/C8S7ra9HfqB7w8RoSeBrCELymlyy18LxCefg51T9v2QiCLjjBRcdelAsqIJUsb0l/vljNu6oMJ7iMNd26T1/TpELCMPNl0ftq3kW38AsueU1XdTC7s2+bwizCNlXNW5Wsiq0nZezTK9RTvJJRXeHfN9nw3g4alZmRgzB5GelfcUbNpV//ow3voq9J3iYsERYowki7pFkNZjyDz/e6Yhvelm+wTZk0ET3r1BUJd2aiy6WkT06zxW35CgTR/b2RgkD5Ee1PlJtqNJNdO43/cp7G9LZsP4DJ6BJFWKcrdTvUcA67QHx06eMauC01+wDvdEQgVgNMCv1oZrGMmtvVWGrpF1q4LZfPQo8PzHuQuG1Tys7YAHrkdFca0M6Z96gmbktxLZplS1YmOf51NbaMZjvrsDx91kILRTNaIO9BOP7iZSYJtGhQWjHBiUk+eu7iyTTclsv1kLcPVpNJPpnZ5L78vxXK647RfmzVu4ctdO1VNRk1ohm+FEWREKqvabJ64yl7s3zMC29+aNFV81rIG09kbjHFly/VxjX2NL3X9HcfvfjnIosdXdmi4v0QDr0kJQIOF9toyMY+P2GOqinK6CkfvXfwFxb7unxchVuJxFITWUo1ARL79uqAG1U5e9dfT5euLz39zG+nTlthcVBV+9S8zWjoIk/RkMXuvRa22nGyRM27D4bQJcrbH9LY18SU9806NW7FJwhHXabSVDzqmtnhrjqr2PLGiKpc9RiqIrLgM0a4t7WU2fLug/NbtrJUi7pS9kMxi9ldq4FbMWOATb4CbbCUt7tIu/hKuaKlSDRzcQfl2oCpOFXkAu728ys1cSsZeP52C/Uz27L55FoXaddc/bpMG7cxFIfaTRQUosGnvtF52ns3N1QrFPngfYn7KNZfC1HDbed25d+WlyhURePn252UadSktLrTwThM+9VjKxUd+WIVuJspXJu4UnL2lJ0te3HjqZY6RV8FGE31GOJ3L9E2bqj6jxbrf5zZf/xWhWJPIdjuwC1XdX89aNWrl13Yeehox7XWqqozHUcP7Txeu3u54ogikvFyzE13biEKe8UkYSzVfU9nZua4o7EdmTvLL5gpbmPuABxTd9+6+TLD3SsZt+YeIO8CJrRN6SPQzMNTJrmPy7gT8jDLwYPUb5i/K7R98jFo7mnySu7ip9xkTo7H4fNEBfRNcJp2SFwgbtM8WJlxTqzsIdFpeOL2ePUMj+vlQHAlJTgQ92jdRvHZg+i79oiUuOzBGCnvfnu4wQPzByUm+D5wYP7f2IWljcStdAQNR5eoDfcynpGJiYlrmIyoAAA9Li91fKOklwAAAABJRU5ErkJggg==;aspect=fixed;" vertex="1" parent="1">
          <mxGeometry x="647" y="606" width="12.22" height="12.61" as="geometry" />
        </mxCell>
        <mxCell id="JpfB7zD26m4SBqy2sYj4-35" value="&lt;font style=&quot;font-size: 17px;&quot;&gt;&lt;b&gt;&lt;i&gt;Server&lt;/i&gt;&lt;/b&gt;&lt;/font&gt;" style="text;html=1;align=center;verticalAlign=middle;resizable=0;points=[];autosize=1;strokeColor=none;fillColor=none;" vertex="1" parent="1">
          <mxGeometry x="494" y="53" width="71" height="32" as="geometry" />
        </mxCell>
        <mxCell id="JpfB7zD26m4SBqy2sYj4-36" value="&lt;font style=&quot;font-size: 17px;&quot;&gt;&lt;b&gt;&lt;i&gt;Client&lt;/i&gt;&lt;/b&gt;&lt;/font&gt;" style="text;html=1;align=center;verticalAlign=middle;resizable=0;points=[];autosize=1;strokeColor=none;fillColor=none;" vertex="1" parent="1">
          <mxGeometry x="22.5" y="466" width="65" height="32" as="geometry" />
        </mxCell>
        <mxCell id="JN2aCoUtrqrgfyc8CFwK-82" value="Слой без названия" style="" parent="0" />
        <mxCell id="JN2aCoUtrqrgfyc8CFwK-99" value="" style="shape=image;verticalLabelPosition=bottom;labelBackgroundColor=default;verticalAlign=top;imageAspect=0;image=data:image/png,iVBORw0KGgoAAAANSUhEUgAAAfAAAAIACAMAAABKCM5QAAAABGdBTUEAALGPC/xhBQAAAAFzUkdCAK7OHOkAAAMAUExURUdwTAAAAAAAAAAAAAAAAAAAAAAAAAAAAAAAAAAAAAAAAAAAAAAAAAAAAAAAAAAAAAAAAAAAAAAAAAAAAAAAAAAAAAAAAAAAAAAAAAAAAAAAAAAAAAAAAAAAAAAAAAAAAAAAAAAAAAAAAAAAAAAAAAAAAAAAAAAAAAAAAAAAAAAAAAAAAAAAAAAAAAAAAAAAAAAAAAAAAAAAAAAAAAAAAAAAAAAAAAAAAAAAAAAAAAAAAAAAAAAAAAAAAAAAAAAAAAAAAP///zNnkTVokjhrlP7+/vr7/P7+//b4+jxulv39/e7y9kR0mkFxmeXs8Ul4nc7b5Y2rwgQEBDRokZWwxn+gupKuxeLq8PL1+LXI112HqLLG1m2SsGmQr+nv86K6zQICAnSXtLvM2vn6/EJCQszZ5K7D01uFp8HS3tni6nGVs6m/0QwMDD5vl0V1m/z8/eDo7lmEpnmbt2GKqpu0yYmnwOvw9GSMrIGhvNDQ0MbU4MnX4lWBpHeatgcHB1B9oai+0Nzl7Ofu8qzB0u3x9aG5zPT09FlZWSQkJE17n1VVVRMTE9Hd5trk6zZpk1eCpL3O3Iemv6W8z9/f301NTdPe51FRUX2euYSjvRYWFlF+or/Q3Ud2nPH09x0dHZ+3y9TU1LjL2YWkvS4uLgkJCWaNrVN/oyoqKvHx8Z22yurq6tXf6Iypwfb29t7n7ZCsw6KionuduNvb22dnZ9bh6aioqPX3+W+UshAQEGFhYdfX1+fn5+Xl5ff394uLi15eXrDE1Tk5OXx8fO/v7zIyMjY2NsTT35ubmxkZGcjW4U57oM3NzZ+fn/v7+/f5+7q6ujpslbGxsWpqamRkZHFxcSEhIe/z9nR0dMTExIGBgZeXl0ZGRpizyF+IqY6OjsnJye3t7UpKSry8vISEhG5ubvP2+ZGRkScnJ0x5noiIiKurq+Pj426TsYaGhmeOrfn5+bS0tKWlpb+/v5SUlMbGxq6urkp4nnZ2dre3tz4+Pqqqqnl5ecLCwmCIqXh4eOXq7lhEXfoAAABAdFJOUwAQFdzqAQT4/vALVxkIk+FdQ0zm9K/PovwvJtNqnQZHK9jCmiB9xss0Yqc5ZbiPUD8cvXGzbXZUl3qHqoKEPIudhfo0AAAgAElEQVR42uxceVxNaR/XetukZVqkkBZ1W2hRSTNz77k31ERSMaXxipARlSlEorSYkDaFYVosmTRRSmpslaU3kXUaxmSnwUvyMhlen7f3M8Zn5jzPOffce59zzq2379/3nt/z/L7n+e3PGTCgH/RCeaBaD4Yq9Wuij/LrYKWj5eTuxrWzHKKgq8rh/QkVjqqiwhBLO66bh5OW9nC5flX1bshbqbtoOusrqvAogqPgaGKhZdNPfG/D0OGuFtyRqjxJoWhpMkZbvl+PvQEOOhbjTA15KKCrZzGsn3VZtuA6H9sp8hDD1MTaqF+1NEDN3GaYuq2Lhbu9m1kP3NzsP/UY62SrNUrbykheWdS/lQYbcwfx6IIu19q8z3g7OQejwe8x3FxejfFMRX60tYfBCIWPSDWuoqow0tns4zGuNhpKELKdnFV5dMPUXntorz1Mg3Vsx9pzHYfoqoLOjqM6SN+Rq2lhrD7anN4dqtmMMbEUmynDQY4mY9Wt1N4/RMOaq8hjCB/pafWy+F15sJaHgSV1BakojtTTdHEdrIZ8JUbWJqYq0plZR03jYR76KjxGwbGz7iWcy2k7GehzJNymiq6jm5OOESJzb247TpHXe8HRcx0o42RruGoiOQkcfQMXKfMUZW17BV6vh6qblez661FmiDWs6+wxSkOyAFHHQJXXRzBkjCyadvMxdhx69qur5zJaPMOmpG3SZ9j+I4QzGyxjJScXfXp3bDjS3pWqgXewkAFLntD08FRYblrtpSttv7158+Zd271Ll9Nyw06VNE2V7IEjdGSm3yZn7chM/Grqpi6adG09FfZo3noy79Ldlu6zOal8YqTm3Hx5veF42FUxqTe1lYnk3IbLYdSf2euQJG4DbYewQvSsdbevvOiu+54vFrxzWl/cC9sqhnNzUmOZ7YHW+sxr13DEWCuoeZNzYSEFW5fXUF14lC8FSu8cS19HtbXmwiblGu6s5biKBur4yFXOg+FAbVbJ8Qdv9/LR4FZ3Q9guSjt3Ysuwa2hyeGzC0NHpL10GtbES0Z2wqwcJs8T+3+Hbd++g4voDnv10NyxBtOxB1kr/h3S/9+gef6QrSra6VP8y9errtLb2553/rjvSeNTzvarPpZbmxL292NL+rvb2zvWiIrP0F3GefJqQ2nnpquhtazMemNuLQXdESVj6pWvXH7X+dLbu8a3U1NS9exsbS3MKb3Z1Pzrza1ttbv26XZJzruBuNWA0pUgiov7gi9bKc6KVfrSu9XpbbgksiE4IO0Yf2X+i8O5JUXtxZrRvrmxMzXdH1F/+V/XNUkouLK6zJ1N53SRZZUa05a6/97xSXKKe1VU33P7rirbWvkzlM4OcYyI457gzF71pU0h9tuZde1kpwVFIjfv9bm39YZRmf2p9Q5cUUfQPFxvCInoes/5gVySfSdQ1fEvuyl0Zct7jRGn44eWWSik3e6S1vfZkAgK21x//vVF63Ueeba9+xmccnnfSSHWg58AA31rkwXBE3pkjqPZ7rvDAvXppWO85lN783o1b7WQZuqox3fG6gzOZgr+90oX8HJyLu378oUQJV1r3OX4fgGf3z2QVdnrn36xJjvfhg29pC19LL7bVi1d4Lnlwi99nUFhLbOdUrWnMxbjERafbF+n2camtbyiTnntHNpjyvr90clTigqqqqgWJUUnJhySO+o5cIU5cnekaZ7cibDqub6tkRoF7O6+UiLblByvZJPnzxBUnCsoqQoJX+wgxPIQ+q4NDAv1SguZOHy+mkXsXQZiV0lOGsSUqtTw88z2TCn3ckk6Wte2695gdoiOjwrNjn8R7YRQh8F0WWJBZTj2qLL1CZNhV3JWR0z3UjMhZVjMfCEe+fUdw0KcePMKC4S4vCgjdk4FJBGF0YPaUiRTf9Vqior+lBmK+5UfABe185MmS5cx5EAZ69Lw6xtcxOyv4AiYtBJuKgyZTkRYXRmTWR6Od7Ia776YWTza95a2W3L8ZuZIuFhZxKPsVhga+gUFLRcvrJGitGDqhHGqBZmMJb1L5bGPv8w+cR7RTTrs9Z1atmJGyPyswNOTp06e7d39Rsyp/i993C4NOV80U30FFztiDoUJ0wAZRZ+joNYKA3QBZn3wY9C5Wbo44WhmfXD4lfEZ2wH6/srLYrOLiLWUBBWtOzF4xZWOylFaiseXn/3m225RitftTFsY+2SYkUbm/T3So35rTUeIQ71kUj4xybHHxP0XIziGoxFgiys9cYeH5+ucUdZG0cq1fzTay2FWwODokcFp25saJknL+Q3v9AdGv3IaULzvECKbiV8WEz6RO+TZ0lGM+WRsmkIo7AG/ZD0Iyy6wOu/CeR6HneX5uQWi8UKyNfpV/I2jzIRrKk5tvLBNKpPqQmJXU1uN9whch5djXMUmkKVo6vOymTQ/fh6tFbT850+8XCfMUzL+jJqAoEV0r8nxRhY9UIXR0WTgV0uekLEJJuSAknMzZPYcWIwy1pLbnEL7ryb2398riZun3m7Fp+doq6VkfH77EC4X2f7mxb4JIYT9mCTCkxzzlc5JqK9yTu0g56wDx323nyNn2Qbdj4X9ig6ZLQXeU3ySE0VRg+BxRAhN3I2Uc8yojtuyev0JbC+5Slc/B+HwXiTn3nouS7Q+KXrVwoySRvPfsZaiXsmhJpijOi7ajFZkRGEUo6yY0JzeTvEduDo6uNcURip+IrAQB0fSTlAUTxKJ7ztpmelayfC75Qg7ForXrmKCCkPLGXGhCLmllXQ6cXdtJmO0mB0zC6IXPqnmTKdOdspi+hXTEkKdr+zYhFpixhUig511YdZ0rGePKdsCTwohm76O2CDEm0By7Yg4FYz7Pl95lCGpII+jIGNTaEAYQ5QndsGh9nESMfwoW1wiGPzeG+mOM4ULN2iRyvk/vYeLVyyZL1RLnI49kThC8YnWwoTeuBH7cFXhKOjw8n+gnwBhGdEwioa6TQhlahJcfiWWPvIFcKcFVBI4c1kEzEZtxIyBAT4dnxZm+GBtozoRb8xQv5taQEVhOTPkG5EGjIBZuVJ4dhzCuKe7AA3B5Jw96vifXYOzgC6gvjwpmdhWCJcSUH8pHLu7VabioaxDGPcQjXBP//9cw/x1ZcIElvufDOi0T1jC/HEEFcWUoCL21yb8PlXQdEqwbi8O3DpCPwe5vTI9miW6sORmynB0hrKwlIyuZiPHyePSHfCVUUjVYdVMR4yqSHP56XhMs//5mEVt8+8BO1eZXbC3HK+Y8UTGqArkwfz9oLNUNjkVwPqFMuAG+nnoTEh5N82dLwRf2QXa8UIixh44iokO+JgO5sGBo/ekOyLiikaQGHVI/v/+UNe1mQEIX71iMXSwjShTnom8vLIJmKF3g4LoptQ/6qeE/Bn4PUkmNZk+3JyAR8ROMbWTsJ5jYSUKvKv9psCmot+AZd1SWpMRWD94imtzMnmZjwK0ujcZkAK9WEDjyL2nISmGd8tYEidLx4biZh8PgvMPGxeypdTnkDK3GZAP5O+Atjv3oRW2DtdA6wVidwl1DfM8EHFcsn8SeTjeBBZfpHZisYHE4/JAvRF99njQXNvgEhuo24kZsaeCB8mVPoxfAylbUdkyGEAgvf36DviQkDILIaQdHWUUMLyub4j7WAtyz/mwbi/qcB2xxZgcmU/h6A7y0jt4q+qdA5PwGXicWcUkU9/PfgYB4PovaXAWW1+IxGUNGDLSRmUiDIZoGiRfSxHPjQ3EpWS5Qrw5lUZcdQGx6/itM9vAUWmulI7MpBt+to/XAtDrZ1VIn3P0xIEJPYVGRAsBaRoZgsojtsICKv5SGwYxAkPFSYLSRS/J1ZFwR/Rr+aSsFLOrxO2Bz+ZhsQvAPGOOfbUIvKR8swRQCJTfiSN0Y91km/LcdknzYtJSesmRuRGAJrJ/yIw0FogrwjL8EvvVEGKLjPHgL3oEvY1GFXkkyZW5EIRo2ebeDhjO+BRTTgGd8GNFX93BNcLy5WMimBoEkhFVzQ6EIsxl2xmlIKvzAVhL+GpIlAeG4uaaL+DjTi0X97cG3gccHY7INIaxnmkxDFaMAvECNv08M/yLIJ3//0Sm8Qd/NpvqASY9iTNYBrYwk0VAomgHeIMd/lhVK+H/Ju/rgqKorHiqIRcWB2s5U21IVrdShWLXT1ilD9u3mO0vAJLAhLJBAdvPhhhAIiXyTLNhMIR9rqQiJNFHDxKTZiTJJp0WkraVDrDEVmqpNbCsdS2uAWlurI3Q6kITsOfe+u/veu+/d9x7nz928l93723fv+fid30Gyuf9EN/GJXDwi5dIiWcAaKTmYMv4nUR1Zp/sE9RHTdHhvgmWyZzDlQeSRmYI54EG3FQCXtlL094r4U8MCBP3iT+gRv5sC+HfZVbKwyIUjNsdiyRrmpdAiNvNnY50lkns/QoMjKLPQoTbX04iHXi2SM0Z4bLmSVWw9hVjcwp8OeAlvJa9GTb7MgH/wd3SDcjN5bCsClgFc8lNYETpkjKqinOLTo1BVtyHZniOZAtesF38Zr2Qhqx8kEdchxKjBVHVUFyfS6FB972V0+VaRS3bEih56BOJpZGqE/0/WhUhPF1AsjjW9boRvv4liCaeJHvD+DGsBLq0jKYce/gmY9SgGfJHtp38eamKbKcuBH/AsyWq2jCQ+lfF3QxDn6V1mBWUa1Gs6h6JekS76CM7wuiwHuFRJFs9OcN8026D6zGtQHGLqNNaO/r6JnincWJQnWdBGyI6wdu7/BHWkILlGKNMI55l8glwMkUm25WidTkqWtG5C/CmpWOel+g3jEL8e+ugfIpKtyJXCVcZl1gRcCpMNUrwdtzoYDjwBAZ8bCfj9cEjR8+bJY+IH/KBkVQuRHTy82eooFoezLCfL95P9ArHvRMZki9A+WG9ZwJ0HCcSP6/t0oHx6JHsVavAdMw91bB1aonzJujZwRG8WZgrkKJ2DgM+MGGID30GzYkRy/VGrScIWCwMuNRFDTXo490HCiOZjWaVlGJT9HjXrCVyiAKou5kiWNj8Rjh/hqxABy8jvI/G2CcDhVLI34GdaKXCFKtD61FsbcKmb2NQPcb1/Obz5o3JUxjtY5EWR3TyoWXSzZHUjXPUErtTvLfDmr8DhZjJH+CoooRsU6KOfR6szYnnA64gupGqeSXVXKiPXdsPN44DPA6+/Yh7uYj5SIsi0POBSKeG4cV1gWCP9AzzEb6NH4adNk7puQp0Q+yUbWCXRDcazIxIqXL0nk02/k3GEJwnMow+hZjyXHQCXshw6ErZgGPsPCPj4zKMpUDn557CRXeDSLLVM76ASyzyp46YOn5GL9ED8NlYULrCfbBlalwP2AFwqJShP/FQOW6F6PgR8AbWH8HHTkNlQk/UiyS62nKC/cDusiqE4AD3zsoCRSBd4hGeihtts2wAulehGhqiEREZ6hxlUZnsX/vbErcp61Oo0YB/AXVh9bC0vORA/vC/UZnxgDHCo8/G8WRjB6DGokWxky3BsVsDpxtvhbX9Ay61OgtLo8IolwtbEGTRPhpe/EYqxnJTVS1kUiNtHAb8PvPhHs/R4eFEGMtNWgNftxRpPfNQWAvCucMbVdaOAz2Hl2cT5bD7z1OwM2dT5ZBlS4E0P06on88GLb8PfnTgfPc0e3EVZwx3QiX06AP4MjdUGhR8uQra8WbIuS+2GtzSAJ1k0cLlrDIBDKZ+j4IKQsPUY0pMnYArzYr+NR2XcxQL8s6OAA0r6NtiRJm6UCJLZ9NsPcAmrPHVkcgf8MAXwaeC1w/pV7hSZO9UkvoSO1tTDX3TBzQJ8dEv/KnjtL/ACYcMlyk2kIKWb4WaUpdoZjU2ssGwU8FngtRdhU1mdqLXItaaGj8JgHA8uadR8yz5W4uVzFEn8M7AzV1hQBtNs/QO2BJwom23UXDXbwkqtjiZe7mbo6QpjiaKGkxOSTQ0r6nVyjma3UVKrcJDw6+bg/Yd5b3UmtS0o3xbUupXBWO81WB79GiXv8pg5wnA0DqrNroATU3sWa7wflCj9M031405G3kVUrSyz2f5B2ZhX3c9XXKWV1SH+EKXr5IIpSCZttuooY9ohvo46pMQ+Rht+AugPPzVH3gWp/FfZGHA3kvRaqK3RZyVLyOk7VwCfyqCsihriiqLwszYGnKCpa0u3HWfx0h8mM6tIM1uUAl6ZObIBhlgAabEWcYzz3qbw0m9iyTcJ0rBNv3aOcMojrmnwBCTSvEWZUQi6EFahSYSCGkfzHCYp2RnziHs4yhZB2sgbFM2PLzK6EFYLWoJd9i+NRhoiNCbUqr9VXRJL1ec+crLNKTh0SdAKwOarZKfNAU/v58ZuOwvv9GsI+GyyWPZXU3hLabpQts1riIHfrD75MswqlsXfTIoB/M8MnaNNtmwaZVhtAi+OOqQRrF1FIbzcyJguu0/M919uIm1+Y6yBVxvKEpaK0+2U1tEzZthMs0zCujHOKpHcpGrGMqzF/Due0lo2hzHaRhDgUNmlJ9P+gKPw2TGk9j5wGtAHtG5hOEH6HTMAXmbTtnCGoeKBam8Zct3P0PSzIeDvmQDwFOjC7LgWAE9BBNZL6m7jhHyKUzSJF9YTLobh5LehdJPCw1ct8wRRGNfQRgybD/ByO7cJyxniolWru0svMwyfHRVwMdMmUJOR+5oAHIuMqksnQyrgSzAMnzqFAvgxEwCec63Qm1ixqDo/HVbDfwwf8DviKICbISzrsJmeLrJ0f29V+FBJbn5DYeHB/Bzfjvbw/rzKA4iY3aHq3rAh7z80RhuKw82QafOYRSeOtzUVD+XvJQeYUS3BrX3p0ECEb9BE2n4Jh7AIeQLUUPMDtX7vyMjI8ufqm8ypz1manbPQocTUNFchgZeXIeBfog1D+K94zS6k1tXL/OPM7XlZOQXVIPxMK/B1XqozE9q1SzqSHApNTcnIy1JLH4vK4r7NKI9Wi1id7lh7EErzVi7qkVuv5JNhk1Af68oLFKOt0n+CTnrCsxDwz4wCPpNBgAiKWCBY8Emg79ApxSVd0ZYsaVFrinC4U8IrHKpMDfkExjcvxFPHlt3PoDj1iFiikqibzNmKzWtjWzVPe7rYp7szzaHWVBBId4Ib/I4+Xfhe8CokMSaKWKRCdukkY3GHkmXrbxfYaVzZ5VBvyqvCaP4FKp3cNQY4FIBYA/+piMUqYkh/pmQXJChduIWiRjoMlCRpwFtFA6WfOVz4W2OAz2bNOxHRiDAo66z6fT2qli5HyFHepuXxViWJWMWS+xh30tFEo+8LbzVyyXDSXd37VK9dl4B5hr3J2vBu1ur97IZ4x08aHyQNXn1UeDNhLTX/4M7aqGX1ks8b/TX2J2jD27FCa076TYj3LVeHlsHJ4T8RXYteRlHcbAppfFwciQarAlU4tFqa8r0xkTXR6KGrgF8HXn8BXLTBeMBHiMbRjJJEzcvnSDXUdctO0vyBm7U+Kiix+r04+gyri7rOt45lreDHdqWHOMB9OT4bNu47nI+SJhjcWXAwx1cSCpXU5OZv2tM1SNn/PVp3FajJFz/vKuBfB69/ILo+CtODyVk9Dk6WVmvUV/hoUDb5V5YT7j1AJg+dpet6Gxs0Ztpgnm03ZD/EfzOOPpbwnOheo13qz2kPu/RYZFAdzblI5hd3fKs79r1NOfGjjDWybPLEZOEHzaXE6FO8V3f4lpSvz0i53HLodNeer6jZk8ivAMXLYUvM8UbriWzV9qy5od9wDAI+dwLweawJGH2GA56vBOwyX3ebk1ZaaaFhzndys5w1UQ6h5F2lSg+zLsWBPzPPNn8C8HtZmRfjA/FNsYLtaelmrGL6EGXdu4zYsFooqb7SWC7coI1tdIjJWJ05ATgcavTIWsHiC7Hl04Kh56KBl55LXmaAouMWIiILxvjU7NBGIIWew9F4ajGcknl5QjCjLIYMdE+uNyaNgDwP4TfpL1pDHElHmiILKsPZG3wt+Tkl4eUB9taQrzTtspql33RLBN5oBMbrgonK1dHg3lcVcy2kjbjZkN4ffzt+wAsmPu26DR0RBczUQjS3BzYCKp3Lh5hhp2mSfHG0ITcfCiY5DbJdcl+9osQ8Rjyod2iGhRWLxvF2ZhcRTiQ8MCF9Qek00jBT7OPBSMDnM1htSYZXxFlZ841ZzEDWlV7qRnt9Pb6dzmKiTlTj8YwT64Z30vK9YEC2R5P3BHkjux+hyPmM2xxWXGa4gpJ8VrK6Uf7xdHpDe67sDUlp+3Ir/BOwo0Y1vZnXWPG+dfxj0L9Wa+TxDt9SmPt3eliam1OvjwQcjqJ8Gv7fJw3GO1MW7iqGW563FCWrj5+Xi5L0LfHvQP7GmJhBvczPOFLNBAkKK0z9o8rJW3Q+G40CEb9b01Gi1VwyaclO1uHbTrli51Z6HkTfAWhoiImXnT5MdMtvDk2ajvA1smmXyzYZvPkqP1lAXoAn7mKGU14ZZncGJZ+hb3mgVkY2tZD+CYEn3gi/skKhE5ivuoAo6bMg4Pcw6mVGN58MUNalsE9dNjZ4hQcY6DHOKymX0TII07ct4IKGtKx7XTKL7XLDJAj4XeDdT6Ej6RL9hG+M6r7I8pYXDlDO1bCOnx6qlade5SEGaAStVC/DzVaYAEFROGIofwHijeplPxTqptfhZWmJ3kbZIOvYX+lErIevbdLx0xfIsQkqE9kuOpFiVJh3yWIe4dMR4LNY5RODp2AgL311LP++VRbwQkpGI1nHCspGWYJY8Wr8fKMxD074k1is5Zf20rNybBcaNX0VdNONHtQOv3dMwy9SmuUAP0Fz4vUTjXHBvOoIiJtgt/AKXKrt09ItHIBh37/YR3jclFsZbrrR2fRmFfuLLEd0dCrTsJqOc1WJdFZkNdA+4VglhgJRUjbK+k7y4MWf0iQ35d303wrtIK1WkWB0bpYpq6XTXFj9BixABc1+HFm5Owsub+ypHVmU+ninFqpRDTORPp0A/Mvg/dNaW140GRShzIrtonS6ukIVtQ6lX6RZHJWz4jxb3+eKATOFnxF+/V+tYh/h2E1fQ88WGWQFqjyIPlpVNUQvYSXpVhR/kt34quB7Fyq69oCDVQsnjvC4uBngD54yLm6NWvWJeW74R3sJvCeywnA+o0O3vqNGiscYqwU1uMrIhzlFmzjKyqYfZTTs6m45KnkfAzXQRQ4Wy3rAuv2EK9QvXMChPDq5aieYdLaHScBRNv1jbfRJbVaiOkuyPmJX7IHZd48xXpsGwP0aQscBGOP/DNHZZlAAf4ChzpdgLAcCnrd7FF3rD+28zCFKO1iFjunNxvyE4ZbeoCELr8hThr6i4x2I961foQC+gCH04hg2FHCo6aN46ooro5bik+0ypj6wX73jlaWhsczHzKvOpeCN1Pn+xsz5/p+6aw2uqrrCFzEIKKWtyKvWEcV2OhWn2FYrtcw9N7l5vyAgQd4wvCpJeBUoIBogYYIkanjYSiOCji2CUtoAllZKH/KqRFpbp6NQsZYpygyotbTO1Jk2ESzrO/vss/c+e+1zXT/h3pNzzzp777W+9a1vMdvDHJy6uYIeZAa717wxj3KqW7XQaAro1i+T0NkuWj8ZuDrNqcMfidhDqQKBcU0rHmu+O001P/6B7ALiTcn+Iod3ISOGk38Wl/GdGD2QCu1ctOKUOEG3bCfMMcrl5n3586VJWc+E0HpLBmHUOC2Jn4X+cA44h6s+QNO/PI17b0qblygp/Tl9SDQzPARc/ZmbI09hldiSx18RVT9FLWKkUICG0hqMkNQZMFxGv/p6MrCp7FK7VjZF3GnUttQn+WHDaGmCbUx2kSkovdC8aRd+2q+BoNxd7HBKVZ74THzCHw1RyoSBNs5NSbzVtA5L04i0Tq2MnlYooTxI7O9E977kY+/HF7VVszCsytzQeCabpjfDjMO9Yqq3uTYp1l/02eckDWaFLrG2Kp61uNsJ236+KUxYZ5yGw4g7EOu6MMlIYH3Ix37pihQkCHx4irPrI/XiqtpOyp5TH3w+xrjOtlgKsw0I8jeUxH/oRWHURTMJLyyCjXHSYTaHPjf1TldaFB6jsSFSNtvJieGVso9sqAxrc1ohzY3SUxdooAbGdO9NuYaI3hpT9SEKTHovJiVdo7Ko7b341LvoaTuXBcBj4221GqY3z5oW7IGTvw7EurICHQ5R2z4W+EPJWli6Vx90gyXRwtUo5e8tMAQ+qmgp/EfLxKL44Vjb6vjEnIpYEqiq4D5dmwYxcxn3tgZCpbvUYDYB1vYnx9IogS+7NT3nUwLCOjtOqLw/0WR6j2mMDuJs3a6TOJzKtSWfdtaPhbacB9ZtdKJOVdFiRKZqMmRZltAXpf5JiZQP2nW0Qvp7Wpau+MQ7fIabtnf6Z4oUn1uBIe6xRb6jXylzeOKLkpmUtiBtFSvlkdKjTcPbuO5+h1FwWGUYUgKOvkGtcHLBPiXrRlj0iXf4johaxWbQiyKTocTM4T9IS8lN10j9Dby2WYVx0ZxKebQ/Kd8snc109xVFJpBelRltFCqj78KO/mm5w/vTTz8ejT2acWf4PEcdc6AapabKD0InqqrPFObx3oAdvZPc4VlUc/UgXRFVzhw+nictg/4rtsFWI026XLKNKkaQA54cHjTWJsAGyWhO7loKF/AEDyWO+suK0ybRYa6JGgDIfB7U29ETiTtl5HR30AsP0pbKLnQCtWEdRHFPrzRA2rKXSyujITG6T+oleZJcbYkzh9PfvpPpRdrCdv93eQaYnkngArStMxO1YvR2pfyu5AvvmBbzI1ob00p81gm26gsW1MLdWoObgwEAb8GOfnuowxMDJHpt7uS7aiKI28is3LTkrGu1BuKu5frd4cdAKBrmlHXrEe5wWjD7wJUUjjRgtVene8gVsHDc029z2agPwQP14buwwPuE+ztxM/nGk+ec0MBCMAh7g4hGO1L2wWypSIVzPE2/VrVEOgIB5VWFRmfHJ193A0aCVXMxFaaZN29rWqO+8vkmbV54A+X+Hf0+cF26KDgcoJd9JvlFZGvgAkianXHUwakAACAASURBVBV87/K0OajbtXnp0EL4TjJMqktkXyPf2RCLBudSrteszrx5W9NO08VXqMB70e48wSR8tTJ78VK7g3zngXQcDUdsmDeNpdZz/oap2qDVQl1qFAg3noRCWWclfye+Qr+115CRF8nGsrQLp7A+2sr5GxbR3zA+HMMAxYIPNXMO7x+wwG9Sc3iPKyT1E92hDIZGy5i59i683UkrQocV5OuGbcc0OZbFNdIWwq4D1RwOoqvQcDTXicPp6njF3oUfdihGBiCYggBBi16rzzB5En6Dor9BzekxL4pmu5WddxTXCud1OBzJCgyxRj2wBgZ2/g0c/iVVh382KZlD6kahr46LezbMJaMDHBJOkj2ghRLAC/X8AyDN1l3V4VA/+XEMusrTuNLlHe7OcN+Wmx/KH1mhFVJulnOb+iSUjTYcvawPGVmGvC0ioCPcRempVMkUTeILBWtaQtDIGmklXCi2GWDfkI0/cTJbmtaN7rd3YYd5uA+595aHQSkgHVig8e56PwF/98xSd/iV9Ktn3B/is7mINsedIW3tBmp5oSnOPA1EGVG2f5kl4R02OCkZWudVO3B4JRcxxR2W3mEwTC3sCCnTqArvoZ89B3WTroM1HJ7oLDvEHWTiOVGG+0htv7NqWYcBezWMBZpdo/6iH5A3GA3S8TeQIOAQd9COcFoXYzSMBtkrAzkr9cCXUmXVoQZa4/A+0Oc2BfafwCHuAE6fx1aTnepEbjUoZgilOk1Vzk7ovEufHr5SJTzwEIdM/LxjKN1i7QQkSflp18WQmU3WCeslMWVBpRxlG5LQs86ydgT+mvgwLiidq2dNNWjw0o9KP71VdS+lNQGv/jnDuon4EAcliDHsT6mZTQOyzXX8uZTyIELCBtrq3Rb4uQqYSf8qLPBbNf2Nh/haJzLEQaHVDIs7rKNWo0sMxsTXnNbItQJllIAv4D0RKWTzH+IHHQsDzOQq0E131EwYXOKQ/5o5ivcHqi7/AX9f3UXX4XCIr3LMTq/kmjA2yY2ANjGq9+nllqnvQEFp+6N5ci7bt7T9nbhRNqZwBvMjKmFT16Ll8N0u/I1qgNJiREWukv7TPdBQNjwKyiaE06kwAOe0dcHGZlE/b0IMtf2KWo0lvlxlbysB8hQMjg7vCU+EzqX8C1cniMrGa1EB8oCxXnEE26mxxFtVet9GyJkPSv0mITXxN4xUauyk4TY33lKusqsUIR8FS/y86hu5XwmvRQ2AzlkmDqdyTrPOmYq+R994LfKQCvJiaY0EwrKsGjFGIVgCZU/sGBUPpdMltlFh5ULe8HY018Z7dzzisU0wyb6mQRFyWqMCurwE/u7VycjhnfrKJPp4eU6Luapzi1wXBYQAmqwqMiJ8c8OoH2SbgmaUabLTX9ABCKPaNq7RJPfHkJV1LHFgp6QDERU6i3q56CPl8jpZ8npDh1N1n4knHaKrs7lwl1aXkYjs2A1kXtAG/1OCT3wIl3o5EvMhuMVsl+kgDwNjUuVLHatxT8cUn+KB2ALNSAtD6wzez5dpqKNLrUsvWYl0B+fjKWIZh+CDtR1Kx/oC9SA9LBBl8iNcT+VJZxAmB2SZOhz6xA+p3TADlD7X2nV3ONylcInPVmO3LQwD+4H5XI+gy7XG/k58XYau5hYwPp1TTFD64pg0yERwW2uFSuLoAxkbCuUj6bp1N3c46OzuY2OS+qyFZ4XntMWkMtgBtwGiHvAeTw+hhNMeLO/oYxGpTcR6yrTTObtIV/IctePiG+EiSJ9HNRk4vCxX3k/W96ooDqcl0mX14SkiC+JtjXhWF5dS8EcGdXHx7wpxeHMI06VPFH8nbk9KBqBwhjx09xth67K0+zr3mGOHnwVnFVWFn+HQqltMDyXv3wi69IvkcEBXf+rx+CEMS2q2dNUjXoxHeLsdBo+LIMR50qANpLK9X9kCXYToKkhBMOJUVILS1szTHSYCxzZtDqTQbWWhcQZl5JfsllPZdDqEFQS8IDFL8ykDTGNp8VxvIHdr16CDX8T3pkhbHv3PrfD918DfvSP6G8fWveWqH+E4R3hYlueYay04VCDGTvvjINp9mC9d4L9Lak0oU1HhvFymrDzZEQ6ZzuHY0VfE4HCo1ol6C4dJpG3xBN+ATJcuUR2e6COrmO1mozKe5cgHauMhP9AoG9ao/y42BdfDi/PlKl1RUNUA7uq7jhLZ8579ARiQ4FbmxOFwpB96tQjvjgkOXwBG8JHRL+8R3eGQmEE/AhsHsKJNfzRAmDW77o8T2rHx4LUt0tRts2SB74XpJsk7EhbsBnLJ5446AtsoUaHcBo7ekgE7esovCbESilCzAyEIaAj3VmHZpJMNh98mozLyZTa0x7bNwvb7iMGAApYaykwp+gKaH5eIb1a3hSzwITb8jeMR/uio/ADdz/OiX3GNo9NIt4ID6MuRQK7oPSELvNdlVhwOTYWg9jKT66lMt/1iPejFNJ3Jb4tl6Mu3g/KThpqQBX6LHX9DPwKAbd5ppofS1GZZPw/KyI3x+Tu1tFCCvtAoPv3/+s7okAV+xVWWHP4Zet03HfUNL7GL4pa0xTONS+XlI2JxlKFYGgjDPz7REhndT2XsJqOnl3M9lBGeVeIqDJyZUhKnw6vzg+lt4wM6jQ6EgGx9B9pyeOKb9Mq/cFNAOWG1lIl9AKNTsRpKeW0LQpw+7tlEFQkfyHajNX+j2surdpdeYPbyCn2xyiJdDTRrbQr9WUFfJgUkj5MCcgxvHd8CR7DtNc+NWOlom2wLTcVT5+hLY4UQWP14vgzS4d7HBf75hEW7lVx6+G9oawTXaQiaAKVRKMW4IY6M2+HZMLXwIgW4YqUQycyGyQo+mU2bCzyR+KpUlZGreyMn3x4reiOgbDlxO9yHvpQL4YeLoQb2nr7EeIL/zwYmZZMKXe3pEWgvKHk0PxW/HRZKsG4VLqaqIvjwC5iDD7bq8ERvOm6YspVruPb0sYrdd+G2AgQ3qjPA4dOF+oyzhe3ryHt4O2k0YVTdbqKXf9vNgZgNoayxDgSCLvtTmWBAb8ttj8+AonxBY+o0yPMe/TsXyBZQQFnlaE+HwbnGFRQAXZy2EErOGQBYJ/jrI3ViUBVlVa2h6EEFlFnPu4nTywqtnOI4GuRwKpWJSzy/OHWsUvSG3w2b/zOHmMpkl9gQ+hf+Se/ge44eiaGuzCS9IRTODOffTPANp60QYi5v4gK/07q/ka28ylEHBz6SUqPeoKmZUyejBjT5KedrPQGxC9/Xp2exEF2kbaSwp6fZol7wlbfJ5KzMNNAlEO9tFGVqOSgV8gdc4Lcx+Dtxi3RPZ6s1YvddoQGlCphgK3MyxuFY0fFE5BKss+wdjkLZPTgc/mX6R1YHFXu4l3ittruaVsbaEy6170gd3tFMfLotpGqSvJnD34msq2XYi3cf1yOZh0+hWfcKMGEgtziDHI6SqTRq7+glngz/+h76e0AXFocj0WmXq2UDElVe3h7NC0zOqEI42HaJw1cIz7TfJqOOulC0ofTPrKP3MZvtkdwH3Xde5RE9lC3XOv3V5hIPPsXT7btmE1bJXkR/f4HJ37inL6M1Uu8E2zPB9hqvVks9CujOtanMspGBDn9ItAPUI+aSHMrlcIzTD6orvkezAt8imKFTGd/mUE3QBAVsDHJ4O426+JQnH3yQvIbN3xing6JTC18fxx7fs9AQV34KjsDqDHO475Am7EUYceetRZHNvv35HA54+sQzzkTbRvueRp3pgXAglXE2WejvvPYFvjAvhKlqvSwqw9NBpW8j3yMpWeB7HqpZAVZY7808h5flixy+WRSx/RX93e0yTof3o3/sCZD4Z8xvx+X5HogixjouI1rC/0vdlUdFceThIR7g84o+gz7dKD6zu7obNSbubtZk384wnKOICiog+EAFFFBQFESRwxOVEDwQUDxRQUIQURAwovG+MBA0KKhgUNZrUaOiZtW3IQ8iXVdXd1fXTH5/6jDdVd9U1e/4fl9JD83smkIRsJO8NINLUhV36Q3Yc6RmK8cyeEr89DJOgyUmiLe1PkmH/D2vBHNsoKiqtmtfdQEHFJ0q+RWhEuIRXg1FdFbmwCt4VGK7wVSDrqBpbGDLYVYhcwUfMS6jhVBNO5hfO2YaIgcZK56BmcMrPaTM9qLS6IvAfyvilnPBqPRpX3DcL0PtYMTdRCODTdyUI5Vt6mCJSGcInwl6qldAvC0Gqg74H4g0iNuqKpcmo3zZGLITNlP4K7G/Y6KAWze6gSNbCsaiwekSek06W3X/8I9DBvTsOeDff393oHz9dDNzYcnsOE9mgSsK8ZzXEvKWvtYmaz46MYM8tg5opuqwof8a3lV49lr06dJdpnv3HrGtcIy6kxKILDEEEhiU0zlR7xhYjAje3xSKhmTtrTqOGNxWi7YOn8pSWR6qJbWKq3z5uos7cipGrsFldR2FdG47JxMGPCGJDDgo96Bt02rNmg3s+Plnfcy1ZBss48xvD/yAIrjq5OjRWUhdSDI6Jl+kw/TWm6I5jyThDfWSabt3fqf3wO6D/tnlPcsOWjqz6Ck9MdeFKOnkprLgvN4dMx8T1ziKZ132mTTg1g0GPN6H42D0tDKsbXeF6dXVh/leA6ZfgpuS24FQGkAvXDN2M00bcEBUl3gzmWyz+FzqnWaWRKaT+n321/CzknNNSGn1+D3t6OiqYIt+zzgtM+spkQL3CbEqrn7u0iWedNSFuadE6jFx3HyTB7wMQ4aw/VbL0P4ibY2/A/iCxZwpgoGiAevFA+5zUwJCZ28Upq/sZ5k84Nbn3JAjqtIyNYmdh58RKyhqk4D36OTaV9a/A3tgj3jz+4VsAde+KwnwfmS3TV2a/1jZeLO8glxF24p48/WM8db2kKQH064rUfAlTE2KwXh7+YDvKov0OujpMcqk8XZcBNeI8rXM7WMlahBgti1ZvekIMMjHWxdi25yYm55tojWUBJ/EqfB716bKxnVcFM67HyoF8GFC1TbteV6RWfhUHSOLn19mcnA7XUO3HR26KR3puFVX82vuNx22y4vL36TDH+jTTkEFpQjcO1WakS9v69iZ21bT2tsd5zrg06ovJSzqjBUlPwFFTN15iOyq7afAbYvK4sIEXolYAOWH5UNesDfBdPAOmEx8123P40Sh9o5b/yb3PGZCyguV9C+Abhugp22/W40pGTURHsb/tFuqFEB+YKOJwG3jJ/6y6y7sPxmERHp1+vpbNx4VkyciAkC8lyTRCIDMeKZUfVGsmTPgQZT8+vC7tbIRd/AxCbxHJdG+8KGn96rqKr+vKDpSVHGrsq4+91HNOspf/CMlPadgtg1IqNs5s18DC+EhnG7h3VScl4u4fbYJ4J0WouNhG5Ro8fYkR2ZrmSfQt8MDuNfqQoD0knUyp8H4tEanWC54g7eU9lfSV6h9BWyVrKklCP7Pd0Bb3cm6CFnzMM/IeOsX6jiZUL2xlzSS25+JarustWth2rauBuHApK56UvNQ6jTYHjQu4Ht44a3bL5wtKyV3JHjnAVEuU65BMpxQLV6Ni0PTV1x9/CpvuYSIfKUx8fYwcAP8hpKL5fsK5SC0+1U8Gr2C4frRFtEExOoK6rSb3ogb+gFueINFVonSMEBCPeoQIA/Abon7wymo2v+Ip5yirlDPhBFFIZLRb/TFnuuhi1kDXqKoLw2MzJ7L7N8W5wTACbblJylyjLmoMQejw3Fnoy1wREQWfCrl13tOnNzVPcOlij+9L/zzICB/68bIUR8FT8nDagq8LyFyqa53rMsa/Arg/5lkLMADoFf5wfVtjj+c7X6fruQM12isLIj5VUZ8gzI4CWW7ggLvafBaTmouijpmb4Y694yVYz0FNb0LjkKXgCS56BqgunoeMEWSxWEGAxldwDF2YFGN0k+Hh3KJAu/LcLp1wduC6CyoV9NINySMAq8ghXmWHn5uUrG2O+C35vpeWx1Z/6mXZIFW4EZS7V3gASx0vJaIuh5ohw3OwSxsTcSxAX9HRrqXMoUmCWRz0I/WfwsOSZy7aHfCLwtlLfR/x4HqiaX0tiMg+ZIKLPHgc4onZAI8plyaovAF6M9mCKMGG3CrNE5OHVAVxcsinUsOjC8gVYFiTwVmH4xuqfc6LYA/8kb5tVf/EFniU5TOxxw44fIdDSP/e+jPFqcBX9142wQorS7C3dogkgFKCx/vGrj9bFLOxMlhSycvDomNPzvFb9nYZK9IYH/yH42oqEcpITk1l8X7A6d4JvAQhaqm4TCf73wQBd4vSyH/HL7UBrz4zRiRWaTwFbYz+hmNRWhlPAQlec3liAQMAr7kKugXK3rx3bC3kkfD54vLgjzWBwh3MNb4bSlA1sWTyZc6I4sxt6D2E1n3igPMlyDQN1bSrjkL3pey4ijwTs2jy6TtM34oLtQiu8iE3z0f6dRDEsySo3Ck5AvYhaILc5T94mVfyUuwrYYddHT3k43wsuocIwC+ibkeyUZfNAsyShlrFVtCiQLkVyVIooI77iY45qBpwNiyDWauYVaOkEdmMIJE4wzGrBHHrXZIvK/Ano9cgbe/Ad9zBARJLp9xrWgqGGnVWbAgSCPmEYA8hAd/wIXt6zuUJqnGY5ivT2G8LdvJBLwzsMS9wQ3V10XWyyPufqmj2M5PI1KMDbhnrOTWMINDyMDSZ3uA013/ERHZdNPINfAUB9vF5Xm/Bw0UbgfkrdVlSip9AvPNX+HJieEW0zAGl5PJj0J0iMtX6usLOOracpBPIqMre7aD5ISLd/VjJF2XFNsKU1f8b69zFr6qggKOJ14k4SpK6EWJ5vaHYBQMksqky6inwWdRBDHhEnWzKgvTakBqIRN6OHO4A35O+K5ymVZlKXja6/INijsJoVi8v0iCVfJMOh6QwmjyPvn8xde48S4l5c/ShJ/l35MQLXyBRllptXA/Qo69OAM1ZQovUQAz6kFgaOYmLWupT4TeOzMdDXbQtGMvMkklBaK8MyC0/MDYgEtf4Qm7YogtaReQ++KfFGqstwOKZuAllTrdQkmeOiyFX4pguHinF1VFBIsUC8l+71nhp/lfMX1H+AISI9joHYkFxOHXrkKukq6dlCosfwR+5QslJMH54gF46oaSVxQ0ZAP5ehNP4OPh/OkPAH+Amvdp8zp7SpjY8F+cQUuuWmkU23CQbgKiYaAvm+2CV+1dgX9WXV9MyfsgH8qzQG7ka+6Ap4E1vaOeYjIFLnc897rHUlDZa4vQp6D5RwxE1Hv3Ekmp6xbT0p2iN8NxZKt9/ObjTOr2ggaypwDVlPy5Az4b8StNCkwJd4Z58jaN132y126KvUg5+nxMWdG8n4aFdQEP2BrwBXzpuP5OMEX16W95g9Sr39DzunJEolpYLOlL7oB7Yg+jsC98N22f5LfE7+ikKdN9Z4wukEZqK8bRes27M8FbYwaq+WZASRCqyoD+LNwG3/JTTa3/WsKQl4jsjfvgP+FPXB2vToNJZiUuSdWjm4aRgQlWeFOnatKEe0SPNweS3pcyJQw5R0xlJhSxNZ7jDrirGnCXVmFJIm3ZXZHSzhLc1F9B25T4TZVwxaR0WnPR86mEIYetEdNuidyM+LNG7oDHsIfb9md8E1b/DzTs7K+gePeW45A/0iAyfh8DLiD7Not+yCE7RAvbK5GsX/5KrInM8S5PJ2jxmWlY2gBwia+C817kSLdhKo6C/pK699duipd4kucOmuXNX8Urni3ahnsnSIK67ZnirTGD7laBa9MOpDW+C66QlXvjukjQibUF82naCaIxrH7+6vlM20Mz60mEvw7srzDsSNH9YYfPfT24iK2QUbX9/uA+h655xB93s4gjb7z1DKUArlQQy4mWalwyPhyiC0PHuM4epxOQAg/+0BbkZXioGsnZCf60Pf0BWL1D7py2NFZoRxwjs3kthqhyJe0w6GqdakRxIxG1Dm0QoveHWyiqNcTBLt209zq9oKKLqy32m7jLQHiwAPvhT5Vi3O2u3TTq2CCaHm3dZLiEFYlqg27pCb6M99CSYvZJC56dThGmjvsRHqA4BouoXy/eifO+mUYtgzZ1hOPWtMijBeOeuQxV5azD8WCbF/b2ef6SlVK9SMVjA3fA5ykB+/iPdTdp7klo002jnnWCPPVxj5Bz6/62euY8F9kpcQ/bvvSLI5A0QU7e22kJUVzfjjvgwsJ/3orc+3TRV1553SqaFpymHvARnTVq2lCYk4I5gSfG7Lse6e9zbQz6TL2y87dvuAHm0a7JUrd3SV5KnseL3AEXSrg03Ty4ZUPdM7xGbm3EoyeVGzKiJNx7YKVR2T6FnlkoRx5xWysRtv+CtERZZUwvUbWUAu6AC7uCTr+VKj6xvqiyrv50bv7P9/JzTz+5e+zWkZsnL++UKpLfZqhGdevcB2aLF0vGO+8MQQBOZ+suua7lNUb8obe5Az5alE6sxDp80lfDwXr3gBGXusbzBBTVEwjvNNFLAkvOkcDibWWbeePtImRJVzCF23yEmYaPdYQfXvhUEt7FACUZ6cosXhZKFTcneE5yoHvsSN6AzxI+v5ol3F06abjZEPj5O59JwLsGFFE9htuDT03YRU6HjprjvpnwwxL6/0uNnHfJYAj3MA1Ha/8xglNcQo33M8g3CSLURg057hMCNiICcqfQNUdz/s/euQdHVd1xfPMgu3mQF3kCgTzIJkASEiAhDxrvTg1KWhDS0KpVDBIFNEjwUQlCqqVNQqAUChOLFoyAQ8m0ggE6gEB4OYChCAIqyEh4jCgZB0hggMo45VFmz+/uPXd3s+exm/l9/+R1b86Hc+45v/P7fX+6D+rYAnvz/E408EnwfSpYfbvzgwxi5eWj8Rr1jt1wFmt1TbYbTC+auHDxi+vWL5kw4e1Zq9a/Om/xpi/sPqmzRNWMaaJo4P+EgRQ2uBOyAwzC1VurX/1FR7pUfFyu+VPsZ54oUNNy5589Jhc4rIBvZNFgMrrQIEWZRi076/N2res3UzzQS24y5l11Lw8IAv+DaODPwrIBl7/cwwMDDLI0wqT1Smtv61JYSnf0qL7CEveM76s1TvjCgUMPG9caRvsXBHoZZCpN+72WNVIpNH2pFzIs+5Yd78ZPNEM6Y0UDh6HePV2GbUrJz/QzyNYwytst69COtVywt0mtb2P09b5RorgF8IfhVU5Ll2DHpGQM8TK4hXKotnnn1bHWpv3lDvxsBy6xyPM7dIBm0CkauMoN4JbTE9unICczwOA+Gqbjbd3S2dF+dwtX1Na64cI+R3/E8lYXcRddX0t3ZBUN/AP4biecYO2bmJtd6GVwN6WZ9F+7YsGWMif/Vze4gnzG5tV6FryigcM6o2JHPIP9+6Tn5gWmuh/qB3t1o8Jc5ddndA132zcn9D2XRQOHdUbbyRdLDh+Yl5EUXRB5RwXRScH5eX1D+6dm9TO4uwb7sieuHLjh/A17UUfLGnsm26KBQx/Ia+SLFRo8VQP6dB1sVC/qb1386bYT/QeLbx9f6YCrumjgB2lF8IqS5bHADQGDuso7umesv94GoPzkZ44c1No31C5wzEZfdOClUquo6v5Zy8/gwUrr0ofcmHY3Qhthr5NN/cnr26hzvencznrd/oVyI22w0uZzMo/c4NHqndKF5fx+8l2hvwN/tqSufOuezksdrc3tTW1tTe3Nref+2/lj7e4Fdv+mVOAqQx8yrGz2bOAGvxwnJ7kx+cGaFttL4aiNMm/LVOkPq9kYobrL3i3SGQ5kbm2QmSPwYzITIFTpD2RNQa7B8xXm8LqeAHNr+2WYBAEXnOI0np7+kGHoDhriEHKfUJsdav8QXsC3ygQO7T6qyPfKN3QPZUbG2CGQOELLpz8gOEYEcMFZq7A14lEQaDN0FwXlROkUteZTi9Zjh3IB3iIzLx22L+gk3yvH0I00YNhwjbOWMTFZ31GqfwoH4LUyK09gCeWX5HtlG7qXesSH5kdG+d5bp03+CenBfQc7UOIYnsgZuNjasulwkw58j9MM3VM9vbwCnOmtkxrt+u1bYmAczeb7UaHA/wKBg4ZsgQbUfXllu7Sy97q7SyAKYxok1oer3B+AeeIQJE0EavPMXTuY+yaF3VtO8on8OokOELAK4V/gVcMQM5B3YFKCk+lfUfmFDz4eI62/fFaixwusQtgGXncwMraFHv6zdMeyK2KiggPJpk15hMkUBL5IJPDFOlUI8chXW1nhOXFmX91cP9sDAJFbWS7Rp22aThXCAESrm2MR339gXkb08MSUPj4+IT4JUeb0gtyRfcNjtXP9CKPvWxKdGOEx/AYA7o1QGYowk9sNgY9xk2O44oeUGCqQaiYi0k15ps4x3IiQWIpoq7cajvpjAoFP0jmG+yIklgonqlnhqM93k2O4D0JiqTCiyg0CF9nk5k2dY3gKQmKpQuvIroTARbaxmqpzDE9HSCyVStSwQOBPCgT+ls4xfBBCYqlY68gugMBfEQj83zrH8FyExFK9ieoVCPwDcbzH6B3DRyIkpvFYooQBDvtT0pLSYYX8MITEUt7E0MI+K5PEAZ8LgcMimVCExDT0TgwtbGb6sjjgv9bz5OuPkFjKjxhaWH46QVZteBUEnoqQmIpIcofdqVfJqg2/DoFnISOmIrKkm8G4jxcHfCy1NvyO+iEjpiIKUqFNYKkw3qqWhJ9D5x5ExFaE1zNswPOqMODz4Sb9LKymRERsRdjOQO/XZ4QBfxoChx2/hyIitiIqzqFJ8zxhwP8G86OrMZTOU+nWsYWdOZ4QBvw96DsE92wZiIitCDeKDWDgnxUG/H3w3NsKRlZ5Kto6tqfAwM8WBhw2zTsEgY9ARGwVrFC6XI6TlKOsckrHuhPGIorLYB+raZIuR2sx0MZVRK3RDTDwlaKAT9HJUVZieiAitsqmeW8K8+16We9yFHNWWSuUZvIizAKiVO9yFOMurBVOKxB/5FeCgO8Cj22FwOOQEGNlUstHpwsCPo5unK0oeUiIsWKpxWWiao1g/6ofIHA0eGGtLGrpyRwxqK9KnAAABt5JREFUvEfDp27FfBe+IpLalktJTJ+p27/KCwmxljXHqVpKnrIqZfWAgqWjfOUrOW0VnspqVEZyyIe5EmhZjEtknMpUKatJyIe5zJKT2uCp7BJejvIWcSH+lYwcJ91TGVYhsFeSdXiPgrHfJcPPZyvelfEWcT96CIz9VBmFhLsxR5m3CGu+nWDsFwoB/raOnw9u0nmIMO76ScKF+DrYAxeu6MGIh73CaH2NxDTBgC6rZyDwgYiHvXpT70eF2Ou+pZfBGIt42MuLar75koi6slHgkT/C3i/ouslD1h62JyDwmQKAvwMf2YAWbSJjqxXib08m6dWV4Z6Ni4guaDXCPSDg1cnlErR34a84miWAiGA6LDNqhHu23giHh5KtI9whvH70Q52rE1/MSeciIlH5qujY6hFo/nASAI9ENlxE+Ot+L7rY6BW9TTrejfJREK32RECo7TUI/AQmMApQjwhKqE1An5sndKpO/DHswklRtC4Y/C3ToWHXOfyEC1EBLfLC3W71JYtOuks2kuEkoh1lEwCwXnCKcgOewoWIuBG/BgA8zxv4PJ3shxAEw0vxNF8f7q4flTrNbbATAjf5WTvP7wEEHufM+1M4wfcD4OEIRsA2vUFoAelrOu4uxp7IhZuSaM3qXuAL/DnwsKLleCgTpDRr35MdAg12xxTrVBmFIhZ+IkwBWgGDN7gCX6VzCo/BOmGeuzZrcHU/YHCYa9f4cTo1CMORCk9Zk142QghPc+T9e/iopjJc0YUpmRZN5xl6+ZOF3oAyIgCh8JT1SrxsLzyJH+GX+7ACAi8ngUcjE67qF0GpIOWYyKjasrWDFT0MmfDVcEoOhGUTL96Lxurs0UMwm42z+tK6iHPzcppl0clIT0YinJVlovQ24tUY4chE+JgOcAhHHwDuMtPW9OJPBRQgqFpIFyAP7rLaAmypEXAym39YtWUDJSeFyIO7gkyUYJtl1HccgB9UTfDjWEMoL9im8tjlMcWXqB7RVoGGuqKVRstzshS/w9xedbIK+A3QBAHTk0XI2+q5Wq/C8S7ra9HfqB7w8RoSeBrCELymlyy18LxCefg51T9v2QiCLjjBRcdelAsqIJUsb0l/vljNu6oMJ7iMNd26T1/TpELCMPNl0ftq3kW38AsueU1XdTC7s2+bwizCNlXNW5Wsiq0nZezTK9RTvJJRXeHfN9nw3g4alZmRgzB5GelfcUbNpV//ow3voq9J3iYsERYowki7pFkNZjyDz/e6Yhvelm+wTZk0ET3r1BUJd2aiy6WkT06zxW35CgTR/b2RgkD5Ee1PlJtqNJNdO43/cp7G9LZsP4DJ6BJFWKcrdTvUcA67QHx06eMauC01+wDvdEQgVgNMCv1oZrGMmtvVWGrpF1q4LZfPQo8PzHuQuG1Tys7YAHrkdFca0M6Z96gmbktxLZplS1YmOf51NbaMZjvrsDx91kILRTNaIO9BOP7iZSYJtGhQWjHBiUk+eu7iyTTclsv1kLcPVpNJPpnZ5L78vxXK647RfmzVu4ctdO1VNRk1ohm+FEWREKqvabJ64yl7s3zMC29+aNFV81rIG09kbjHFly/VxjX2NL3X9HcfvfjnIosdXdmi4v0QDr0kJQIOF9toyMY+P2GOqinK6CkfvXfwFxb7unxchVuJxFITWUo1ARL79uqAG1U5e9dfT5euLz39zG+nTlthcVBV+9S8zWjoIk/RkMXuvRa22nGyRM27D4bQJcrbH9LY18SU9806NW7FJwhHXabSVDzqmtnhrjqr2PLGiKpc9RiqIrLgM0a4t7WU2fLug/NbtrJUi7pS9kMxi9ldq4FbMWOATb4CbbCUt7tIu/hKuaKlSDRzcQfl2oCpOFXkAu728ys1cSsZeP52C/Uz27L55FoXaddc/bpMG7cxFIfaTRQUosGnvtF52ns3N1QrFPngfYn7KNZfC1HDbed25d+WlyhURePn252UadSktLrTwThM+9VjKxUd+WIVuJspXJu4UnL2lJ0te3HjqZY6RV8FGE31GOJ3L9E2bqj6jxbrf5zZf/xWhWJPIdjuwC1XdX89aNWrl13Yeehox7XWqqozHUcP7Txeu3u54ogikvFyzE13biEKe8UkYSzVfU9nZua4o7EdmTvLL5gpbmPuABxTd9+6+TLD3SsZt+YeIO8CJrRN6SPQzMNTJrmPy7gT8jDLwYPUb5i/K7R98jFo7mnySu7ip9xkTo7H4fNEBfRNcJp2SFwgbtM8WJlxTqzsIdFpeOL2ePUMj+vlQHAlJTgQ92jdRvHZg+i79oiUuOzBGCnvfnu4wQPzByUm+D5wYP7f2IWljcStdAQNR5eoDfcynpGJiYlrmIyoAAA9Li91fKOklwAAAABJRU5ErkJggg==;aspect=fixed;" parent="JN2aCoUtrqrgfyc8CFwK-82" vertex="1">
          <mxGeometry x="639" y="141" width="12.22" height="12.61" as="geometry" />
        </mxCell>
        <mxCell id="JN2aCoUtrqrgfyc8CFwK-107" style="edgeStyle=orthogonalEdgeStyle;rounded=0;orthogonalLoop=1;jettySize=auto;html=1;shape=link;exitX=-0.014;exitY=0.83;exitDx=0;exitDy=0;exitPerimeter=0;entryX=1;entryY=0.5;entryDx=0;entryDy=0;entryPerimeter=0;" parent="JN2aCoUtrqrgfyc8CFwK-82" source="JN2aCoUtrqrgfyc8CFwK-34" target="JpfB7zD26m4SBqy2sYj4-28" edge="1">
          <mxGeometry relative="1" as="geometry">
            <mxPoint x="433" y="510" as="targetPoint" />
          </mxGeometry>
        </mxCell>
      </root>
    </mxGraphModel>
  </diagram>
</mxfile>
